<svg version="1.1" xmlns="http://www.w3.org/2000/svg" xmlns:xlink="http://www.w3.org/1999/xlink" x="0px" y="0px"
	 viewBox="0 0 325.66 327.46" xml:space="preserve">
	<g>
		<linearGradient id="compromisGradient" gradientUnits="userSpaceOnUse" x1="33" y1="195.9" x2="296.99" y2="195.9">
			<stop offset="0" style="stop-color:#F19027"/>
			<stop offset="0.2448" style="stop-color:#EB7F27"/>
			<stop offset="0.7264" style="stop-color:#DA5427"/>
			<stop offset="1" style="stop-color:#CF3827"/>
		</linearGradient>

		<path class="template-icon-background" d="M302.9,326.5H23.1C10.4,326.5,0,316.1,0,303.4V23.6C0,10.9,10.4,0.5,23.1,0.5h279.8
			c12.7,0,23.1,10.4,23.1,23.1v279.8C326,316.1,315.6,326.5,302.9,326.5z"/>

		<rect class="headline-bar headline-bar--1" x="32" y="150" rx="10" ry="10" width="50" height="17" />
		<rect class="headline-bar headline-bar--2" x="30" y="185" rx="15" ry="15" width="260" height="28" />
		<rect class="headline-bar headline-bar--3" x="30" y="225" rx="15" ry="15" width="160" height="28" />

		<g class="headline-active">
			<rect class="headline-bar-active headline-bar--1" x="32" y="150" rx="10" ry="10" width="50" height="17" fill="url(#compromisGradient)" />
			<rect class="headline-bar-active headline-bar--2" x="30" y="185" rx="15" ry="15" width="260" height="28" fill="url(#compromisGradient)" />
			<rect class="headline-bar-active headline-bar--3" x="30" y="225" rx="15" ry="15" width="160" height="28" fill="url(#compromisGradient)" />
		</g>
	</g>
</svg>
