<?xml version="1.0" encoding="utf-8"?>
<!-- Generator: Adobe Illustrator 23.0.3, SVG Export Plug-In . SVG Version: 6.00 Build 0)  -->
<svg version="1.1" xmlns="http://www.w3.org/2000/svg" xmlns:xlink="http://www.w3.org/1999/xlink" x="0px" y="0px"
	 viewBox="0 0 325.66 327.46" style="enable-background:new 0 0 325.66 327.46;" xml:space="preserve">
<style type="text/css">
	.st336{fill:#DFE3EF;}
	.st337{fill:#BFC5D6;}
	.st338{display:none;}
</style>
<g id="Layer_2">
</g>
<g id="Layer_1">
	<path class="st336" d="M302.89,326.5H23.11C10.4,326.5,0,316.1,0,303.39V23.61C0,10.9,10.4,0.5,23.11,0.5h279.77
		C315.6,0.5,326,10.9,326,23.61v279.77C326,316.1,315.6,326.5,302.89,326.5z"/>
	<path class="st337" d="M282.86,210.04H47.14c-7.78,0-14.14-6.36-14.14-14.14v0c0-7.78,6.36-14.14,14.14-14.14h235.71
		c7.78,0,14.14,6.36,14.14,14.14v0C297,203.67,290.64,210.04,282.86,210.04z"/>
	<path class="st337" d="M195.64,255H47.14C39.36,255,33,248.64,33,240.86v0c0-7.78,6.36-14.14,14.14-14.14h148.5
		c7.78,0,14.14,6.36,14.14,14.14v0C209.79,248.64,203.42,255,195.64,255z"/>
	<path class="st337" d="M76.33,166H43c-4.4,0-8-3.6-8-8v0c0-4.4,3.6-8,8-8h33.33c4.4,0,8,3.6,8,8v0C84.33,162.4,80.73,166,76.33,166
		z"/>
</g>
<g id="Layer_3" class="st338">
</g>
</svg>
