<?xml version="1.0" encoding="utf-8"?>
<!-- Generator: Adobe Illustrator 23.0.3, SVG Export Plug-In . SVG Version: 6.00 Build 0)  -->
<svg version="1.1"
	 id="Capa_1" xmlns:cc="http://creativecommons.org/ns#" xmlns:dc="http://purl.org/dc/elements/1.1/" xmlns:inkscape="http://www.inkscape.org/namespaces/inkscape" xmlns:rdf="http://www.w3.org/1999/02/22-rdf-syntax-ns#" xmlns:sodipodi="http://sodipodi.sourceforge.net/DTD/sodipodi-0.dtd" xmlns:svg="http://www.w3.org/2000/svg"
	 xmlns="http://www.w3.org/2000/svg" xmlns:xlink="http://www.w3.org/1999/xlink" x="0px" y="0px" viewBox="0 0 1042.1 691"
	 style="enable-background:new 0 0 1042.1 691;" xml:space="preserve">
<style type="text/css">
	.st0{clip-path:url(#SVGID_2_);fill:url(#ellipse17_1_);}
	.st1{fill:#FFFFFF;}
</style>
<sodipodi:namedview  bordercolor="#666666" borderopacity="1" gridtolerance="10" guidetolerance="10" id="namedview179" inkscape:current-layer="Capa_1" inkscape:cx="520.64095" inkscape:cy="1038.1869" inkscape:guide-bbox="true" inkscape:pageopacity="0" inkscape:pageshadow="2" inkscape:window-height="1400" inkscape:window-maximized="1" inkscape:window-width="2560" inkscape:window-x="-12" inkscape:window-y="-12" inkscape:zoom="65.946277" objecttolerance="10" pagecolor="#ffffff" showgrid="false" showguides="true">
	<sodipodi:guide  id="guide4675" inkscape:locked="false" orientation="1,0" position="-164.17927,348.22739"></sodipodi:guide>
</sodipodi:namedview>
<title  id="title15">PP</title>
<g>
	<defs>
		<path id="SVGID_1_" d="M325,40.2l-0.6-0.1c-24.6,2.8-48.7,8.3-72.1,16.3c-15.5,5.2-30.6,11.7-45.1,19.3
			c-11.5,6-22.7,12.8-33.4,20.2c-0.7,0.6-1.9,1.1-2.2,2c-1.9,1-3.7,2.1-5.4,3.5c-6.9,5.3-13.7,10.6-20,16.6
			c-5.5,4.5-10.4,9.8-15.4,14.8c-2.3,2.7-5.4,5-7.1,8.1c-4.6,4.4-8.5,9.5-12.3,14.6c-2.7,3.6-5.9,7.1-7.8,11
			C95.8,177,89.1,188.2,83.5,200c-1.6,1.3-2.3,3.2-3.2,5c-1.1,2.5-2.8,4.8-2.8,7.6c-2.8,6-5.2,12.1-7.3,18.4
			c-2.2,3.5-3.5,7.4-3.9,11.5c-0.4,1-0.7,2.1-0.9,3.2c-1.5,1.8-1.8,4.2-2.3,6.3c-0.6,2.8-1.7,5.5-1.6,8.5l-0.1,0.4
			c-2.3,2.5-1.9,6.4-2.2,9.6c-0.4,1.4-0.7,2.9-0.8,4.3c-1.9,4.2-2.1,9-2.1,13.6l-0.1,0.6c-1.4,3.2-1.1,6.8-1.7,10.1
			c-2.3,16.9-2.3,34.1-2,51.1c0.1,11,0.9,22,2.5,32.9c0.3,2.4,0.4,5,1.3,7.3l0.2,1.3c-0.1,5.7,0.8,11.4,2.7,16.8l0.1,0.5
			c0.2,3.6,0.2,7.5,2.2,10.7c1.5,7.8,3.5,15.6,6,23.1c0.2,3.1,1.1,6.1,2.5,8.8v-0.8c0.9,3.8,2.1,7.5,3.7,11c0.3,3.5,1.6,6.8,3.7,9.5
			l0.2,0.6c0,2.5,1,4.9,2.8,6.6c11.2,26.9,26.8,51.7,46.1,73.6c11.1,12.2,23.1,23.5,35.9,33.9c6.8,5.2,14.2,10.5,23,11.7
			c4.1,0.4,9.1-1.1,10.9-5.2c2.4-2.4,1.9-6.3,1.9-9.4c-0.4-3.1-0.1-6.7-2-9.4c-0.2-1.4-0.5-2.8-1-4.2c-0.4-4-0.9-8.2-3.1-11.7
			c-2.3-9.2-4.8-18.4-7.9-27.4c-0.3-3.3-0.9-6.8-3-9.6c-2.2-7.8-4.6-15.6-7.3-23.3c-0.7-4.3-1.7-8.7-3.8-12.5l-0.1-0.5
			c-0.5-4.4-1.8-8.7-3.8-12.6c-0.5-2.4-1.2-4.9-2-7.2c-1.1-5.3-1.8-10.9-4.2-15.8c-0.2-1.1-0.5-2.2-0.8-3.3
			c-0.2-4.4-1.2-8.6-2.8-12.7c-0.2-1.8-0.6-3.6-1.1-5.4c-0.3-3.9-0.2-8.2-2.1-11.8c-3.1-20.7-4.2-41.6-3.2-62.5
			c1.2-5.1,0.6-10.6,1.5-15.8c0.9-7.1,2.1-14.2,3.6-21.2l-0.7-0.8l0.7,0.5c1.2-7.1,3.4-14,5-21.1c2.3-6.9,5-13.8,7-20.8
			c0.8-1.2,1.5-2.5,2-3.8c3.7-9.4,8.4-18.3,13.3-27.2c5.5-9.4,11.7-18.3,18.6-26.7l-0.1-0.5c2-2,3.9-4.1,5.7-6.3
			c5.3-6.3,11.5-11.8,17.3-17.6c11.4-9.7,23.3-18.9,36.3-26.4v-0.3c5.1-2.5,9.9-5.6,15-8.1c21.2-10.9,43.8-18.9,67.1-24
			c32.4-7.1,66.2-8.7,98.9-2.5c19,3.1,37.3,9.1,55.1,16.1c9.9,4.5,19.8,9.3,29.4,14.4v0.2c13.3,7.6,26.1,16.2,38.1,25.7v0.2
			c8.4,6.8,16.3,14.1,23.7,21.9c7.1,7.6,13.6,15.8,20,24c1.2,3.6,4.8,6.6,8.8,5.6c3.2-1.2,5.5-4,8-6.3v-0.2
			c5.8-4.3,11.1-9.4,16.9-13.8v-0.3c2.8-1.9,5.5-3.9,8-6.1c2.6-2,5.4-3.7,7.8-5.9c1-0.7,2-1.4,2.9-2.1c3.7-1.6,7.1-4,9.8-6.9
			c4.9-2.7,9.5-6,14.3-8.9c3.2-0.8,6.7-2.3,8.6-5.1c2.5-1.2,4.9-2.6,7.3-4.1c2.5-0.7,5.1-1.6,6.8-3.7c2.9-1.2,5.7-2.6,8.3-4.2
			c2.5-0.2,4.8-1.3,6.5-3.1c2.9-1.1,5.8-2.4,8.5-3.8c3.5-0.2,6.6-2,9.4-4l0.5-0.2c2.3-0.2,4.6-1.1,6.5-2.5l1.5-0.5
			c3.4-0.5,6.6-1.7,9.5-3.5l1.8-0.6c2.6-0.2,5.1-1.1,7.3-2.5c4.8-1.2,9.6-2.7,14.3-4.2c3.7-0.2,7.3-1.1,10.6-2.8l0.5-0.1
			c4.6-0.4,9.4-1,13.6-3c1.8-0.3,3.6-0.6,5.4-1.1c5.3-0.1,10.6-1,15.6-2.7c3.1-0.3,6.2-0.7,9.3-1.4c5.5,0.3,10.9-0.8,16.3-1.1
			c6.3-1.2,12.8-0.3,19.1-1.7c8.9-0.2,17.8-0.2,26.8,0c4.3,1.1,8.8,0.7,13.2,1c5.7,0.6,11.3,1.3,17,1.6c2.3,0,4.1-1.8,5.1-3.7
			c1.4-3.3,0.6-7.6-2.8-9.2c-14.4-8.6-29.4-16.3-45.2-21.9c-3.2-2-6.8-3.3-10.5-3.7l-0.6-0.2c-2.5-2.4-6.2-2.6-9.4-2.9
			c-1.4-0.5-2.9-0.9-4.4-1.2c-3.5-2-7.7-2.6-11.7-2.8c-1.7-0.5-3.4-0.8-5.2-1c-4-1.6-8.4-2.3-12.7-2l-0.5-0.1
			c-7.9-2-16.2-1.6-24.2-2.6c-9.8-0.5-19.6,0-29.3,1.4c-3.5,0.2-6.9,0.6-10.3,1.2c-5.6-0.1-11.2,0.9-16.5,2.8l-0.6,0.1
			c-4.3,0.1-8.6,1.1-12.5,3l-0.5,0.1c-4.7,0.5-9.2,1.8-13.4,3.9l-0.6,0.2c-2.7,0.1-5.4,0.9-7.8,2.2l0.8,0.2c-1.4,0.3-2.7,0.7-4,1.4
			c-2.7,0.1-5.4,1.1-7.4,3l-0.6,0.2c-3.1,0.4-6,1.7-8.4,3.7l-0.6,0.2c-2.5,0-4.7,1.4-6.4,3c-11.8,5.6-23.1,12.1-33.9,19.6
			c-1.7,1-3.3,2.1-4.9,3.4c-2.5,1.7-5,3.5-7.4,5.4c-4.2,3.2-8.4,6.5-12.4,10c-3.9,3-7.7,8.6-13.4,6c-1-0.9-1.8-1.9-2.6-2.9
			c-8.3-13.1-18.2-25.2-29.3-36c-13.6-13.6-28.9-25.3-45.5-34.9c-31.2-18.4-66-30-101.5-36.5C400.3,38,362.3,35.5,325,40.2"/>
	</defs>
	<clipPath id="SVGID_2_">
		<use xlink:href="#SVGID_1_"  style="overflow:visible;"/>
	</clipPath>
	
		<radialGradient id="ellipse17_1_" cx="782.4851" cy="523.0865" r="323.34" gradientTransform="matrix(1.03 0 0 -1.03 -405.28 682.0599)" gradientUnits="userSpaceOnUse">
		<stop  offset="0" style="stop-color:#F3C006"/>
		<stop  offset="0.33" style="stop-color:#E59616"/>
		<stop  offset="0.66" style="stop-color:#D56224"/>
		<stop  offset="1" style="stop-color:#C40904"/>
	</radialGradient>
	<ellipse id="ellipse17" class="st0" cx="521" cy="363.6" rx="519" ry="518.5"/>
</g>
<g id="_7790aacb">
</g>
<g id="_0056a3ff">
</g>
<g id="_ffffffff">
	<path id="path116" inkscape:connector-curvature="0" class="st1" d="M365.3,258.9c29.7-7.4,60.2-10.9,90.9-10.5
		c29-0.1,59.2,5.7,83.6,22.1c18.2,12,32,29.9,40.3,49.8c6.9,15.8,10.5,32.8,12.5,49.8c2.7,27.5,1.8,55.6-5.7,82.3
		c-5.1,18.7-13.5,36.7-25.7,51.8c-11.3,14.1-25.9,25.2-42.5,32.3c-22.7,9.9-48,11.4-72.4,9.7c-14.3-0.3-28.5-2.7-42.5-5.5
		c0,34.5,0,69,0,103.5c0.3,4.3-2.8,8.5-7.3,8.4c-20.4,0.4-40.8,0-61.1,0.2c-3.6-0.1-7.6,0.4-10.8-1.7c-2.8-2-3.6-5.6-3.6-8.8
		c0-118.3,0-236.7,0-355c-0.3-6.4,3.2-12.5,8.9-15.4C340.9,265.9,353.2,262.4,365.3,258.9 M416.5,321.6c-4.2,0.8-8.3,2.1-12.6,2.6
		c-0.4,48.8,0,97.7-0.2,146.5c18.4,4.6,37.5,6.6,56.4,4.7c4.1-0.8,8.1-1.9,12-3.4c12.3-4.7,22-14.9,27.2-26.9
		c7.1-15.2,8.3-32.3,8.9-48.8c-0.6-18.5-1.8-38.2-12-54.3c-7.5-12.4-21.4-19.7-35.5-21.6C446.1,317.7,431.1,319.4,416.5,321.6
		L416.5,321.6z"/>
	<path id="path118" inkscape:connector-curvature="0" class="st1" d="M729.3,248.7c14.7-0.3,29.4-0.9,44,1.1
		c16.7,1.9,33.3,6.3,48.3,14c15.7,7.9,29.2,19.5,39.3,33.9c18.2,26,25.2,58.3,26.1,89.6c1.3,29.9-2.6,60.5-14.9,88.1
		c-10.6,24.2-28.7,45.5-52.4,57.7c-24.6,13-53.2,15.4-80.6,13.4c-14.3-0.2-28.3-2.9-42.3-5.5c0,35,0.2,70.1-0.1,105.2
		c0.2,4.6-4.6,7.1-8.6,6.8c-21.3,0.1-42.7,0.1-64,0c-3.7,0.2-8-1.5-9.2-5.4c-1-3.2-0.5-6.7-0.6-10.1c0-116.7,0-233.3,0-350
		c-0.1-3.9,0.7-8.2,3.5-11.2c4.6-5,11.1-7.2,17.2-9.7C665.2,255.1,697.3,250.4,729.3,248.7 M718.6,320.4c-7.4,0.6-14.8,2.2-21.8,4.5
		c0.3,48.5,0.1,97.1,0.1,145.6c18.3,4.9,37.3,6.6,56.2,4.9c8.3-1.3,16.2-4.4,23.1-9.3c8.5-6,14.3-15.1,18.2-24.7
		c7-18.6,7.8-38.8,6.8-58.4c-1.2-12.3-3-24.8-8.6-36c-4.9-10.2-13.3-18.2-23.6-22.6C753.1,318,735.4,318.2,718.6,320.4L718.6,320.4z
		"/>
</g>
</svg>
