<?xml version="1.0" encoding="utf-8"?>
<!-- Generator: Adobe Illustrator 23.0.3, SVG Export Plug-In . SVG Version: 6.00 Build 0)  -->
<svg version="1.1"
	 id="Capa_1" xmlns:cc="http://creativecommons.org/ns#" xmlns:dc="http://purl.org/dc/elements/1.1/" xmlns:inkscape="http://www.inkscape.org/namespaces/inkscape" xmlns:rdf="http://www.w3.org/1999/02/22-rdf-syntax-ns#" xmlns:sodipodi="http://sodipodi.sourceforge.net/DTD/sodipodi-0.dtd" xmlns:svg="http://www.w3.org/2000/svg"
	 xmlns="http://www.w3.org/2000/svg" xmlns:xlink="http://www.w3.org/1999/xlink" x="0px" y="0px" viewBox="0 0 237 99"
	 style="enable-background:new 0 0 237 99;" xml:space="preserve">
<style type="text/css">
	.st0{fill:#FFFFFF;}
</style>
<sodipodi:namedview  bordercolor="#666666" borderopacity="1" gridtolerance="10" guidetolerance="10" id="namedview4496" inkscape:current-layer="Capa_1" inkscape:cx="133.91149" inkscape:cy="133.5995" inkscape:pageopacity="0" inkscape:pageshadow="2" inkscape:window-height="1018" inkscape:window-maximized="1" inkscape:window-width="1920" inkscape:window-x="-8" inkscape:window-y="-8" inkscape:zoom="3.1848921" objecttolerance="10" pagecolor="#ffffff" showgrid="false">
	</sodipodi:namedview>
<path id="path4487" class="st0" d="M56.9,37.8c0-18.2-10.2-24.4-24.2-24.4H6.2v78.3h18.3V63.2h6.8C46.3,63.2,56.9,56.3,56.9,37.8
	 M38.2,38.2c0,7.1-2.2,9.8-7.5,9.8h-6.2V28.6h6.3C36.2,28.6,38.2,31.3,38.2,38.2"/>
<path id="path4489" class="st0" d="M112.6,69.8c0-13-5.9-19.5-21.6-26.4C83,39.9,81,37.6,81,33.4c0-2.9,2-5.6,5.5-5.6
	c5,0,6.9,2,12.3,8.4l13-11.7c-6.6-8-12.6-12.4-24.6-12.4c-15,0-24.3,10-24.3,22.8c0,12.4,5.7,18.3,21.3,25.1c8.7,3.9,10,6.6,10,10.9
	c0,4.3-2.8,6.3-6.7,6.3c-3.8,0-8.1-3.3-13.3-9.4L61.4,79.3c6.5,8.6,13.5,13.6,25.8,13.6C101.8,92.9,112.6,84.5,112.6,69.8"/>
<path id="path4491" class="st0" d="M174.4,52.4c0-27.6-10.5-40.3-27.9-40.3c-17.5,0-28.2,12.9-28.2,40.4c0,27.7,10.4,40.3,27.8,40.3
	C163.8,92.9,174.4,80,174.4,52.4 M155.2,52.6c0,19-2.9,24.1-8.7,24.1c-5.9,0-8.9-5.4-8.9-24.3c0-18.9,2.7-24.2,8.7-24.2
	C152.1,28.2,155.2,33.8,155.2,52.6"/>
<polygon id="polygon4493" class="st0" points="230.1,91.7 230.1,75.7 202.1,75.7 202.1,58.6 219.9,58.6 219.9,42.9 202.1,42.9 
	202.1,29.4 229.4,29.4 229.4,13.4 183.6,13.4 183.6,91.7 "/>
</svg>
