<?xml version="1.0" encoding="utf-8"?>
<!-- Generator: Adobe Illustrator 23.0.3, SVG Export Plug-In . SVG Version: 6.00 Build 0)  -->
<svg version="1.1"
	 id="svg24713" xmlns:cc="http://creativecommons.org/ns#" xmlns:dc="http://purl.org/dc/elements/1.1/" xmlns:inkscape="http://www.inkscape.org/namespaces/inkscape" xmlns:rdf="http://www.w3.org/1999/02/22-rdf-syntax-ns#" xmlns:sodipodi="http://sodipodi.sourceforge.net/DTD/sodipodi-0.dtd" xmlns:svg="http://www.w3.org/2000/svg"
	 xmlns="http://www.w3.org/2000/svg" xmlns:xlink="http://www.w3.org/1999/xlink" x="0px" y="0px" viewBox="0 0 100 48.1"
	 style="enable-background:new 0 0 100 48.1;" xml:space="preserve">
<style type="text/css">
	.st0{fill:#FFFFFF;}
</style>
<sodipodi:namedview  bordercolor="#666666" borderopacity="1.0" fit-margin-bottom="-0.1" fit-margin-left="0" fit-margin-right="0" fit-margin-top="0" id="base" inkscape:current-layer="layer1" inkscape:cx="-188.57143" inkscape:cy="-81.720572" inkscape:document-units="px" inkscape:pageopacity="0.0" inkscape:pageshadow="2" inkscape:window-height="1018" inkscape:window-maximized="1" inkscape:window-width="1920" inkscape:window-x="-8" inkscape:window-y="-8" inkscape:zoom="0.35" pagecolor="#ffffff" showgrid="false">
	</sodipodi:namedview>
<g id="layer1" transform="translate(-64.285715,-402.55427)" inkscape:groupmode="layer" inkscape:label="Capa 1">
	<g id="g24688" transform="matrix(0.44643158,0,0,-0.44643158,-18.740505,895.18058)">
		<g id="g3263" transform="translate(203.1543,1071.3115)">
			<path id="path3265" inkscape:connector-curvature="0" class="st0" d="M0,0c9.6-33.4,9.4-32.5,10-34.3c0.4-1.3,2.3-3,3.5-3
				c2.1,0,3.7,1.4,5,6l19.4,56.1c2.6,7.3,3.8,7.3,10,7.3c8.1,0,7.5-4.2,6.3-7.9L24.8-56.9c-1.5-4.2-4.2-6.6-8.1-6.6h-5.8
				c-3.3,0-6.8,1.4-8.8,7.3l-19,57c-1.1,3.3,1.5,5.6,4.8,5.6h4.2C-4,6.4-1.3,4.2,0,0"/>
		</g>
		<g id="g3267" transform="translate(359.8418,1014.0083)">
			<path id="path3269" inkscape:connector-curvature="0" class="st0" d="M0,0c-3.1-4.8-5.4-6.2-9.2-6.2h-6c-2.9,0-5,2.3-4,4.3
				c0.6,1.2,0.6,1.1,1.5,2.4L0,25.6c1.7,2.3,2.7,4.8,2.7,6.7c0,2.1-1.2,4.4-1.9,5.4l-13.2,18.9c-2.5,3.5-2.1,7,1.9,7h6.9
				c3.3,0,6-1.8,7.9-4.9l4.5-7.8c1.7-2.7,3.8-4.4,6.1-4.4c1.9,0,2.9,1,5.2,3.7l11.7,15.1c2.2,3,4.8,5.8,9.4,5.8h5
				c4.8,0,4.6-3.7,3.1-5.8L29.4,39.9c-2.2-3-3.1-5.3-3.1-7.3c0-1.7,0.4-3.8,3.1-7.5L43.8,4.8c4.9-6.9,4.4-6.6,4.4-7.9
				c0-1.9-1.5-3.1-4.4-3.1h-6.3c-3.1,0-6.2,1.7-8.1,5l-9.2,14.7c-2.2,3.4-3.8,4.4-5.6,4.4c-2.5,0-4.4-1.7-6-4.4L0,0z"/>
		</g>
		<g id="g3271" transform="translate(296.3711,995.5366)">
			<path id="path3273" inkscape:connector-curvature="0" class="st0" d="M0,0c-30.1,0-46.5,22.7-46.5,47.8
				c0,33.6,24.1,48.9,45.9,48.9c30.6,0,47-23.2,47-48.4C46.5,20.2,27.9,0,0,0 M-1.1,14.9c17.8,0,28.9,13.1,28.9,33.7
				C27.8,67.5,17,81.9,0,81.9c-15.9,0-27.8-11.4-27.8-33.1C-27.8,28.8-16.7,14.9-1.1,14.9"/>
		</g>
	</g>
</g>
</svg>
