<?xml version="1.0" encoding="UTF-8" standalone="no"?>
<!-- Created with Inkscape (http://www.inkscape.org/) -->

<svg
   xmlns:dc="http://purl.org/dc/elements/1.1/"
   xmlns:cc="http://creativecommons.org/ns#"
   xmlns:rdf="http://www.w3.org/1999/02/22-rdf-syntax-ns#"
   xmlns:svg="http://www.w3.org/2000/svg"
   xmlns="http://www.w3.org/2000/svg"
   xmlns:sodipodi="http://sodipodi.sourceforge.net/DTD/sodipodi-0.dtd"
   xmlns:inkscape="http://www.inkscape.org/namespaces/inkscape"
   width="86.374313mm"
   height="86.374321mm"
   viewBox="0 0 306.05072 306.05074"
   id="svg2"
   version="1.1"
   inkscape:version="0.91 r13725"
   sodipodi:docname="20 minutos.svg">
  <title
     id="title4192">20 minutos logo</title>
  <defs
     id="defs4" />
  <sodipodi:namedview
     id="base"
     pagecolor="#ffffff"
     bordercolor="#666666"
     borderopacity="1.0"
     inkscape:pageopacity="0.0"
     inkscape:pageshadow="2"
     inkscape:zoom="0.98994949"
     inkscape:cx="134.7129"
     inkscape:cy="132.55228"
     inkscape:document-units="px"
     inkscape:current-layer="layer1"
     showgrid="false"
     fit-margin-top="0"
     fit-margin-left="0"
     fit-margin-right="0"
     fit-margin-bottom="0"
     inkscape:window-width="1366"
     inkscape:window-height="705"
     inkscape:window-x="-8"
     inkscape:window-y="-8"
     inkscape:window-maximized="1" />
  <metadata
     id="metadata7">
    <rdf:RDF>
      <cc:Work
         rdf:about="">
        <dc:format>image/svg+xml</dc:format>
        <dc:type
           rdf:resource="http://purl.org/dc/dcmitype/StillImage" />
        <dc:title>20 minutos logo</dc:title>
        <cc:license
           rdf:resource="http://creativecommons.org/licenses/by-sa/3.0/" />
        <dc:date>14/11/2016</dc:date>
        <dc:creator>
          <cc:Agent>
            <dc:title>CMetalCore</dc:title>
          </cc:Agent>
        </dc:creator>
      </cc:Work>
      <cc:License
         rdf:about="http://creativecommons.org/licenses/by-sa/3.0/">
        <cc:permits
           rdf:resource="http://creativecommons.org/ns#Reproduction" />
        <cc:permits
           rdf:resource="http://creativecommons.org/ns#Distribution" />
        <cc:requires
           rdf:resource="http://creativecommons.org/ns#Notice" />
        <cc:requires
           rdf:resource="http://creativecommons.org/ns#Attribution" />
        <cc:permits
           rdf:resource="http://creativecommons.org/ns#DerivativeWorks" />
        <cc:requires
           rdf:resource="http://creativecommons.org/ns#ShareAlike" />
      </cc:License>
    </rdf:RDF>
  </metadata>
  <g
     inkscape:label="Capa 1"
     inkscape:groupmode="layer"
     id="layer1"
     transform="translate(-62.300242,-28.308413)">
    <g
       id="g4177"
       transform="matrix(0.61210144,0,0,0.61210144,-1.8030912,6.0342653)">
      <path
         id="path4175"
         d="m 104.72665,286.38963 0,-249.999996 250.00001,0 250,0 0,249.999996 0,250.00003 -250,0 -250.00001,0 0,-250.00003 z"
         style="fill:#014495;fill-opacity:1"
         inkscape:connector-curvature="0" />
      <path
         id="path4173"
         d="m 384.04896,472.13956 4.4277,-3.3772 0,3.1887 c 0,2.9946 0.38166,3.1886 6.27437,3.1886 l 6.27438,0 -0.33688,-27.1875 -0.33687,-27.1875 -5.9375,-0.381 -5.9375,-0.381 -0.008,16.006 c -0.01,23.6728 -2.36638,29.131 -12.5769,29.131 -8.23752,0 -9.19972,-2.4079 -9.9156,-24.8138 l -0.625,-19.5612 -6.5625,-0.3779 -6.5625,-0.3778 0,17.5038 c 0,21.4565 1.51603,29.4547 6.45816,34.0713 4.21895,3.9411 6.95841,4.717 15.05164,4.2629 4.11225,-0.2308 7.21847,-1.3475 10.3125,-3.7074 z"
         style="fill:#ffffff"
         inkscape:connector-curvature="0" />
      <path
         id="path4171"
         d="m 436.91416,475.60176 c 2.30445,-0.6176 2.8125,-1.6306 2.8125,-5.6079 0,-4.7874 -0.0654,-4.8542 -4.75,-4.8542 -2.6125,0 -5.425,-0.675 -6.25,-1.5 -1.01042,-1.0104 -1.5,-6.7223 -1.5,-17.5 l 0,-16 6.25,0 6.25,0 0,-5 0,-5 -6.25,0 -6.25,0 0,-8.125 0,-8.125 -6.25,0 -6.25,0 0,8.125 0,8.125 -3.75,0 c -3.54167,0 -3.75,0.2777 -3.75,5 0,4.7222 0.20833,5 3.75,5 l 3.75,0 0,18.5814 c 0,17.0888 0.21468,18.8544 2.67265,21.9791 1.46995,1.8688 3.86057,3.8777 5.3125,4.4644 3.14261,1.2697 10.27628,1.4894 14.20235,0.4372 z"
         style="fill:#ffffff"
         inkscape:connector-curvature="0" />
      <path
         id="path4169"
         d="m 479.43724,474.45496 c 10.89137,-4.5507 14.48903,-11.0089 14.58977,-26.1903 0.0925,-13.9493 -2.35767,-19.5146 -10.93778,-24.8438 -4.8386,-3.0053 -7.12906,-3.5937 -13.98757,-3.5937 -6.86292,0 -9.14278,0.5865 -13.96863,3.5937 -8.60695,5.3634 -10.40637,9.7207 -10.40637,25.1988 0,14.3996 1.3095,18.3619 7.53283,22.7934 7.26924,5.1761 18.94278,6.4827 27.17775,3.0419 z"
         style="fill:#ffffff"
         inkscape:connector-curvature="0" />
      <path
         id="path4167"
         d="m 464.72666,465.56416 c -1.03125,-0.4085 -3.14063,-1.8942 -4.6875,-3.3015 -2.5233,-2.2957 -2.8125,-3.7289 -2.8125,-13.9378 0,-13.17 1.4913,-16.3982 8.15271,-17.6479 5.62461,-1.0552 9.91195,0.082 13.06269,3.4635 2.1627,2.3214 2.5346,4.3964 2.5346,14.142 0,10.3813 -0.26827,11.6734 -2.94575,14.1888 -3.00453,2.8226 -9.9251,4.4314 -13.30425,3.0929 z"
         style="fill:#014495;fill-opacity:1"
         inkscape:connector-curvature="0" />
      <path
         id="path4165"
         d="m 535.07116,474.88876 c 14.45338,-4.3304 19.26521,-20.7663 8.35415,-28.5357 -1.90915,-1.3594 -7.88174,-3.3772 -13.27242,-4.4839 -11.73405,-2.4091 -14.17623,-3.5606 -14.17623,-6.6842 0,-6.2195 10.89018,-8.5762 17.99283,-3.8938 3.585,2.3634 3.65573,2.3605 7.79574,-0.3207 2.29784,-1.4882 4.00145,-3.2683 3.7858,-3.9558 -0.83855,-2.6733 -8.6469,-6.6848 -14.60749,-7.5046 -14.32235,-1.9698 -25.87705,4.89 -27.14213,16.1138 -0.5869,5.207 -0.27837,6.0591 3.57898,9.8846 3.52525,3.4961 5.94937,4.5299 14.70197,6.2703 11.65898,2.3182 13.8943,3.576 13.8943,7.818 0,7.0767 -13.4587,9.2986 -21.84634,3.6066 l -4.69519,-3.1862 -4.22,2.8737 c -4.74489,3.2312 -4.78934,4.2261 -0.33737,7.5499 7.44432,5.558 20.21105,7.4388 30.1934,4.448 z"
         style="fill:#ffffff"
         inkscape:connector-curvature="0" />
      <path
         id="path4163"
         d="m 187.22665,456.29346 0,-18.8461 3.65385,-3.6539 c 4.66203,-4.662 10.22725,-4.8864 14.52797,-0.5856 2.99442,2.9944 3.06818,3.5353 3.06818,22.5 l 0,19.4318 6.25,0 6.25,0 0,-17.5621 c 0,-13.2194 0.46684,-18.4649 1.88794,-21.213 3.53212,-6.8303 11.14533,-8.3053 16.29388,-3.1567 2.99442,2.9944 3.06818,3.5353 3.06818,22.5 l 0,19.4318 6.25,0 6.25,0 0,-21.3121 c 0,-23.0027 -0.68825,-26.0981 -6.88682,-30.9739 -6.76259,-5.3195 -19.82988,-4.4951 -25.56816,1.613 l -2.91715,3.1052 -4.04275,-3.5496 c -2.22352,-1.9522 -6.06895,-3.9297 -8.54542,-4.3943 -5.63456,-1.057 -13.43157,0.9654 -16.40993,4.2564 -3.03014,3.3483 -4.37977,3.1573 -4.37977,-0.6197 0,-2.8704 -0.45833,-3.125 -5.625,-3.125 l -5.625,0 0,27.5 0,27.5 6.25,0 6.25,0 0,-18.8462 z"
         style="fill:#ffffff"
         inkscape:connector-curvature="0" />
      <path
         id="path4161"
         d="m 280.97666,447.63966 0,-27.5 -6.25,0 -6.25,0 0,27.5 0,27.5 6.25,0 6.25,0 0,-27.5 z"
         style="fill:#ffffff"
         inkscape:connector-curvature="0" />
      <path
         id="path4159"
         d="m 305.97666,457.57756 c 0,-22.1562 2.2504,-27.4379 11.69058,-27.4379 9.23638,0 10.80942,3.9019 10.80942,26.8129 l 0,18.1871 6.25,0 6.25,0 0,-20.6652 c 0,-22.5804 -0.94184,-26.9445 -6.8115,-31.5616 -6.79318,-5.3435 -18.96955,-4.4788 -25.95525,1.8432 -2.09105,1.8924 -2.23325,1.8097 -2.23325,-1.2977 0,-3.1491 -0.31938,-3.3187 -6.25,-3.3187 l -6.25,0 0,27.5 0,27.5 6.25,0 6.25,0 0,-17.5621 z"
         style="fill:#ffffff"
         inkscape:connector-curvature="0" />
      <path
         id="path4157"
         d="m 280.97666,404.51466 0,-6.875 -6.25,0 -6.25,0 0,6.875 0,6.875 6.25,0 6.25,0 0,-6.875 z"
         style="fill:#ffffff"
         inkscape:connector-curvature="0" />
      <path
         id="path4155"
         d="m 483.36254,380.18896 c 26.47349,-6.81012 47.57459,-22.61596 57.63858,-43.17433 7.85384,-16.04355 7.90316,-16.54041 8.43865,-85 0.52987,-67.74265 -0.33825,-84.09611 -5.1711,-97.41045 -6.9385,-19.11534 -19.61055,-33.32375 -37.9243,-42.52222 -3.49568,-1.75578 -6.68316,-3.19233 -7.08329,-3.19233 -0.40012,0 -0.88094,45.71545 -1.06846,101.5899 l -0.34096,101.58989 -4.10844,8.34431 c -8.20303,16.66049 -22.74981,24.45321 -43.25865,23.17371 -6.47826,-0.40416 -12.5037,-1.62933 -16.52866,-3.36082 -7.855,-3.37914 -16.94139,-12.4561 -20.73349,-20.71199 -2.86513,-6.23774 -2.87151,-6.38242 -3.25369,-73.75 -0.33484,-59.02381 -0.12915,-68.45164 1.63794,-75.07839 6.04596,-22.67282 31.13507,-35.54256 56.24499,-28.85149 8.76587,2.33585 13.5633,5.05674 19.1293,10.84928 l 4.81615,5.01219 -0.0977,-25.9658 -0.0977,-25.96579 -6.25,-1.57809 c -13.84643,-3.49615 -29.94677,-4.575826 -43.95449,-2.94755 -40.28698,4.68301 -67.52463,23.98405 -78.77795,55.8233 l -3.51756,9.95234 -0.36883,71.99734 c -0.41606,81.21822 -0.26592,83.01381 8.40359,100.50266 11.56354,23.32688 35.57617,38.54593 68.07531,43.14563 12.63178,1.7878 36.3203,0.572 48.15081,-2.4713 z"
         style="fill:#ffffff"
         inkscape:connector-curvature="0" />
      <path
         id="path4153"
         d="m 213.37745,359.20213 c 19.49835,-19.39194 68.27144,-72.87626 88.51501,-97.06514 12.61686,-15.07577 20.3127,-26.59498 26.71232,-39.98329 21.35096,-44.66718 10.33005,-92.07184 -25.80946,-111.01514 -16.08141,-8.42942 -25.64466,-10.39187 -49.94367,-10.2488 -24.1543,0.14221 -34.27969,2.14792 -49.96243,9.89691 -23.60065,11.6613 -36.04562,31.31011 -37.79032,59.66546 l -0.7499,12.1875 23.31383,0 23.31382,0 0,-6.64813 c 0,-15.19756 7.64076,-27.81307 20.2654,-33.45984 5.52502,-2.47123 8.67975,-2.95903 19.22528,-2.97273 11.57088,-0.015 13.22279,0.29411 19.94631,3.73264 8.14279,4.16438 14.68454,11.60841 16.756,19.06714 1.88792,6.79777 1.55899,25.93027 -0.6035,35.10365 -2.26062,9.58966 -8.98368,23.38462 -15.84075,32.50341 -4.47033,5.94481 -71.33572,84.98747 -91.87347,108.60512 l -7.87527,9.05627 0,15.63123 0,15.63127 11.30263,0 11.30263,0 19.79554,-19.68753 z"
         style="fill:#ffffff"
         inkscape:connector-curvature="0" />
      <path
         id="path4149"
         d="m 340.97666,358.88963 0,-20 -49.07715,0 -49.07716,0 -19.9707,20 -19.97069,20.00003 69.04785,0 69.04785,0 0,-20.00003 z"
         style="fill:#ffffff"
         inkscape:connector-curvature="0" />
    </g>
  </g>
</svg>
