<?xml version="1.0" encoding="UTF-8" standalone="no"?>
<svg
   xmlns:dc="http://purl.org/dc/elements/1.1/"
   xmlns:cc="http://creativecommons.org/ns#"
   xmlns:rdf="http://www.w3.org/1999/02/22-rdf-syntax-ns#"
   xmlns:svg="http://www.w3.org/2000/svg"
   xmlns="http://www.w3.org/2000/svg"
   xmlns:sodipodi="http://sodipodi.sourceforge.net/DTD/sodipodi-0.dtd"
   xmlns:inkscape="http://www.inkscape.org/namespaces/inkscape"
   width="200"
   height="66.161781"
   viewBox="0 0 160 52.929425"
   version="1.1"
   id="svg2"
   inkscape:version="0.47 r22583"
   sodipodi:docname="NewPicture1087.svg">
  <metadata
     id="metadata408">
    <rdf:RDF>
      <cc:Work
         rdf:about="">
        <dc:format>image/svg+xml</dc:format>
        <dc:type
           rdf:resource="http://purl.org/dc/dcmitype/StillImage" />
      </cc:Work>
    </rdf:RDF>
  </metadata>
  <defs
     id="defs406">
    <inkscape:perspective
       sodipodi:type="inkscape:persp3d"
       inkscape:vp_x="0 : 275.625 : 1"
       inkscape:vp_y="0 : 1000 : 0"
       inkscape:vp_z="1660 : 275.625 : 1"
       inkscape:persp3d-origin="830 : 183.75 : 1"
       id="perspective410" />
  </defs>
  <sodipodi:namedview
     pagecolor="#ffffff"
     bordercolor="#666666"
     borderopacity="1"
     objecttolerance="10"
     gridtolerance="10"
     guidetolerance="10"
     inkscape:pageopacity="0"
     inkscape:pageshadow="2"
     inkscape:window-width="1680"
     inkscape:window-height="988"
     id="namedview404"
     showgrid="false"
     inkscape:zoom="0.68377838"
     inkscape:cx="-135.02416"
     inkscape:cy="-33.00486"
     inkscape:window-x="-8"
     inkscape:window-y="-8"
     inkscape:window-maximized="1"
     inkscape:current-layer="svg2" />
  <g
     id="#ffffffff"
     transform="translate(-1670.2667,330.9448)" />
  <g
     id="#231f20ff"
     transform="matrix(0.12785782,0,0,0.12785782,-2.6633021,-2.1720239)">
    <path
       d="m 1030.7,30.65 c 51.3,-19.94 110.61,-17.98 160.46,5.4 17.6,8.07 33.78,18.96 48.58,31.41 -0.45,-5.24 -1,-10.47 -1.17,-15.73 8.86,-0.65 17.72,-1.27 26.59,-1.85 2.64,30.33 4.46,60.73 7.06,91.07 -9,0.31 -17.94,1.28 -26.92,1.69 -0.54,-5.18 -0.59,-10.39 -1.2,-15.56 -0.62,-7.17 -0.13,-14.84 -3.98,-21.25 -7.22,-12.63 -18.49,-22.34 -30.13,-30.77 -19.41,-13.67 -41.71,-23.51 -65.16,-27.54 -29.17,-4.72 -59.67,0.87 -85.69,14.74 -28.15,14.85 -51.02,38.73 -66.38,66.46 -32.45,58.2 -32.29,133.12 0.38,191.2 12.57,22.41 29.99,42.23 51.23,56.78 18,12.43 38.82,20.85 60.49,23.97 23.21,3.32 47.26,0.79 69.16,-7.63 32.24,-12.17 59.34,-36.11 77.56,-65.14 6.87,5.53 13.7,11.11 20.56,16.66 -23.66,33.36 -57.55,59.33 -95.91,73.55 -45.68,17.11 -97.46,17.13 -143.16,0.07 -53.69,-19.64 -98.08,-62.83 -119.41,-115.84 -15.53,-37.79 -19.21,-80.2 -11.1,-120.19 7.42,-36.52 24.99,-70.89 50.22,-98.32 21.38,-23.44 48.3,-41.79 77.92,-53.18 z"
       id="path15"
       style="fill:#231f20" />
    <path
       d="m 169,17.83 c 35.38,0.07 70.76,-0.12 106.13,0.1 1.34,2.25 2.08,4.79 3.06,7.21 48.53,125.1 97.14,250.16 145.64,375.27 10.77,-0.02 21.55,0 32.33,-0.01 0.01,6.2 0,12.4 0.01,18.6 -36.58,-0.04 -73.16,0.08 -109.74,-0.06 -19.21,-50.5 -38.58,-100.93 -57.96,-151.36 -50.91,0.04 -101.81,0.01 -152.72,0.01 C 115.27,318.07 94.77,368.54 74.25,419.01 56.45,418.99 38.64,419 20.83,419 c 0,-6.2 0,-12.4 0.01,-18.6 10.82,0.01 21.63,-0.01 32.45,0.01 C 102.58,279 151.97,157.63 201.21,36.2 190.47,36.13 179.74,36.19 169,36.17 c 0,-6.11 0,-12.23 0,-18.34 m -21.91,221.96 c 43.33,0.09 86.66,0.03 129.99,0.03 -20.95,-54.96 -41.97,-109.9 -62.96,-164.85 -22.48,54.88 -44.64,109.9 -67.03,164.82 z"
       id="path17"
       style="fill:#231f20" />
    <path
       d="m 491.83,17.83 c 75.05,0.01 150.09,0 225.14,0.01 19.89,0.84 39.56,7.6 55.57,19.47 24.16,17.49 39.77,46.05 41.9,75.75 1.48,16.52 -0.58,33.92 -8.86,48.54 -7.59,13.64 -19.26,24.4 -31.55,33.75 30.53,16.86 56.08,44.64 65.81,78.59 10.09,33.81 2.42,71.94 -19.05,99.79 -16.57,21.96 -41.29,37.63 -68.32,42.9 -10.02,2.02 -20.29,2.51 -30.48,2.37 -76.72,0 -153.44,0 -230.16,0 0,-6.2 0.02,-12.39 -0.01,-18.59 10.52,-0.03 21.05,0.01 31.58,-0.01 0.01,-121.41 0.01,-242.82 -0.01,-364.23 -10.52,0 -21.04,-0.01 -31.56,0 0,-6.11 0,-12.23 0,-18.34 m 110.33,18.78 c 0.03,53.75 -0.03,107.5 0.04,161.25 13.97,4.29 28.39,7.15 42.95,8.51 18.8,1.51 38.36,0.2 55.76,-7.61 11.72,-5.16 21.48,-14.44 27.14,-25.93 8.19,-16.62 9.78,-35.56 9.78,-53.83 C 737.61,98.65 732.26,77.71 719.33,61.64 708.47,48.18 692.62,37.77 675.04,36.63 650.75,36.56 626.46,36.61 602.16,36.61 m 69.88,190.56 c -23.57,0.46 -47.04,-3.26 -69.85,-9 -0.05,60.83 -0.02,121.65 -0.01,182.48 29.6,-0.01 59.2,-0.02 88.8,0 8.19,0.1 16.43,-1.04 24.2,-3.66 21.12,-7.13 37.72,-25.57 43.25,-47.09 6.94,-26.09 7.38,-53.63 3.82,-80.27 -2.63,-20.78 -12.82,-40.49 -28.57,-54.35 -19.63,7.56 -40.6,11.63 -61.64,11.89 z"
       id="path19"
       style="fill:#231f20" />
  </g>
</svg>
