<?xml version="1.0" encoding="utf-8"?>
<!-- Generator: Adobe Illustrator 23.0.3, SVG Export Plug-In . SVG Version: 6.00 Build 0)  -->
<svg version="1.1" id="Capa_1" xmlns="http://www.w3.org/2000/svg" xmlns:xlink="http://www.w3.org/1999/xlink" x="0px" y="0px"
	 viewBox="0 0 89.66 13.61" style="enable-background:new 0 0 89.66 13.61;" xml:space="preserve">
<style type="text/css">
	.st0{fill:#143E53;}
</style>
<g>
	<g>
		<polygon class="st0" points="2.56,11.62 2.56,10.9 3.58,10.9 3.58,3.47 2.56,3.47 2.56,2.75 9.75,2.75 9.75,4.85 9.02,4.85 
			9.02,3.57 5.65,3.57 5.65,6.41 7.75,6.41 7.75,5.29 8.48,5.29 8.48,8.37 7.75,8.37 7.75,7.24 5.65,7.24 5.65,10.84 9.12,10.84 
			9.12,9.55 9.85,9.55 9.85,11.65 2.56,11.65 		"/>
		<polygon class="st0" points="12.88,10.9 13.69,10.9 13.69,11.62 10.17,11.62 10.17,10.9 10.99,10.9 10.99,3.08 10.17,3.08 
			10.17,2.36 12.88,2.36 		"/>
		<path class="st0" d="M24.72,9.08c-0.21,0.91-0.59,1.6-1.14,2.03c-0.55,0.44-1.29,0.67-2.2,0.67c-1.35,0-2.42-0.41-3.21-1.24
			c-0.78-0.83-1.17-1.95-1.17-3.37c0-1.42,0.39-2.54,1.17-3.37c0.78-0.83,1.86-1.24,3.21-1.24c0.47,0,0.96,0.07,1.48,0.2
			c0.52,0.13,1.06,0.33,1.63,0.57v2.18h-0.67c-0.15-0.75-0.39-1.3-0.76-1.68c-0.37-0.37-0.85-0.55-1.45-0.55
			c-0.78,0-1.37,0.33-1.74,0.96C19.5,4.88,19.3,5.86,19.3,7.18c0,1.32,0.2,2.29,0.57,2.93c0.37,0.63,0.96,0.94,1.74,0.94
			c0.54,0,0.98-0.16,1.3-0.49c0.34-0.33,0.59-0.83,0.73-1.5h1.07V9.08z"/>
		<path class="st0" d="M28.33,11.8c-1.01,0-1.79-0.29-2.36-0.89c-0.57-0.59-0.85-1.42-0.85-2.44c0-1.04,0.28-1.85,0.85-2.44
			c0.57-0.59,1.35-0.88,2.36-0.88c1.01,0,1.79,0.29,2.36,0.88c0.57,0.59,0.85,1.4,0.85,2.44c0,1.04-0.29,1.86-0.86,2.44
			C30.11,11.51,29.33,11.8,28.33,11.8z M28.33,11.13c0.39,0,0.68-0.2,0.85-0.57c0.16-0.37,0.24-1.07,0.24-2.1
			c0-1.01-0.08-1.71-0.24-2.08c-0.16-0.37-0.44-0.57-0.85-0.57c-0.41,0-0.68,0.2-0.85,0.57c-0.16,0.38-0.24,1.07-0.24,2.08
			s0.08,1.71,0.24,2.08C27.63,10.94,27.93,11.13,28.33,11.13z"/>
		<path class="st0" d="M31.46,11.62V10.9h0.81V6.02h-0.81V5.31h2.7V6.2c0.23-0.37,0.49-0.65,0.78-0.81
			c0.29-0.16,0.67-0.24,1.11-0.24c0.63,0,1.12,0.21,1.45,0.63c0.33,0.42,0.49,1.04,0.49,1.86v3.3h0.81v0.72h-3.4v-0.72h0.68v-3.4
			c0-0.54-0.06-0.91-0.18-1.12C35.77,6.2,35.56,6.1,35.27,6.1c-0.37,0-0.67,0.16-0.85,0.47c-0.18,0.31-0.26,0.81-0.26,1.48v2.83
			h0.68v0.72h-3.38V11.62z"/>
		<path class="st0" d="M44.04,3.96h-0.6c-0.03-0.31-0.11-0.54-0.24-0.68c-0.13-0.15-0.33-0.23-0.57-0.23
			c-0.29,0-0.49,0.11-0.62,0.34c-0.13,0.23-0.2,0.6-0.2,1.11v0.81h1.43v0.72h-1.43v4.88h1.09v0.72h-3.81V10.9h0.81V6.02h-0.85V5.31
			h0.85v-0.8c0-0.7,0.2-1.24,0.6-1.59c0.41-0.36,0.99-0.54,1.77-0.54c0.31,0,0.6,0.02,0.9,0.05c0.29,0.03,0.57,0.1,0.85,0.16v1.37
			H44.04z"/>
		<path class="st0" d="M46.35,10.9h0.81v0.72h-3.51V10.9h0.81V6.02h-0.81V5.31h2.7V10.9z M44.27,3.52c0-0.33,0.1-0.59,0.29-0.81
			c0.2-0.23,0.44-0.33,0.73-0.33c0.28,0,0.52,0.11,0.72,0.33c0.2,0.21,0.29,0.49,0.29,0.81c0,0.31-0.1,0.59-0.29,0.8
			c-0.2,0.21-0.44,0.33-0.72,0.33c-0.29,0-0.54-0.11-0.73-0.33C44.36,4.1,44.27,3.83,44.27,3.52z"/>
		<path class="st0" d="M53.43,10.9h0.81v0.72h-2.7v-0.8c-0.16,0.33-0.37,0.57-0.65,0.73c-0.28,0.16-0.62,0.24-1.01,0.24
			c-0.8,0-1.43-0.29-1.9-0.89c-0.46-0.6-0.7-1.42-0.7-2.44c0-1.04,0.23-1.85,0.7-2.44c0.46-0.59,1.09-0.88,1.9-0.88
			c0.41,0,0.73,0.08,1.01,0.24c0.28,0.16,0.49,0.41,0.65,0.73V3.08h-0.81V2.36h2.72v8.54H53.43z M51.52,8.77V8.15
			c0-0.73-0.08-1.27-0.26-1.59c-0.16-0.33-0.44-0.49-0.81-0.49c-0.39,0-0.67,0.18-0.83,0.52c-0.16,0.34-0.24,0.98-0.24,1.89
			c0,0.91,0.08,1.53,0.24,1.89c0.16,0.34,0.44,0.52,0.83,0.52c0.38,0,0.65-0.16,0.81-0.49C51.44,10.04,51.52,9.51,51.52,8.77z"/>
		<path class="st0" d="M60.34,8.76h-3.91v0.05c0,0.81,0.11,1.4,0.33,1.77c0.23,0.36,0.59,0.54,1.07,0.54c0.41,0,0.73-0.11,0.99-0.36
			c0.26-0.24,0.42-0.59,0.49-1.06h0.89c-0.16,0.72-0.46,1.25-0.91,1.58c-0.46,0.34-1.09,0.5-1.9,0.5c-0.99,0-1.74-0.29-2.26-0.86
			c-0.52-0.57-0.78-1.4-0.78-2.47c0-1.04,0.26-1.87,0.81-2.46c0.54-0.59,1.29-0.88,2.25-0.88c0.94,0,1.66,0.31,2.16,0.93
			C60.05,6.67,60.31,7.57,60.34,8.76z M58.26,8.06c0-0.83-0.06-1.42-0.21-1.76c-0.15-0.34-0.38-0.5-0.72-0.5
			c-0.32,0-0.55,0.16-0.7,0.49c-0.15,0.33-0.21,0.88-0.21,1.66v0.11H58.26z"/>
		<path class="st0" d="M60.41,11.62V10.9h0.81V6.02h-0.81V5.31h2.7V6.2c0.23-0.37,0.49-0.65,0.78-0.81
			c0.29-0.16,0.67-0.24,1.11-0.24c0.63,0,1.12,0.21,1.45,0.63c0.33,0.42,0.49,1.04,0.49,1.86v3.3h0.81v0.72h-3.4v-0.72h0.68v-3.4
			c0-0.54-0.06-0.91-0.18-1.12C64.72,6.2,64.51,6.1,64.22,6.1c-0.37,0-0.67,0.16-0.85,0.47c-0.18,0.31-0.26,0.81-0.26,1.48v2.83
			h0.68v0.72h-3.38V11.62z"/>
		<path class="st0" d="M73.57,9.65c-0.15,0.72-0.42,1.25-0.83,1.61c-0.42,0.36-0.99,0.54-1.71,0.54c-1.01,0-1.8-0.29-2.36-0.88
			c-0.55-0.59-0.83-1.4-0.83-2.46c0-1.04,0.28-1.87,0.83-2.46c0.55-0.59,1.32-0.88,2.28-0.88c0.39,0,0.8,0.05,1.2,0.13
			c0.41,0.08,0.81,0.21,1.24,0.37v1.76h-0.6c-0.05-0.54-0.2-0.93-0.42-1.19c-0.23-0.26-0.54-0.39-0.95-0.39
			c-0.52,0-0.91,0.2-1.12,0.6c-0.23,0.39-0.34,1.09-0.34,2.07c0,0.96,0.11,1.64,0.32,2.05c0.21,0.41,0.57,0.62,1.06,0.62
			c0.37,0,0.68-0.13,0.91-0.37c0.23-0.26,0.38-0.62,0.42-1.09h0.89V9.65z"/>
		<path class="st0" d="M76.53,10.9h0.81v0.72h-3.51V10.9h0.81V6.02h-0.81V5.31h2.7V10.9z M74.45,3.52c0-0.33,0.1-0.59,0.29-0.81
			c0.2-0.23,0.44-0.33,0.73-0.33c0.28,0,0.52,0.11,0.72,0.33c0.2,0.21,0.29,0.49,0.29,0.81c0,0.31-0.1,0.59-0.29,0.8
			c-0.2,0.21-0.44,0.33-0.72,0.33c-0.29,0-0.54-0.11-0.73-0.33C74.56,4.1,74.45,3.83,74.45,3.52z"/>
		<path class="st0" d="M83.04,7.75v3.16h0.81v0.72h-2.7v-0.8c-0.24,0.33-0.52,0.59-0.83,0.73c-0.31,0.16-0.65,0.24-1.04,0.24
			c-0.59,0-1.03-0.18-1.34-0.52c-0.31-0.34-0.47-0.85-0.47-1.5c0-0.72,0.23-1.24,0.67-1.59c0.44-0.36,1.12-0.54,2.02-0.54h0.99V7.28
			c0-0.5-0.12-0.9-0.33-1.14c-0.21-0.24-0.55-0.36-1.01-0.36c-0.38,0-0.67,0.08-0.88,0.26c-0.21,0.18-0.34,0.46-0.44,0.85h-0.6V5.52
			c0.34-0.13,0.7-0.24,1.06-0.31c0.36-0.07,0.75-0.1,1.15-0.1c1.03,0,1.76,0.21,2.23,0.63C82.81,6.19,83.04,6.84,83.04,7.75z
			 M81.16,9.64V8.37h-0.72c-0.36,0-0.62,0.11-0.81,0.33c-0.2,0.21-0.29,0.52-0.29,0.93c0,0.41,0.07,0.7,0.21,0.9
			c0.15,0.2,0.34,0.29,0.63,0.29s0.54-0.11,0.7-0.33C81.06,10.27,81.16,9.99,81.16,9.64z"/>
		<polygon class="st0" points="86.78,10.9 87.6,10.9 87.6,11.62 84.08,11.62 84.08,10.9 84.9,10.9 84.9,3.08 84.08,3.08 84.08,2.36 
			86.78,2.36 		"/>
	</g>
</g>
</svg>
