<?xml version="1.0" encoding="utf-8"?>
<!-- Generator: Adobe Illustrator 23.0.3, SVG Export Plug-In . SVG Version: 6.00 Build 0)  -->
<svg version="1.1" id="Capa_1" xmlns="http://www.w3.org/2000/svg" xmlns:xlink="http://www.w3.org/1999/xlink" x="0px" y="0px"
	 viewBox="0 0 909.9 181.1" style="enable-background:new 0 0 909.9 181.1;" xml:space="preserve">
<style type="text/css">
	.st0{fill:#005597;}
</style>
<title>Logo_nuevo_08_05_2017</title>
<g id="claim">
	<path d="M227.7,107.6c0.5,3.3,1,7.2,4,11.4c4.2,6,9.5,7.3,14.7,7.3c11,0,14.5-6.5,16-9.4l24.9,1.8c-1.5,5-4.1,9.5-7.5,13.4
		c-3,3.3-12.7,14-34.1,14c-30.4,0-43.9-22.4-43.9-45.6c0-25.4,16.4-45.8,44.3-45.8c23.9,0,35.6,15.4,39.9,31.2
		c2.3,8.4,2.3,16.2,2.3,21.5h-60.6V107.6z M262.5,89c-0.3-3.1-1.4-6.1-3.2-8.7c-3.2-4.2-8.2-6.5-13.5-6.3c-13.9,0-16.7,10.7-17.9,15
		H262.5z"/>
	<path d="M294.4,25.7h24.9l-1,91.2c0,7.5,2.3,8.2,11,8.2v19.4c-4,0.3-7.7,0.5-11.7,0.5c-4.3,0-12.7-0.2-18.2-5.2
		c-5.3-4.8-5.8-11.4-5.8-17.7L294.4,25.7z"/>
	<path d="M412.8,25.9v117.9H389v-8.4c-1.2,2.2-3,4-5.2,5.3c-6,4.3-12.9,5.2-17.5,5.2c-20.7,0-37.2-16.7-37.2-45.3
		c0-27.7,16-45.6,38.2-45.6c10.7,0,16.9,4.8,20.7,7.8V25.9H412.8z M357.9,117.4c4,7.2,9.9,8,13.9,8c16.5,0,17-18.4,17-24.9
		c0-12.2-3.3-25.2-17-25.2c-4,0-9.9,1.7-13.9,8.4c-2.7,4.5-3.7,10.7-3.7,16.7C354.2,103.9,354.6,111.9,357.9,117.4z"/>
	<path d="M445.1,25.9v22.2h-24.4V25.9H445.1z M445.1,57.3v86.5h-24.4V57.3H445.1z"/>
	<path d="M509,134.3c-3,4-8.7,11.4-22.7,11.4c-20.5,0-35.9-16.7-35.9-43.8c0-34.1,21.4-46.8,37.7-46.8c9.5,0,17,4.8,21.4,13.2V57.1
		H533v86.7h-24V134.3z M502.6,79.3c-2.6-2.7-6.2-4.3-9.9-4.3c-4.8,0.2-9.3,2.5-12.2,6.3c-4.2,5.5-5.2,12.4-5.2,19
		c0,5.3,0.7,10.5,2.7,14.9c3.3,7.5,8.9,10.2,13.7,10.2c4.1-0.1,7.9-1.8,10.7-4.8c5.2-5.7,6.3-13.2,6.3-21
		C508.8,88.4,505.8,82.5,502.6,79.3z"/>
	<path d="M564.2,57.3v14.2c3.5-8.5,8.7-15.9,22.4-15.9c0.8,0,2.5,0.2,4.2,0.3v22.4c-1.9-0.4-3.9-0.5-5.8-0.5
		c-7.3,0-12.4,2.2-15.5,6.3c-3.7,4.8-4,9.2-4,31.4v28.3h-25.2V57.3H564.2z"/>
	<path d="M621.1,25.9v22.2h-24.4V25.9H621.1L621.1,25.9z M621.1,57.3v86.5h-24.4V57.3H621.1L621.1,57.3z"/>
	<path d="M716.4,100.2c0,28.7-20.5,46.1-46.3,46.1c-28.6,0-43.3-21.2-43.3-45.6c0-25.7,16.2-45.9,46.1-45.9
		C702,54.8,716.4,77,716.4,100.2z M686.8,82.2c-3.2-5-8.8-7.9-14.7-7.7c-3.3,0-6.6,0.7-9.5,2.2c-9.7,5.3-10.5,17.7-10.5,23.7
		c0,3.3,0.3,6.5,1,9.7c3,13.9,12.9,16.2,18.5,16.2c6,0.1,11.7-2.9,15-8c4.2-6.2,4.5-14,4.5-18.7C691.1,94.5,690.8,88,686.8,82.2
		L686.8,82.2z"/>
	<path d="M743.2,118.9v24.9h-24.9v-24.9H743.2z"/>
	<path d="M770.7,107.6c0.5,3.3,1,7.2,4,11.4c4.2,6,9.5,7.3,14.7,7.3c11,0,14.5-6.5,16-9.4l24.9,1.8c-1.5,5-4.1,9.5-7.5,13.4
		c-3,3.3-12.7,14-34.1,14c-30.4,0-43.9-22.4-43.9-45.6c0-25.4,16.4-45.8,44.3-45.8c23.9,0,35.6,15.4,39.9,31.2
		c2.3,8.4,2.3,16.2,2.3,21.5h-60.6V107.6z M805.5,89c-0.3-3.1-1.4-6.1-3.2-8.7c-3.2-4.2-8.2-6.5-13.5-6.3c-13.9,0-16.7,10.7-17.9,15
		H805.5L805.5,89z"/>
	<path d="M855.1,113.6c1,6.2,2.3,14.4,18.5,14.4c3.3,0,12.2-0.5,12.2-8c0-5.2-4.3-6.7-9.7-8c-2.3-0.7-13.7-3.3-16.2-4
		c-9.9-2.5-25.6-6.3-25.6-25.7c0-4.8,0.8-13.7,10.4-20.5c6.2-4.3,15-6.8,26.1-6.8c8.5,0,17.7,1.5,25.1,6.5
		c8.2,5.3,11.9,12.9,12.5,22.9l-23,1.2c-0.5-2.8-0.8-5.2-2.2-7.2c-0.3-0.5-3.7-5.3-13.2-5.3c-8.4,0-11.9,2.5-11.9,7
		c0,3.5,2.3,5.3,9.2,7c2,0.5,11.9,2.8,14.2,3.3c11.2,2.7,29.4,7,29.4,27.1c0,20.7-17.7,29.1-37.9,29.1c-5.6,0.1-11.1-0.6-16.5-2
		c-5.7-1.3-15.2-4.8-20.9-14.7c-3.7-6.2-3.8-11.5-3.8-15.4L855.1,113.6z"/>
</g>
<g id="simbolo">
	<g id="Icono">
		<path class="st0" d="M177.2,61.4C165.5,27,134.5,2.9,98.3,0l-3.7,45.2c25.1,1.9,43.8,23.8,41.9,48.9
			c-1.9,25.1-23.8,43.8-48.9,41.9c-25.1-1.9-43.8-23.8-41.9-48.9c1.4-18.1,13.5-33.7,30.7-39.6h0.2v-0.1l12.7-27.1l-27-15.7V4.5
			h-0.1l-0.1-0.1L62,4.5h-0.1C14.3,20.5-11.3,72,4.8,119.4c16.2,47.5,67.8,72.9,115.3,56.9C167.7,160.3,193.3,108.8,177.2,61.4z"/>
	</g>
</g>
</svg>
