<?xml version="1.0" encoding="utf-8"?>
<!-- Generator: Adobe Illustrator 22.1.0, SVG Export Plug-In . SVG Version: 6.00 Build 0)  -->
<svg version="1.1"
	 id="svg2" inkscape:version="0.91 r13725" sodipodi:docname="Espejo P√∫blico logo 2017.svg" xmlns:cc="http://creativecommons.org/ns#" xmlns:dc="http://purl.org/dc/elements/1.1/" xmlns:inkscape="http://www.inkscape.org/namespaces/inkscape" xmlns:rdf="http://www.w3.org/1999/02/22-rdf-syntax-ns#" xmlns:sodipodi="http://sodipodi.sourceforge.net/DTD/sodipodi-0.dtd" xmlns:svg="http://www.w3.org/2000/svg"
	 xmlns="http://www.w3.org/2000/svg" xmlns:xlink="http://www.w3.org/1999/xlink" x="0px" y="0px" viewBox="0 0 7248.4 3816.9"
	 style="enable-background:new 0 0 7248.4 3816.9;" xml:space="preserve">
<style type="text/css">
	.st0{fill:#0F1841;}
	.st1{fill:#6FB0DA;}
	.st2{fill:#2036C7;}
</style>
<g>
	<g>
		<path class="st0" d="M174.8,3373.8v79.7h199v132.2h-199v79.2h264.4v141.3H0V3233h439.3v140.8H174.8z"/>
		<path class="st0" d="M497.8,3703.7l75.8-93.4H587c15.9,16.3,37.5,30.6,65,42.6c27.6,12.5,53.8,18.5,78.8,18.5
			c18.1,0,32.7-3,43.9-9.5s16.8-15.1,16.8-25.8c0-3-0.4-5.6-0.9-8.2c-0.9-2.1-2.2-4.7-4.3-6.9c-2.2-2.1-3.9-3.9-5.6-5.6
			c-2.2-1.7-4.7-3.4-8.6-5.6c-3.9-1.7-7.3-3-9.9-4.3c-3-1.3-6.9-2.6-12.5-4.7c-5.6-1.7-9.9-3-13.4-4.3c-3.4-1.3-8.6-3-15.1-5.2
			c-6.9-2.2-12.1-3.4-15.9-4.7c-14.6-4.7-27.1-8.6-37.9-12.5c-10.8-3.9-23.3-8.6-37.5-15.1s-25.8-12.9-35.7-19.4s-20.2-14.2-31-24.1
			c-10.8-9.5-18.9-19.4-25.4-30.2s-12.1-23.2-15.9-37.9c-4.3-14.2-6.5-29.7-6.5-46.1c0-29.7,6-56,18.5-79.2
			c12.5-23.3,29.3-42.2,50.8-56.4c21.1-14.2,45.6-25.4,72.8-32.7c27.1-7.3,56.8-10.8,88.3-10.8c44.4,0,85.3,7.3,122.3,21.5
			c36.6,14.2,67.2,35.3,90.9,63.3v17.6l-75.8,88.3H869c-37.5-35.7-77.1-53.8-119.7-53.8c-16.4,0-29.3,2.6-38.8,8.2
			c-9.5,5.6-14.2,13.3-14.2,24.1c0,5.6,1.3,10.3,4.3,15.1s6,9.1,9.9,12.1s9.5,6.4,17.2,9.9c7.3,3.9,13.8,6.5,18.9,8.2
			c4.7,2.1,12.1,4.7,22,7.8c0.4,0.4,1.3,0.4,1.7,0.4c14.2,4.7,28,9.5,40.9,14.2c12.5,4.7,25.8,9.9,39.6,15.9
			c13.4,6,25.8,12.5,37.5,19.4c11.2,6.9,22,15.1,32.3,24.6s18.9,19.8,26.3,30.6c6.9,11.2,12.5,24.1,16.8,38.8
			c3.9,14.6,6,30.6,6,47.8c0,30.1-6,56.8-18.5,80.5s-29.3,42.6-50.8,56.8c-22,14.2-46.5,25-74.5,32.3c-28,7.8-58.6,11.2-91.7,11.2
			c-102.9,0-181.7-32.3-236.4-97.3L497.8,3703.7L497.8,3703.7z"/>
		<path class="st0" d="M1496.5,3285.5c40.1,34.9,60.3,82.3,60.3,142.1c0,60.3-19.8,107.6-59.9,142.5s-97.3,52.5-171.8,52.5h-96.9
			v183.5h-174.8V3233h271.7C1399.2,3233,1456.5,3250.6,1496.5,3285.5z M1361.7,3475.4c11.6-9.9,17.2-24.1,17.2-42.2
			c0-18.5-5.6-33.2-17.2-43.9c-11.6-10.3-25.8-15.5-43.1-15.5h-90.4v116.7h90.4C1335.9,3490.5,1350.1,3485.3,1361.7,3475.4z"/>
		<path class="st0" d="M1801.4,3373.8v79.7h199v132.2h-199v79.2h264.4v141.3h-439.3V3233h439.3v140.8H1801.4z"/>
		<path class="st0" d="M2534,3233v310.5c0,95.6-18.5,165-55.6,208.4c-37.5,43.5-96.9,65-179.2,65c-34,0-70.6-7.8-109.4-24.1
			c-38.8-15.9-68-37.5-88.3-65v-13.4l93.5-96h13.4c22,28.8,47.8,43.1,77.5,43.1c23.7,0,42.2-6.9,54.7-21.1
			c12.5-14.2,18.5-34.5,18.5-61.6v-205h-165.8V3233H2534z"/>
		<path class="st0" d="M2800.1,3794.1c-39.6-15.1-73.6-35.7-101.6-62c-28.4-26.3-50.8-57.7-67.2-94.7c-16.4-36.6-24.5-76.2-24.5-118
			c0-56,13.8-106.8,41.8-152s66.3-81,115.4-106.8c48.7-25.4,103.4-38.3,163.2-38.3c45.2,0,87.4,7.3,127,22.4
			c39.6,15.1,73.6,35.7,101.6,62s50.4,58.1,66.8,94.7c16.4,36.6,24.5,76.2,24.5,118s-8.2,81-24.5,117.6
			c-16.4,37.1-38.8,68.9-66.8,94.7c-28,26.3-62,47.4-101.6,62.5s-81.8,22.8-127,22.8S2839.8,3809.2,2800.1,3794.1z M3028,3619.7
			c27.1-26.3,40.9-59.9,40.9-100.3c0-40.5-13.8-74.1-40.9-100.3c-27.6-26.3-61.2-39.6-100.8-39.6s-73.2,13.3-100.8,39.6
			s-41.3,59.9-41.3,100.3c0,40.5,13.8,74.1,41.3,100.3c27.6,26.7,61.2,40.1,100.8,40.1C2966.8,3659.7,3000.4,3646.4,3028,3619.7z"/>
		<path class="st0" d="M3951.7,3285.5c40.1,34.9,60.3,82.3,60.3,142.1c0,60.3-19.8,107.6-59.9,142.5
			c-40.1,34.9-97.3,52.5-171.8,52.5h-96.9v183.5h-174.8V3233h271.7C3854.4,3233,3911.7,3250.6,3951.7,3285.5z M3816.9,3475.4
			c11.6-9.9,17.2-24.1,17.2-42.2c0-18.5-5.6-33.2-17.2-43.9c-11.6-10.3-25.8-15.5-43.1-15.5h-90.4v116.7h90.4
			C3791.1,3490.5,3805.3,3485.3,3816.9,3475.4z"/>
		<path class="st0" d="M4247.6,3233v322.6c0,33.2,8.6,59.4,26.3,77.9c17.2,18.5,40.5,28,69.7,28s52.6-9.5,70.2-28
			s26.3-44.8,26.3-77.9V3233h171.8v312.2c0,85.3-24.1,152-71.9,199.8s-113.3,71.9-196.4,71.9s-149-24.1-197.7-71.9
			c-48.7-47.8-72.8-114.6-72.8-199.8V3233H4247.6z M4265.1,3159l-21.6-56l175.9-99.5l43.4,93.9L4265.1,3159z"/>
		<path class="st0" d="M5164.9,3537c15.9,12.1,29.3,28,40.9,47.4s17.2,40.5,17.2,62.9c0,47.8-17.2,86.1-51.7,115
			c-34.5,29.3-87.4,43.9-158.5,43.9h-298V3233h289.4c34.9,0,65,3.9,90.4,11.6c25.4,8.2,45.7,18.9,59.9,33.2
			c14.2,14.2,25,30.6,31.9,48.2c6.4,17.6,9.9,37.5,9.9,59.4c0,28-7.7,52.1-23.2,72.8c-15.9,20.7-36.2,37-61.2,49.1
			C5131.3,3515.5,5148.9,3525.4,5164.9,3537z M5004.2,3376.4c-10.3-7.3-23.7-11.2-40.5-11.2h-74.1v90h74.1
			c16.8,0,30.2-3.9,40.5-11.6c9.9-7.3,15.1-18.5,15.1-33.6S5014.1,3383.7,5004.2,3376.4z M5032.2,3660.2
			c11.6-9.1,17.6-21.6,17.6-36.6s-6-27.6-17.6-36.6s-27.1-13.8-46.5-13.8h-96V3674h96C5005.1,3674,5020.6,3669.2,5032.2,3660.2z"/>
		<path class="st0" d="M5696.3,3806.2h-393.2V3233H5478v431.9h218.3V3806.2z"/>
		<path class="st0" d="M5936.2,3233v573.2h-174.9V3233H5936.2z"/>
		<path class="st0" d="M6234.6,3619.7c27.1,26.7,60.3,40.1,99.9,40.1c24.1,0,46.9-5.2,68.5-15.5c21.5-9.9,40.1-23.3,55.6-40.1h12.5
			l105.9,90v12.5c-28,34-62.9,60.7-104.6,80.5c-41.8,19.8-88.3,29.7-139.5,29.7c-43.9,0-85.3-7.8-124.5-22.8
			c-39.2-15.1-73.2-35.7-101.2-62s-50.4-57.7-66.8-94.7c-16.4-36.6-24.5-76.2-24.5-118c0-56,13.8-106.8,41.8-152s66.3-81,115-106.8
			c48.7-25.4,102.9-38.3,162.8-38.3c48.7,0,93.9,9.9,136.1,29.3c41.8,19.8,77.1,47,105.5,81v12.5l-105.9,90h-12.5
			c-15.5-16.8-34-30.1-55.6-40.5c-21.5-9.9-44.3-15.1-68.5-15.1c-39.6,0-72.8,13.3-99.9,39.6c-27.1,26.7-40.5,60.3-40.5,100.3
			C6194.1,3559.4,6207.5,3593,6234.6,3619.7z"/>
		<path class="st0" d="M6801.4,3794.1c-39.6-15.1-73.7-35.7-101.6-62c-28.4-26.3-50.8-57.7-67.2-94.7c-16.4-36.6-24.5-76.2-24.5-118
			c0-56,13.8-106.8,41.8-152s66.3-81,115.4-106.8c48.7-25.4,103.4-38.3,163.2-38.3c45.2,0,87.4,7.3,127,22.4
			c39.6,15.1,73.6,35.7,101.6,62s50.4,58.1,66.7,94.7c16.4,36.6,24.6,76.2,24.6,118s-8.2,81-24.6,117.6
			c-16.3,37.1-38.7,68.9-66.7,94.7c-28,26.3-62,47.4-101.6,62.5s-81.8,22.8-127,22.8C6883.2,3816.9,6841,3809.2,6801.4,3794.1z
			 M7029.2,3619.7c27.1-26.3,40.9-59.9,40.9-100.3c0-40.5-13.8-74.1-40.9-100.3c-27.6-26.3-61.1-39.6-100.8-39.6
			s-73.2,13.3-100.8,39.6c-27.6,26.3-41.3,59.9-41.3,100.3c0,40.5,13.8,74.1,41.3,100.3c27.6,26.7,61.2,40.1,100.8,40.1
			S7001.6,3646.4,7029.2,3619.7z"/>
	</g>
	<g>
		<g>
			<path class="st0" d="M831.1,720.6v378.7h945.7v628.4H831.1v376.7H2088v671.4H0V51.2h2088v669.4L831.1,720.6L831.1,720.6z"/>
			<polygon class="st1" points="0,1369.9 0,2104.4 831.1,2104.4 831.1,1727.7 1776.8,1727.7 1776.8,1369.9 			"/>
			<polygon class="st2" points="0,2104.4 0,2775.8 2088,2775.8 2088,2104.4 831.1,2104.4 			"/>
		</g>
		<g>
			<path class="st0" d="M2320.3,2288.6l360.3-444.2h63.5c75.7,77.8,178.1,145.3,309.1,202.7c131,59.4,255.9,88,374.6,88
				c86,0,155.6-14.3,208.8-45s79.8-71.6,79.8-122.8c0-14.3-2-26.6-4.1-38.9c-4.1-10.2-10.2-22.5-20.5-32.8
				c-10.2-10.2-18.4-18.4-26.6-26.6c-10.2-8.2-22.5-16.4-40.9-26.6c-18.4-8.2-34.8-14.3-47.1-20.5c-14.3-6.1-32.8-12.3-59.4-22.5
				c-26.6-8.2-47.1-14.3-63.5-20.5c-16.4-6.1-40.9-14.3-71.6-24.6c-32.8-10.2-57.3-16.4-75.7-22.5c-69.6-22.5-129-40.9-180.1-59.4
				c-51.2-18.4-110.5-40.9-178.1-71.6s-122.8-61.4-169.9-92.1c-47.1-30.7-96.2-67.6-147.4-114.6c-51.2-45-90.1-92.1-120.8-143.3
				c-30.7-51.2-57.3-110.5-75.7-180.1c-20.5-67.6-30.7-141.2-30.7-219c0-141.2,28.7-266.1,88-376.7
				c59.4-110.5,139.2-200.6,241.6-268.2c100.3-67.6,217-120.8,346-155.6S3350,0,3499.4,0c210.8,0,405.3,34.8,581.4,102.4
				c174,67.6,319.3,167.9,431.9,300.9v83.9l-360.3,419.6h-67.6c-178-169.9-366.4-255.8-569-255.8c-77.8,0-139.2,12.3-184.2,38.9
				c-45,26.6-67.6,63.5-67.6,114.6c0,26.6,6.1,49.1,20.5,71.6c14.3,22.5,28.7,43,47.1,57.3c18.4,14.3,45,30.7,81.9,47.1
				c34.8,18.4,65.5,30.7,90.1,38.9c22.5,10.2,57.3,22.5,104.4,36.8c2,2,6.1,2,8.2,2c67.6,22.5,133.1,45,194.5,67.6
				c59.4,22.5,122.8,47.1,188.3,75.7c63.5,28.7,122.8,59.4,178.1,92.1c53.2,32.8,104.4,71.6,153.5,116.7s90.1,94.2,124.9,145.3
				c32.8,53.2,59.4,114.6,79.8,184.2c18.4,69.6,28.7,145.3,28.7,227.2c0,143.3-28.7,270.2-88,382.8s-139.2,202.7-241.6,270.2
				c-104.4,67.6-221.1,118.7-354.1,153.5c-133.1,36.8-278.4,53.2-436,53.2c-489.2,0-863.9-153.5-1123.8-462.6v-75.5H2320.3z"/>
			<path class="st1" d="M2510.7,1250.8c30.7,51.2,69.6,98.3,120.8,143.3c51.2,47.1,100.3,83.9,147.4,114.6
				c47.1,30.7,102.4,61.4,169.9,92.1c58.9,26.8,111.6,47.3,158.1,64.4l303-686.2c-32.3-14.6-56.5-29.2-74.1-42.2h-927.4
				c4.8,46.7,13.6,91.5,26.4,133.9C2453.3,1140.2,2480,1199.6,2510.7,1250.8z"/>
			<path class="st2" d="M3335.8,936.7C3335.8,936.7,3335.9,936.7,3335.8,936.7c-1.5-1.1-2.9-2.2-4.3-3.3
				c-18.4-14.3-32.8-34.8-47.1-57.3s-20.5-45-20.5-71.6c0-6.5,0.4-12.7,1.1-18.7l-585-539.9c-77.1,61.9-139.3,138.6-187.9,229
				c-59.4,110.5-88,235.4-88,376.7c0,29,1.4,57.4,4.3,85.2h927.4V936.7z"/>
		</g>
		<g>
			<path class="st0" d="M6961.8,300.9c190.4,165.8,286.6,391,286.6,675.5c0,286.6-94.2,511.8-284.5,677.6s-462.6,249.7-816.8,249.7
				h-460.6v872h-831.1V51.2h1291.7C6499.2,51.2,6771.4,135.1,6961.8,300.9z M6321.1,1203.7c55.3-47.1,81.9-114.6,81.9-200.6
				c0-88-26.6-157.6-81.9-208.8c-55.3-49.1-122.8-73.7-204.7-73.7h-429.9v554.8h429.9C6198.3,1275.3,6265.8,1250.8,6321.1,1203.7z"
				/>
			<path class="st1" d="M5686.5,720.6h429.9c81.9,0,149.4,24.6,204.7,73.7c47.4,43.9,73.7,101.3,80.2,172.2h847
				c-2.2-279.8-98.4-501.7-286.5-665.6c-190.4-165.8-462.6-249.7-814.7-249.7h-460.6V720.6z"/>
			<path class="st2" d="M7248.3,966.5h-847c1.1,11.8,1.7,24,1.7,36.6c0,75.7-20.6,137.1-63.2,182.8l535.5,535.5
				c31.3-20.7,60.8-43.2,88.6-67.4c190.4-165.8,284.5-391,284.5-677.6C7248.4,973.1,7248.4,969.8,7248.3,966.5z"/>
		</g>
	</g>
</g>
</svg>
