<?xml version="1.0" encoding="utf-8"?>
<!-- Generator: Adobe Illustrator 23.0.3, SVG Export Plug-In . SVG Version: 6.00 Build 0)  -->
<svg version="1.1" id="Layer_1" xmlns="http://www.w3.org/2000/svg" xmlns:xlink="http://www.w3.org/1999/xlink" x="0px" y="0px"
	 viewBox="0 0 579.9 149.3" style="enable-background:new 0 0 579.9 149.3;" xml:space="preserve">
<style type="text/css">
	.st0{fill:#FFFFFF;}
</style>
<path class="st0" d="M549.6,61.7c0.2,3.7,2.8,7.2,8.5,7.2c4.2,0,6.3-2.3,6.3-4.6c0-1.9-1.3-3.5-5.3-4.4l-6.2-1.4
	c-11.5-2.5-16.1-8.9-16.1-16.4c0-9.8,8.7-17.7,20.7-17.7c15.6,0,21.1,9.7,21.6,15.9l-13.7,2.5c-0.4-3.5-2.7-6.6-7.7-6.6
	c-3.1,0-5.9,1.8-5.9,4.6c0,2.3,1.8,3.5,4.2,4l7.2,1.4c11.2,2.3,16.6,8.9,16.6,16.8c0,9.1-7.1,18.1-21.5,18.1
	c-16.9,0-22.4-10.9-22.8-16.8L549.6,61.7z M512.4,52.5c0-9-5.9-13.2-12.2-13.2c-6.2,0-12.2,4.2-12.2,13.2c0,8.9,6,13.3,12.2,13.3
	C506.6,65.9,512.4,61.6,512.4,52.5 M528.9,52.5c0,16.5-12.5,28.4-28.6,28.4c-16.1,0-28.7-11.8-28.7-28.4c0-16.5,12.6-28.3,28.7-28.3
	C516.5,24.3,528.9,36,528.9,52.5 M429.6,79.3h-16.5V25.9h16V32c2.9-5.1,9.5-7.5,15.1-7.5c13.6,0,19.6,9.6,19.6,21.3v33.5h-16.5V48.6
	c0-5.3-2.8-9.2-8.8-9.2c-5.4,0-8.9,4-8.9,9.3L429.6,79.3z M389.1,58.4V56l-10.2,1.6c-3.5,0.5-6.1,2.2-6.1,5.9c0,2.8,1.8,5.5,6.4,5.5
	C384.1,69,389.1,66.6,389.1,58.4 M372.5,48.5l12.7-1.9c2.9-0.4,3.9-1.8,3.9-3.7c0-3.1-2.7-5.8-7.9-5.8c-5.8,0-8.9,3.9-9.2,7.8
	L357.6,42c0.7-7.6,7.8-17.7,23.7-17.7c17.5,0,23.9,9.7,23.9,20.6V71c0,4.2,0.5,7.7,0.7,8.3h-14.9c-0.1-0.4-0.5-2.4-0.5-6
	c-2.8,4.5-8,7.5-15.2,7.5c-11.8,0-18.7-7.7-18.7-16.2C356.5,55.1,363.6,49.8,372.5,48.5 M320.5,65.9c6.4,0,12.2-4.5,12.2-13.3
	c0-8.9-5.8-13.2-12.2-13.2c-6.4,0-12.2,4.3-12.2,13.2C308.4,61.4,314.1,65.9,320.5,65.9 M348.8,69.7c0,4.8,0.3,8.4,0.4,9.6h-15.8
	c-0.1-0.6-0.4-3-0.4-5.2c-2.5,3.7-7.9,6.3-14.4,6.3c-15.2,0-26.7-11.6-26.7-28c0-15.9,10.9-27.8,26.2-27.8c9.2,0,13.2,3.4,14.5,5.5
	V1.5h16.3V69.7z M268,58.4V56l-10.2,1.6c-3.5,0.5-6.1,2.2-6.1,5.9c0,2.8,1.8,5.5,6.4,5.5C263,69,268,66.6,268,58.4 M251.4,48.5
	l12.7-1.9c2.9-0.4,3.9-1.8,3.9-3.7c0-3.1-2.7-5.8-7.9-5.8c-5.8,0-8.9,3.9-9.2,7.8L236.5,42c0.7-7.6,7.8-17.7,23.7-17.7
	c17.5,0,23.9,9.7,23.9,20.6V71c0,4.2,0.5,7.7,0.7,8.3h-14.9c-0.1-0.4-0.5-2.4-0.5-6c-2.8,4.5-8,7.5-15.2,7.5
	c-11.8,0-18.7-7.7-18.7-16.2C235.4,55.1,242.5,49.8,251.4,48.5 M199,65.9c6.4,0,12.2-4.5,12.2-13.3c0-8.9-5.8-13.2-12.2-13.2
	c-6.4,0-12.2,4.3-12.2,13.2C186.9,61.4,192.6,65.9,199,65.9 M227.2,69.7c0,4.8,0.3,8.4,0.4,9.6h-15.8c-0.1-0.6-0.4-3-0.4-5.2
	c-2.5,3.7-7.9,6.3-14.4,6.3c-15.2,0-26.7-11.6-26.7-28c0-15.9,10.9-27.8,26.2-27.8c9.2,0,13.2,3.4,14.5,5.5V1.5h16.3V69.7z
	 M146.5,73.9c-2.8,4.6-9,6.6-14.4,6.6c-13.1,0-20.5-9.5-20.5-20.8V25.9H128v30.3c0,5.2,2.8,9.2,8.7,9.2c5.5,0,9-3.8,9-9.1V25.9h16.5
	v43.8c0,4.8,0.4,8.7,0.5,9.6h-15.8C146.7,78.3,146.5,75.3,146.5,73.9 M85.3,25.9h16.5v53.4H85.3V25.9z M93.4,0
	c5.4,0,9.8,4.3,9.8,9.6c0,5.3-4.3,9.6-9.8,9.6c-5.2,0-9.5-4.3-9.5-9.6C83.8,4.3,88.2,0,93.4,0 M0,41.4C0,17.6,18.2,1.5,39.7,1.5
	c23.1,0,33.3,14.7,35.8,25.7l-16.2,5.1c-1.2-5.3-6.1-14.2-19.6-14.2c-10.3,0-21.9,7.3-21.9,23.3c0,14.3,10.6,22.6,22.1,22.6
	c13.3,0,18.7-8.8,20.2-14.3l16.4,4.6C74,64.8,63.8,80.9,39.9,80.9C17.8,80.9,0,65.1,0,41.4 M0.2,95.8l0,53.6
	c0,0,69.8-53.5,69.9-53.6L0.2,95.8z"/>
</svg>
