<?xml version="1.0" encoding="utf-8"?>
<!-- Generator: Adobe Illustrator 23.0.3, SVG Export Plug-In . SVG Version: 6.00 Build 0)  -->
<svg version="1.1"
	 id="svg2" xmlns:cc="http://creativecommons.org/ns#" xmlns:dc="http://purl.org/dc/elements/1.1/" xmlns:inkscape="http://www.inkscape.org/namespaces/inkscape" xmlns:rdf="http://www.w3.org/1999/02/22-rdf-syntax-ns#" xmlns:sodipodi="http://sodipodi.sourceforge.net/DTD/sodipodi-0.dtd" xmlns:svg="http://www.w3.org/2000/svg"
	 xmlns="http://www.w3.org/2000/svg" xmlns:xlink="http://www.w3.org/1999/xlink" x="0px" y="0px" viewBox="0 0 244.84 244.84"
	 style="enable-background:new 0 0 244.84 244.84;" xml:space="preserve">
<style type="text/css">
	.st0{fill:#014495;}
</style>
<title  id="title4192">20 minutos logo</title>
<sodipodi:namedview  bordercolor="#666666" borderopacity="1.0" fit-margin-bottom="0" fit-margin-left="0" fit-margin-right="0" fit-margin-top="0" id="base" inkscape:current-layer="layer1" inkscape:cx="134.7129" inkscape:cy="132.55228" inkscape:document-units="px" inkscape:pageopacity="0.0" inkscape:pageshadow="2" inkscape:window-height="705" inkscape:window-maximized="1" inkscape:window-width="1366" inkscape:window-x="-8" inkscape:window-y="-8" inkscape:zoom="0.98994949" pagecolor="#ffffff" showgrid="false">
	</sodipodi:namedview>
<g>
	<path class="st0" d="M122.42,0H0v122.42v122.42h122.42h122.42V122.42V0H122.42z M89.34,61.68c-1.01-3.65-4.22-7.3-8.21-9.34
		c-3.29-1.68-4.1-1.84-9.77-1.83c-5.16,0.01-6.71,0.25-9.41,1.46c-6.18,2.77-9.92,8.94-9.92,16.38v3.26H40.61H29.2l0.37-5.97
		c0.85-13.89,6.95-23.51,18.51-29.22c7.68-3.79,12.64-4.78,24.47-4.85c11.9-0.07,16.58,0.89,24.46,5.02
		c17.7,9.28,23.09,32.49,12.64,54.36c-3.13,6.56-6.9,12.2-13.08,19.58c-9.91,11.84-33.8,38.04-43.34,47.53h0l-9.69,9.64h-5.53h-5.53
		v-7.65v-7.65l3.86-4.43c10.06-11.57,42.8-50.27,44.99-53.18c3.36-4.47,6.65-11.22,7.76-15.92C90.1,74.38,90.26,65.01,89.34,61.68z
		 M73.45,214.85h-3.06h-3.06v-9.52c0-9.29-0.04-9.55-1.5-11.02c-2.52-2.52-6.25-1.8-7.98,1.55c-0.7,1.35-0.92,3.91-0.92,10.39v8.6
		h-3.06H50.8v-9.52c0-9.29-0.04-9.55-1.5-11.02c-2.11-2.11-4.83-2-7.11,0.29l-1.79,1.79v9.23v9.23h-3.06h-3.06v-13.47v-13.47h2.75
		c2.53,0,2.75,0.12,2.75,1.53c0,1.85,0.66,1.94,2.14,0.3c1.46-1.61,5.28-2.6,8.04-2.08c1.21,0.23,3.1,1.2,4.18,2.15l1.98,1.74
		l1.43-1.52c2.81-2.99,9.21-3.39,12.52-0.79c3.04,2.39,3.37,3.9,3.37,15.17V214.85z M86.31,201.38v13.47h-3.06h-3.06v-13.47v-13.47
		h3.06h3.06V201.38z M86.31,180.26v3.37h-3.06h-3.06v-3.37v-3.37h3.06h3.06V180.26z M115.69,214.85h-3.06h-3.06v-8.91
		c0-11.22-0.77-13.13-5.29-13.13c-4.62,0-5.72,2.59-5.72,13.44v8.6h-3.06h-3.06v-13.47v-13.47h3.06c2.9,0,3.06,0.08,3.06,1.63
		c0,1.52,0.07,1.56,1.09,0.64c3.42-3.1,9.38-3.52,12.71-0.9c2.87,2.26,3.34,4.4,3.34,15.46V214.85z M115.69,157.92v9.79H81.88H48.06
		l9.78-9.79l9.78-9.79h24.03h24.03V157.92z M142.02,214.85c-2.89,0-3.07-0.1-3.07-1.56v-1.56l-2.17,1.65h0
		c-1.52,1.16-3.04,1.7-5.05,1.82c-3.96,0.22-5.3-0.16-7.37-2.09c-2.42-2.26-3.16-6.18-3.16-16.68v-8.57l3.21,0.18l3.21,0.19
		l0.31,9.58c0.35,10.97,0.82,12.15,4.86,12.15c5,0,6.15-2.67,6.16-14.26l0-7.84l2.91,0.19l2.91,0.19l0.16,13.31l0.16,13.31H142.02z
		 M164.04,190.36v2.45h-3.06h-3.06v7.83c0,5.28,0.24,8.07,0.73,8.57c0.4,0.4,1.78,0.73,3.06,0.73c2.29,0,2.33,0.03,2.33,2.38
		c0,1.95-0.25,2.44-1.38,2.75c-1.92,0.52-5.42,0.41-6.95-0.21c-0.71-0.29-1.88-1.27-2.6-2.19c-1.2-1.53-1.31-2.39-1.31-10.76v-9.1
		h-1.84c-1.73,0-1.84-0.14-1.84-2.45c0-2.31,0.1-2.45,1.84-2.45h1.84v-3.98v-3.98h3.06h3.06v3.98v3.98h3.06h3.06V190.36z
		 M183.49,214.51L183.49,214.51c-4.03,1.68-9.75,1.05-13.31-1.49c-3.05-2.17-3.69-4.11-3.69-11.16c0-7.58,0.88-9.71,5.1-12.34
		c2.36-1.47,3.48-1.76,6.84-1.76c3.36,0,4.48,0.29,6.85,1.76c4.2,2.61,5.4,5.33,5.36,12.17
		C190.58,209.12,188.82,212.28,183.49,214.51z M210.73,214.72L210.73,214.72c-4.89,1.46-11.14,0.54-14.79-2.18
		c-2.18-1.63-2.16-2.11,0.17-3.7l2.07-1.41l2.3,1.56c4.11,2.79,10.7,1.7,10.7-1.77c0-2.08-1.09-2.69-6.8-3.83
		c-4.29-0.85-5.47-1.36-7.2-3.07c-1.89-1.87-2.04-2.29-1.75-4.84c0.62-5.5,6.28-8.86,13.29-7.89c2.92,0.4,6.74,2.37,7.15,3.67
		c0.11,0.34-0.73,1.21-1.85,1.94c-2.03,1.31-2.06,1.31-3.82,0.16c-3.48-2.29-8.81-1.14-8.81,1.91c0,1.53,1.2,2.09,6.94,3.27
		c2.64,0.54,5.56,1.53,6.5,2.2C220.17,204.56,217.81,212.6,210.73,214.72z M217.77,105.59c-0.26,33.52-0.29,33.77-4.13,41.62
		c-4.93,10.07-15.26,17.81-28.22,21.14h0c-5.79,1.49-17.39,2.09-23.58,1.21c-15.91-2.25-27.67-9.7-33.34-21.13
		c-4.25-8.56-4.32-9.44-4.12-49.21l0.18-35.26l1.72-4.87c5.51-15.59,18.85-25.04,38.58-27.34c6.86-0.8,14.74-0.27,21.52,1.44
		l3.06,0.77l0.05,12.71l0.05,12.71l-2.36-2.45c-2.73-2.84-5.07-4.17-9.37-5.31c-12.3-3.28-24.58,3.03-27.54,14.13
		c-0.87,3.24-0.97,7.86-0.8,36.76c0.19,32.99,0.19,33.06,1.59,36.11c1.86,4.04,6.31,8.49,10.15,10.14c1.97,0.85,4.92,1.45,8.09,1.65
		c10.04,0.63,17.17-3.19,21.18-11.35l2.01-4.09l0.17-49.75c0.09-27.36,0.33-49.75,0.52-49.75s1.76,0.7,3.47,1.56
		c8.97,4.5,15.17,11.46,18.57,20.82C217.6,64.41,218.03,72.42,217.77,105.59z"/>
	<path class="st0" d="M176.6,193.08c-3.26,0.61-3.99,2.19-3.99,8.64c0,5,0.14,5.7,1.38,6.83c0.76,0.69,1.79,1.42,2.3,1.62
		c1.65,0.66,5.04-0.13,6.51-1.51c1.31-1.23,1.44-1.86,1.44-6.95c0-4.77-0.18-5.79-1.24-6.93
		C181.46,193.12,179.36,192.56,176.6,193.08z"/>
</g>
</svg>
