<?xml version="1.0" encoding="utf-8"?>
<!-- Generator: Adobe Illustrator 23.0.3, SVG Export Plug-In . SVG Version: 6.00 Build 0)  -->
<svg version="1.1" id="Capa_1" xmlns="http://www.w3.org/2000/svg" xmlns:xlink="http://www.w3.org/1999/xlink" x="0px" y="0px"
	 viewBox="0 0 250.4 55" style="enable-background:new 0 0 250.4 55;" xml:space="preserve">
<style type="text/css">
	.st0{fill:#FF7328;}
</style>
<g>
	<g>
		<g>
			<path class="st0" d="M103.1,38.5l-0.3,0.5c-1.1,0.6-2.5,1-4.1,1c-1.7,0-3-0.4-4.1-1.2c-0.9-0.7-1.8-1.8-2.6-3.1h-10l-1.5,3.9H72
				L83.2,14h7.4l7.9,16.7c0.9,2,1.6,2.4,2.2,2.4c0.4,0,0.8-0.2,0.9-0.3l0.5,0.3L103.1,38.5z M83.9,30.6h5.8L86.9,23L83.9,30.6z"/>
			<path class="st0" d="M126.7,28.1v11.5h-7.9V28.6c0-1.5-0.9-2.7-2.6-2.7c-1.7,0-2.6,1.2-2.6,2.7v10.9h-7.9V27.4
				c0-0.8-0.3-1.3-0.9-1.3c-0.2,0-0.4,0.1-0.6,0.2l-0.5-0.3l-0.9-5.1l0.3-0.5c1.2-0.7,2.6-1,3.9-1c1.9,0,3.5,0.7,4.5,2.1
				c1.7-1.3,3.9-2.1,6.5-2.1C123.1,19.4,126.7,22.8,126.7,28.1z"/>
			<path class="st0" d="M146.8,37.8l-0.2,0.5c-1.5,1.1-3.6,1.7-5.7,1.7c-4.2,0-8.4-2.4-8.4-8.1v-6.5h-3.6v-5.5h3.6v-5.5l7.3-0.9
				l0.6,0.4v6h5.8v5.5h-5.8v5.5c0,1.8,0.9,2.6,2,2.6c0.6,0,1.2-0.2,1.8-0.6l0.5,0.3L146.8,37.8z"/>
			<path class="st0" d="M155.6,31.5c0.3,2.2,2.4,3.1,4.7,3.1c1.9,0,3.6-0.6,4.9-1.8h0.6L169,36v0.5c-2.4,2.6-6.1,3.5-9.2,3.5
				c-6.3,0-11.8-3.5-11.8-10.3c0-6.1,4.4-10.3,11.2-10.3c6.6,0,11,4.1,11,10.3c0,0.6,0,1.2-0.2,1.8L155.6,31.5L155.6,31.5
				L155.6,31.5z M155.5,28h7c0-2-1.5-3.4-3.5-3.4S155.6,26,155.5,28z"/>
			<path class="st0" d="M195.4,28.1v11.5h-7.9V28.6c0-1.5-0.9-2.7-2.6-2.7c-1.7,0-2.6,1.2-2.6,2.7v10.9h-7.9V27.4
				c0-0.8-0.3-1.3-0.9-1.3c-0.2,0-0.4,0.1-0.6,0.2l-0.5-0.3l-0.9-5.1l0.3-0.5c1.2-0.7,2.6-1,3.9-1c1.9,0,3.5,0.7,4.5,2.1
				c1.7-1.3,3.9-2.1,6.5-2.1C191.8,19.4,195.4,22.8,195.4,28.1z"/>
			<path class="st0" d="M221.5,38.5l-0.3,0.5c-1.2,0.7-2.5,1-3.8,1c-1.9,0-3.5-0.7-4.6-2c-1.7,1.2-3.9,2-6.5,2
				c-4.6,0-8.4-2.5-8.4-6.5c0-4.2,4.2-6.2,9.2-6.2c1.5,0,2.8,0.2,3.9,0.5v-0.6c0-1.5-1.3-2.6-3.5-2.6c-1.9,0-3.4,0.8-4.2,1.6h-0.6
				l-3.3-3.1v-0.5c2.1-1.8,5.1-3.1,9-3.1c5,0,10.2,2.2,10.2,7.7v5c0,0.8,0.3,1.3,0.9,1.3c0.2,0,0.4-0.1,0.6-0.2l0.5,0.3L221.5,38.5z
				 M211,33.2V32c-0.5-0.2-1.5-0.5-2.5-0.5c-1.9,0-2.8,0.9-2.8,2c0,1.3,1.2,2,2.5,2C210,35.5,211,34.2,211,33.2z"/>
			<path class="st0" d="M250.1,32.2c0,4.9-4.5,7.8-11,7.8c-4,0-8.6-1.6-10.7-4.4V35l3.7-3.7h0.6c1,1.1,3.3,2.8,5.9,2.8
				c2,0,3.4-0.9,3.4-2.4c0-1.9-1.7-2.7-4.3-2.7h-2.8V24h3.4c1.9,0,3.2-1,3.2-2.4c0-1.8-1.6-2.2-3.2-2.2c-1.8,0-3.6,0.7-4.8,1.7h-0.6
				l-3-3.9v-0.5c2.6-2.1,5.8-3.1,9.6-3.1c5.3,0,9.8,2.3,9.8,7.5c0,2.1-1.3,3.9-3.1,5.2C248.6,27.4,250.1,29.4,250.1,32.2z"/>
		</g>
	</g>
</g>
<g>
	<path class="st0" d="M13.8,29.8c4.4-7.4,8.6-14.9,13.5-22c1-1.4,2-2.8,2.8-4.3c0.5-0.9,0.3-1.6-0.3-2.1C29.2,1,28.4,1,27.8,1
		C14.3,2.1,0.8,11.2,0.7,24.2c0,4.8,2.7,10.5,4.9,12.1c1.6,1.1,3.1,1,4.7-1C11.6,33.6,12.7,31.7,13.8,29.8z"/>
	<path class="st0" d="M52.3,35.3c1.6,2,3.1,2.1,4.7,1c2.2-1.5,4.8-7.3,4.9-12.1C61.8,11.2,48.3,2.1,34.7,1c-0.5-0.1-1.4-0.1-2,0.4
		c-0.6,0.5-0.7,1.2-0.3,2.1c0.8,1.5,1.8,2.9,2.8,4.3c4.9,7.1,9.1,14.6,13.5,22C49.9,31.7,50.9,33.6,52.3,35.3z"/>
	<path class="st0" d="M33.8,24.2C32.6,24,31.6,24,31.3,24l0,0c-0.3,0-1.3,0-2.5,0.2c-7.4,1.1-12.6,5.3-15.8,12
		c-1.6,3.4-0.9,5.8,2,8.1c0.2,0.1,0.3,0.3,0.5,0.4c0.5,0.4,1.1,0.7,1.6,1.1c7.7,5,10.5,6.8,11.7,7.4c0.5,0.2,1.3,0.6,2.5,0.7v0
		c0,0,0,0,0.1,0s0,0,0.1,0v0c1.1,0,2-0.4,2.5-0.7c1.1-0.5,4-2.3,11.7-7.4c0.5-0.3,1.1-0.7,1.6-1.1c0.2-0.1,0.3-0.3,0.5-0.4
		c3-2.3,3.7-4.7,2-8.1C46.5,29.5,41.3,25.3,33.8,24.2z"/>
</g>
</svg>
