<?xml version="1.0" encoding="utf-8"?>
<!-- Generator: Adobe Illustrator 23.0.3, SVG Export Plug-In . SVG Version: 6.00 Build 0)  -->
<svg version="1.1" id="Layer_1" xmlns="http://www.w3.org/2000/svg" xmlns:xlink="http://www.w3.org/1999/xlink" x="0px" y="0px"
	 viewBox="0 0 320 100" style="enable-background:new 0 0 320 100;" xml:space="preserve">
<style type="text/css">
	.st0{fill-rule:evenodd;clip-rule:evenodd;}
</style>
<title>Artboard Copy</title>
<desc>Created with Sketch.</desc>
<g id="Artboard-Copy">
	<g id="Group" transform="translate(5.000000, 3.000000)">
		<path id="Combined-Shape" class="st0" d="M92.2,46.5c0,26.6-21.5,48.1-48.1,48.1C17.5,94.6-4,73.1-4,46.5S17.5-1.6,44.1-1.6
			C70.7-1.6,92.2,20,92.2,46.5z M55.9,30.4v3.7c-3.2-3-8.3-4.8-13.8-4.8c-12.4,0-21.5,9.6-21.5,21.2v0.2c0,11.5,9,20.9,21.3,20.9
			c5.5,0,10.7-1.9,13.9-4.9v3.8h9.6V30.4H55.9z M54.3,50.6c0,7-4.7,12.8-12.2,12.8c-7.2,0-12.3-5.9-12.3-13v-0.2
			c0-7.1,4.7-12.9,12.2-12.9c7.3,0,12.4,5.9,12.4,13V50.6z M39.1,13.9c-1.2-1.3-2.3-2.2-3.2-2.7c-1-0.6-2-0.9-3-0.9
			c-1.4,0-2.5,0.5-3.4,1.4c-0.9,0.9-1.4,2.1-1.4,3.4c0,1.1,0.4,2.1,1,2.9c0.6,0.8,1.6,1.5,3.1,2.1c2.3,1,9.3,3.3,9.3,3.3H48
			L39.1,13.9z"/>
		<path id="Fill-6" class="st0" d="M146.3,73.2l-4.1-10h-18.8l-4.1,10h-10l19-44.7h9l19,44.7H146.3z M129.7,25.3l-8.1-7.6l8.3-3.6
			l7.2,11.2H129.7z M132.9,40.2L127,54.6h11.8L132.9,40.2z"/>
		<path id="Fill-7" class="st0" d="M191.5,59.9h-7.4v13.3h-9.8V28.8h18.1c10.6,0,17,6.3,17,15.3v0.1
			C209.4,54.6,201.5,59.9,191.5,59.9z M199.6,44.4c0-4.4-3-6.7-7.9-6.7h-7.5v13.6h7.7c4.9,0,7.7-2.9,7.7-6.7V44.4z"/>
		<path id="Fill-8" class="st0" d="M235.3,73.2v-4.8c-2.2,2.9-5.1,5.5-10,5.5c-7.3,0-11.5-4.8-11.5-12.6v-22h9.6v19
			c0,4.6,2.2,6.9,5.8,6.9c3.7,0,6-2.3,6-6.9v-19h9.6v34H235.3z"/>
		<path id="Fill-9" class="st0" d="M273.5,73.2v-19c0-4.6-2.2-6.9-5.8-6.9c-3.7,0-6,2.3-6,6.9v19H252v-34h9.6V44
			c2.2-2.9,5.1-5.5,10-5.5c7.3,0,11.5,4.8,11.5,12.6v22H273.5z"/>
		<path id="Fill-10" class="st0" d="M301.4,73.9c-5.9,0-9.9-2.3-9.9-10.2V47.5h-4.1v-8.2h4.1v-8.7h9.6v8.7h8v8.2h-8v14.5
			c0,2.2,0.9,3.3,3.1,3.3c1.8,0,3.4-0.4,4.8-1.2v7.7C307,73.1,304.6,73.9,301.4,73.9"/>
	</g>
</g>
</svg>
