<?xml version="1.0" encoding="utf-8"?>
<!-- Generator: Adobe Illustrator 23.0.3, SVG Export Plug-In . SVG Version: 6.00 Build 0)  -->
<svg version="1.1" id="Capa_1" xmlns="http://www.w3.org/2000/svg" xmlns:xlink="http://www.w3.org/1999/xlink" x="0px" y="0px"
	 viewBox="0 0 226.8 50.3" style="enable-background:new 0 0 226.8 50.3;" xml:space="preserve">
<style type="text/css">
	.st0{fill:#212020;}
	.st1{fill:#016CA2;}
</style>
<path class="st0" d="M0.7,50.3v-4.6H4c2.1,0,3.2-0.6,3.2-4.4V16.8c0-2.7-0.7-3.5-3.9-3.5H0.7V8.6h39.7v16.6h-4.5
	c-0.9-8.5-1.6-11.9-9.7-11.9H15.7v13.1h3.2c3.6,0,5.2-1.9,5.2-7v-0.8h4.5v21h-4.5V38c0-5.1-1.6-7-5.2-7h-3.2v14.6h12
	c5.5,0,7.7-3.6,8.2-12.9h4.5v17.6L0.7,50.3L0.7,50.3z"/>
<path class="st0" d="M43.6,50.3v-4.6h3.8c1.7,0,2.8-0.6,2.8-2.8V16c0-1.9-0.8-2.7-3.2-2.7h-3.5V8.6h22v4.6h-3.4
	c-2.6,0-3.5,0.6-3.5,2.8v29.6h9.8c6.2,0,7.7-3.6,8.2-13.3h4.4v17.9L43.6,50.3L43.6,50.3z"/>
<path class="st0" d="M93.1,50.3v-4.6H97c1.4,0,2.6-0.5,2.6-2.1V15.4c0-1.6-1.2-2.1-2.6-2.1h-3.8V8.6h23.6c9,0,14.2,4.3,14.2,11.4
	c0,7.7-5.4,11.4-13.5,11.4H108v12.1c0,1.6,1.5,2.1,2.9,2.1h3.8v4.6L93.1,50.3L93.1,50.3z M108,26.8h5.5c5.7,0,8.7-1.8,8.7-6.6
	c0-4.8-2.4-6.9-8.7-6.9H108V26.8z"/>
<path class="st0" d="M124.2,50.3h18.8v-4.6h-4.7c-1.1,0-1.9-0.3-1.9-1.1c0-0.6,0.1-1,0.2-1.3l2-6.3h13.7l2,6.3
	c0.1,0.4,0.2,0.9,0.2,1.5c0,0.6-0.5,0.9-1.9,0.9h-4.8v4.6h40.7v-4.6H185c-2,0-2.9-1.1-2.9-3.1V16.3c0-2.4,1.9-3,3.8-3h2.6V8.6h-21.3
	v4.6h3.4c2.4,0,3.1,1.2,3.1,2.8v27.3c0,1.6-1,2.3-3.4,2.3h-1.5c-3.2,0-5.2-0.4-6.3-3.4l-12-33.6H142l-11.5,33.6
	c-1,3-3.1,3.4-6.3,3.4L124.2,50.3L124.2,50.3z M150.5,32.3h-10.2l4.8-15.1h0.1L150.5,32.3z"/>
<path class="st0" d="M220.4,8.6h3.5v15.8h-4.3c-1.4-6.9-5.2-11.8-12.4-11.8c-5.6,0-7.9,1.5-7.9,5.7c0,9.4,26.8,2.4,26.8,19.9
	c0,10-7.5,13.2-15.9,13.2c-4.5,0-9-2-12.5-5l-1.3,3.7h-4.1v-17h4.5c0.8,8.4,5.8,12.9,14.3,12.9c5.3,0,7.8-2.6,7.8-5.6
	C218.9,29.9,192,38,192,20c0-8.9,7.6-12.6,14.9-12.6c4.6,0,8.4,2.2,11.4,4.4L220.4,8.6z"/>
<polygon class="st1" points="188.7,0 188.7,5.2 166.7,5.2 "/>
</svg>
