<svg id="3fde56d1-ab17-403b-bcdf-e528731c4853" data-name="arial bold" xmlns="http://www.w3.org/2000/svg" viewBox="0 0 339.86475 39.88037"><defs><style>.\34 5f5c456-c0a8-4c0a-8d07-1b8b086bdf7b{fill:#c00;}</style></defs><title>logo-europapress</title><path d="M147.42236,422.2373l7.49414,1.25879a12.28967,12.28967,0,0,1-4.56348,6.27539,13.40522,13.40522,0,0,1-7.80176,2.15527q-7.41431,0-10.97363-4.84473a16.27438,16.27438,0,0,1-2.81055-9.7959q0-7.06641,3.69336-11.06738a12.165,12.165,0,0,1,9.34131-4.00146,12.61918,12.61918,0,0,1,10.01025,4.18848q3.6665,4.18945,3.50635,12.834H136.47559a7.60471,7.60471,0,0,0,1.81982,5.20557,5.68854,5.68854,0,0,0,4.33594,1.86035,4.61011,4.61011,0,0,0,2.97119-.96289A5.9556,5.9556,0,0,0,147.42236,422.2373Zm0.42822-7.60107a7.23918,7.23918,0,0,0-1.686-4.96484,5.42721,5.42721,0,0,0-7.97607.09375,6.93681,6.93681,0,0,0-1.5791,4.87109h11.24121Z" transform="translate(-128.76709 -402.21729)"/><path d="M180.15674,431.28418v-4.25586a10.95526,10.95526,0,0,1-4.082,3.58691,11.44446,11.44446,0,0,1-5.33936,1.31152,10.44768,10.44768,0,0,1-5.13916-1.25781,7.42692,7.42692,0,0,1-3.292-3.5332,15.76249,15.76249,0,0,1-1.01709-6.29V402.85938h7.521V415.9209a36.1819,36.1819,0,0,0,.415,7.34668,3.99956,3.99956,0,0,0,1.51221,2.1416,4.64709,4.64709,0,0,0,2.78369.79,5.91627,5.91627,0,0,0,3.45264-1.05762,5.37274,5.37274,0,0,0,2.0874-2.623q0.5625-1.56592.562-7.668V402.85938h7.521v28.4248h-6.98535Z" transform="translate(-128.76709 -402.21729)"/><path d="M202.13037,431.28418h-7.521v-28.4248h6.98584v4.0415a12.15584,12.15584,0,0,1,3.2251-3.77393,5.93871,5.93871,0,0,1,3.252-.90967,9.54617,9.54617,0,0,1,4.95166,1.41846l-2.32861,6.55762a6.60128,6.60128,0,0,0-3.5332-1.23145,4.17563,4.17563,0,0,0-2.67627.87012,5.94313,5.94313,0,0,0-1.72656,3.14453q-0.62915,2.27563-.62891,9.5293v8.77832Z" transform="translate(-128.76709 -402.21729)"/><path d="M214.52295,416.67041a15.38024,15.38024,0,0,1,1.84668-7.25342,12.67836,12.67836,0,0,1,5.23242-5.353,15.53272,15.53272,0,0,1,7.56152-1.84668,14.19423,14.19423,0,0,1,10.57227,4.18848,14.47425,14.47425,0,0,1,4.12158,10.58594,14.64587,14.64587,0,0,1-4.16162,10.69287,14.06882,14.06882,0,0,1-10.479,4.24219,16.50443,16.50443,0,0,1-7.4541-1.7666,12.11874,12.11874,0,0,1-5.39307-5.17969A17.25511,17.25511,0,0,1,214.52295,416.67041Zm7.7085,0.40137q0,4.22974,2.00732,6.47705a6.56236,6.56236,0,0,0,9.88965,0q1.99365-2.24707,1.99414-6.53027a9.37444,9.37444,0,0,0-1.99414-6.42383,6.56142,6.56142,0,0,0-9.88965,0Q222.2312,412.84326,222.23145,417.07178Z" transform="translate(-128.76709 -402.21729)"/><path d="M249.53174,402.85938h7.0127v4.17529a10.49487,10.49487,0,0,1,3.69336-3.479,10.18352,10.18352,0,0,1,5.166-1.33838,10.83861,10.83861,0,0,1,8.4043,3.88086q3.45264,3.8811,3.45264,10.813,0,7.11987-3.47949,11.06738a10.83887,10.83887,0,0,1-8.43115,3.94824,9.58457,9.58457,0,0,1-4.269-.93652,14.40074,14.40074,0,0,1-4.02832-3.21191v14.31934h-7.521V402.85938Zm7.44092,13.73047q0,4.7915,1.90039,7.08008a5.81225,5.81225,0,0,0,4.63037,2.28809,5.43569,5.43569,0,0,0,4.36279-2.10059q1.7395-2.10205,1.73975-6.89258,0-4.47-1.79346-6.6377a5.5472,5.5472,0,0,0-4.44286-2.168,5.76984,5.76984,0,0,0-4.57715,2.12793Q256.97241,412.41479,256.97266,416.58984Z" transform="translate(-128.76709 -402.21729)"/><path d="M288.8501,411.53125l-6.8252-1.231a10.63252,10.63252,0,0,1,3.96143-6.10254q2.8103-1.98047,8.35059-1.98047,5.03174,0,7.49414,1.19092a7.47563,7.47563,0,0,1,3.46582,3.02441q1.00488,1.834,1.00391,6.73145l-0.08008,8.7793a30.44,30.44,0,0,0,.36133,5.52637,16.12764,16.12764,0,0,0,1.35156,3.81445h-7.44043q-0.29443-.74854-0.72266-2.22168c-0.125-.44531-0.21387-0.74023-0.26758-0.88281a13.57825,13.57825,0,0,1-4.12207,2.81055,11.81481,11.81481,0,0,1-4.68408.93652,9.68539,9.68539,0,0,1-6.91846-2.38184,7.91864,7.91864,0,0,1-2.5293-6.02246,8.08073,8.08073,0,0,1,1.15088-4.2959,7.51006,7.51006,0,0,1,3.2251-2.89062,25.19486,25.19486,0,0,1,5.98193-1.75342,40.91867,40.91867,0,0,0,7.30713-1.84668v-0.74951a3.89548,3.89548,0,0,0-1.0708-3.09131q-1.0708-.92358-4.0415-0.92334a5.387,5.387,0,0,0-3.13184.78955A5.49094,5.49094,0,0,0,288.8501,411.53125Zm10.064,6.10254a46.917,46.917,0,0,1-4.57715,1.15088,13.79936,13.79936,0,0,0-4.09521,1.31152,3.13613,3.13613,0,0,0-1.47168,2.6499,3.69,3.69,0,0,0,1.17725,2.73047,4.11386,4.11386,0,0,0,2.998,1.15039,6.51084,6.51084,0,0,0,3.88086-1.33789,4.70671,4.70671,0,0,0,1.793-2.48926,14.846,14.846,0,0,0,.29492-3.667v-1.499Z" transform="translate(-128.76709 -402.21729)"/><path class="45f5c456-c0a8-4c0a-8d07-1b8b086bdf7b" d="M328.73047,402.85938h7.01172v4.17529a10.4938,10.4938,0,0,1,3.69434-3.479,10.17735,10.17735,0,0,1,5.165-1.33838,10.83718,10.83718,0,0,1,8.4043,3.88086q3.45264,3.8811,3.45313,10.813,0,7.11987-3.47949,11.06738a10.83861,10.83861,0,0,1-8.43066,3.94824,9.58668,9.58668,0,0,1-4.26953-.93652,14.387,14.387,0,0,1-4.02832-3.21191v14.31934h-7.52051V402.85938Zm7.44043,13.73047q0,4.7915,1.90039,7.08008a5.81271,5.81271,0,0,0,4.62988,2.28809,5.436,5.436,0,0,0,4.36328-2.10059q1.73877-2.10205,1.73926-6.89258,0-4.47-1.793-6.6377a5.54747,5.54747,0,0,0-4.44336-2.168,5.76724,5.76724,0,0,0-4.57617,2.12793Q336.17041,412.41479,336.1709,416.58984Z" transform="translate(-128.76709 -402.21729)"/><path class="45f5c456-c0a8-4c0a-8d07-1b8b086bdf7b" d="M369.62793,431.28418h-7.52148v-28.4248h6.98535v4.0415a12.14946,12.14946,0,0,1,3.22559-3.77393,5.93638,5.93638,0,0,1,3.252-.90967,9.54321,9.54321,0,0,1,4.95117,1.41846l-2.32812,6.55762a6.60391,6.60391,0,0,0-3.5332-1.23145,4.177,4.177,0,0,0-2.67676.87012,5.946,5.946,0,0,0-1.72559,3.14453q-0.62988,2.27563-.62891,9.5293v8.77832Z" transform="translate(-128.76709 -402.21729)"/><path class="45f5c456-c0a8-4c0a-8d07-1b8b086bdf7b" d="M400.2207,422.2373l7.49414,1.25879a12.29512,12.29512,0,0,1-4.56348,6.27539,13.40736,13.40736,0,0,1-7.80273,2.15527q-7.41357,0-10.97363-4.84473a16.2777,16.2777,0,0,1-2.81055-9.7959q0-7.06641,3.69434-11.06738a12.16394,12.16394,0,0,1,9.34082-4.00146,12.61815,12.61815,0,0,1,10.00977,4.18848q3.668,4.18945,3.50684,12.834H389.27344a7.60727,7.60727,0,0,0,1.82031,5.20557,5.68707,5.68707,0,0,0,4.33594,1.86035,4.6078,4.6078,0,0,0,2.9707-.96289A5.95919,5.95919,0,0,0,400.2207,422.2373Zm0.42773-7.60107a7.23932,7.23932,0,0,0-1.68652-4.96484,5.42665,5.42665,0,0,0-7.97559.09375,6.94138,6.94138,0,0,0-1.5791,4.87109h11.24121Z" transform="translate(-128.76709 -402.21729)"/><path class="45f5c456-c0a8-4c0a-8d07-1b8b086bdf7b" d="M411.5957,423.17383l7.54785-1.15039a5.524,5.524,0,0,0,1.95313,3.332,6.6002,6.6002,0,0,0,4.12207,1.1377,7.44226,7.44226,0,0,0,4.38965-1.07031,2.38951,2.38951,0,0,0,.99023-2.00781,1.97537,1.97537,0,0,0-.53516-1.41846,6.00892,6.00892,0,0,0-2.51562-.99023q-9.10107-2.00757-11.53613-3.667a7.32326,7.32326,0,0,1-3.373-6.397,7.88427,7.88427,0,0,1,2.918-6.20947q2.9165-2.51514,9.04688-2.51562,5.83447,0,8.67188,1.90039a9.71731,9.71731,0,0,1,3.90723,5.62061l-7.09277,1.31152a4.38671,4.38671,0,0,0-1.72656-2.543,6.31214,6.31214,0,0,0-3.626-.8833,8.17086,8.17086,0,0,0-4.25586.83008,1.78077,1.78077,0,0,0-.85645,1.52539,1.6642,1.6642,0,0,0,.749,1.36523q1.0166,0.74927,7.02637,2.11426,6.00732,1.36523,8.39063,3.3457a6.954,6.954,0,0,1,2.35547,5.59424,8.58647,8.58647,0,0,1-3.26562,6.71777q-3.26514,2.811-9.66211,2.81055-5.80811,0-9.19336-2.35547A10.8454,10.8454,0,0,1,411.5957,423.17383Z" transform="translate(-128.76709 -402.21729)"/><path class="45f5c456-c0a8-4c0a-8d07-1b8b086bdf7b" d="M442.08105,423.17383l7.54785-1.15039a5.524,5.524,0,0,0,1.95313,3.332,6.60018,6.60018,0,0,0,4.12207,1.1377,7.44226,7.44226,0,0,0,4.38965-1.07031,2.38951,2.38951,0,0,0,.99023-2.00781,1.97537,1.97537,0,0,0-.53516-1.41846,6.00892,6.00892,0,0,0-2.51562-.99023q-9.10107-2.00757-11.53613-3.667a7.32326,7.32326,0,0,1-3.373-6.397,7.88427,7.88427,0,0,1,2.918-6.20947q2.9165-2.51514,9.04688-2.51562,5.83447,0,8.67188,1.90039a9.71731,9.71731,0,0,1,3.90723,5.62061l-7.09277,1.31152a4.38671,4.38671,0,0,0-1.72656-2.543,6.31214,6.31214,0,0,0-3.626-.8833,8.17086,8.17086,0,0,0-4.25586.83008,1.78077,1.78077,0,0,0-.85645,1.52539,1.6642,1.6642,0,0,0,.749,1.36523q1.0166,0.74927,7.02637,2.11426,6.00732,1.36523,8.39063,3.3457a6.954,6.954,0,0,1,2.35547,5.59424,8.58647,8.58647,0,0,1-3.26562,6.71777q-3.26514,2.811-9.66211,2.81055-5.80811,0-9.19336-2.35547A10.8454,10.8454,0,0,1,442.08105,423.17383Z" transform="translate(-128.76709 -402.21729)"/></svg>