<?xml version="1.0" encoding="utf-8"?>
<!-- Generator: Adobe Illustrator 23.0.3, SVG Export Plug-In . SVG Version: 6.00 Build 0)  -->
<svg version="1.1" id="Capa_1" xmlns="http://www.w3.org/2000/svg" xmlns:xlink="http://www.w3.org/1999/xlink" x="0px" y="0px"
	 viewBox="0 0 384.9 51.9" style="enable-background:new 0 0 384.9 51.9;" xml:space="preserve">
<style type="text/css">
	.st0{fill:#006F9F;}
</style>
<g>
	<path class="st0" d="M325.9,9.2l-6.1-8H332L325.9,9.2z M56.8,10.3h29.6v10.6H85c-1.8-6.7-3.4-8.9-9.7-8.9h-4.1
		c-1.7,0-2.1,0.4-2.1,2.2v15.7h7.3c4.1,0,4.8-1.7,5.7-5.9h1.4v13.6h-1.4c-0.9-4.2-1.6-5.9-5.7-5.9h-7.3v14.4c0,3.1,0.4,3.3,5.4,3.5
		v1.3H56.4v-1.4c4-0.2,4.5-0.4,4.5-3.5V15.2c0-3.1-0.2-3.3-4.2-3.6c-3.5,0.5-4.1,0.8-4.6,4.4c-0.2,2-0.3,5.1-0.3,8.1v26.8h-5.4
		L24,17.2h-0.2v20.2c0,3.2,0.1,5.7,0.4,7.8c0.4,4.2,1.8,4.1,5.8,4.4v1.3H17.4h-0.8H0v-1.4c4.3-0.2,4.5-0.4,4.5-3.5V15.2
		c0-3-0.2-3.3-4.5-3.6v-1.4h16.9h0.4h11.6l20.7,29.9l0.2,0.1l-0.1-16.1c0-3.1-0.1-6-0.3-8.1c-0.5-4.2-1.8-4.1-6.1-4.4v-1.4h12.9h0.6
		C56.8,10.2,56.8,10.3,56.8,10.3z M21.8,14.9c0-2.4-0.2-2.6-4.7-3.2c-3.8,0.2-4.2,0.5-4.2,3.6v30.9c0,2.8,0.3,3.3,3.9,3.5
		c3.5-0.5,4.3-0.7,4.7-4.4c0.2-2,0.4-4.7,0.4-8.1V14.9H21.8z M272.3,50.4c-10.7,0-12.7-11.5-12.7-20.3c0-6.5,1.5-19.5,12.1-19.5
		c7.3,0,10.5,6.4,11.6,11.3h1.4V11.7c-3-1.8-8.7-2.5-12.4-2.5c-8.7,0-13.6,2.3-17,6.2c-3.6,3.9-5,9.2-5,15.5
		c0,13.4,6.1,20.9,20.9,20.9c4.2,0,10.3-0.9,13.5-2.7l0.9-10.7h-1.4C282,45.9,279.4,50.4,272.3,50.4z M253.3,49.6v1.3h-17.8v-1.4
		l3.1-0.4c1.4-0.1,1.6-0.9,1.1-2.2l-3.8-11.6h-12.3c-1.3,4.3-2.5,7.8-3.2,11.2c-0.5,1.8-0.2,2.6,1.2,2.8l3.4,0.2v1.4h-11.8h-0.6
		h-16.8v-1.4c4.1-0.3,4.5-0.4,4.5-3.5V15.7h-0.2l-13,35.2H185l-13.9-34.7H171v20.7c0,3.2,0.1,6.2,0.4,8.3c0.4,4.1,1.8,4,5.7,4.4v1.3
		h-11.7h-1.9h-2.6c-5.7,0-7.8-1.6-9.2-5.8c-0.7-2.3-1.2-5.6-1.7-8.1c-0.8-4.9-2.6-5.7-6.8-5.7h-2.5v14.8c0,3.1,0.3,3.2,4.6,3.5v1.3
		h-17.5v-1.4c4.4-0.2,4.6-0.4,4.6-3.5V15.2c0-3.1-0.4-3.3-4.6-3.6v-1.4h19.5c7.8,0,12.9,2.2,12.9,9.9c0,5.5-3.8,8.9-10.2,9.6v0.5
		c6.1,1.5,8.3,4.6,9.6,10.6c1.4,6,1.9,8.1,4.8,8.6c3-0.4,3.9-0.7,4.2-4.3c0.2-2,0.4-5.3,0.4-8.3V15.2c0-3.1-0.6-3.3-4.9-3.6v-1.4
		H177l12.4,28.1h0.2l10.9-28.1h12.7v1.4c-4.4,0.2-4.6,0.4-4.6,3.6v30.9c0,3,0.2,3.3,4.2,3.5c3.1-0.2,3.6-0.7,4.9-3.7
		c2.4-5.7,9-24.9,12.6-35.8h5.8l12.3,36.5C249.4,49.1,250,49.4,253.3,49.6z M151.4,20.8c0-6.2-3-9.1-7-9.1c-3.5,0-3.7,0.4-3.7,2.2
		v15.9h2.5C149.7,29.8,151.4,26.8,151.4,20.8z M235.3,33.5c-1.1-3.5-4.1-12.9-5.5-17.1h-0.2c-1,3.2-4.2,13.2-5.3,17.1H235.3z
		 M345.6,30.6c0,13.1-6,21.3-19.5,21.3c-13.4,0-19.5-8.2-19.5-21.3s6-21.4,19.5-21.4h0.1C339.5,9.2,345.6,17.5,345.6,30.6z
		 M336.3,30.6c0-7.8-1.2-19.9-10.2-19.9H326c-8.9,0-10.2,12.1-10.2,19.9c0,8.1,1.3,19.8,10.2,19.8C335.1,50.4,336.3,38.7,336.3,30.6
		z M371.5,10.3v1.4c4.2,0.4,5.6,0.2,6.1,4.4c0.2,2.1,0.3,4.9,0.3,8.1l0.1,16.1l-0.2-0.1c-6.5-9.4-14.2-20.3-20.7-29.9h-12v1.4
		c4.6,0.6,4.9,0.8,4.9,3.3v22.2c0,3.4-0.1,6-0.4,8.1c-0.4,3.8-1.2,3.9-4.9,4.4v1.2h13.4v-1.4c-4-0.4-5.4-0.2-5.8-4.4
		c-0.3-2.1-0.4-4.6-0.4-7.8V17.2h0.2c7.5,11.1,15.5,23.2,22.4,33.8h5.4V24.1c0-3,0.1-6,0.3-8.1c0.4-3.7,1.1-3.9,4.7-4.4v-1.4
		L371.5,10.3L371.5,10.3z M287.9,11.6c4.3,0.2,4.5,0.6,4.5,3.6v30.9c0,3.1-0.2,3.3-4.5,3.5v1.3h17.4v-1.4c-4.1-0.2-4.5-0.6-4.5-3.5
		V15.2c0-3.1,0.4-3.3,4.5-3.6v-1.4h-17.4V11.6z M127.1,30.6c0,13.1-6,21.3-19.5,21.3s-19.5-8.2-19.5-21.3s6-21.4,19.5-21.4h0.1
		C121,9.2,127.1,17.5,127.1,30.6z M117.8,30.6c0-7.8-1.2-19.9-10.2-19.9h-0.1c-8.9,0-10.2,12.1-10.2,19.9c0,8.1,1.3,19.8,10.2,19.8
		C116.6,50.4,117.8,38.7,117.8,30.6z"/>
</g>
</svg>
