<?xml version="1.0" encoding="UTF-8" standalone="no"?>
<!-- Created with Inkscape (http://www.inkscape.org/) -->

<svg
   xmlns:dc="http://purl.org/dc/elements/1.1/"
   xmlns:cc="http://creativecommons.org/ns#"
   xmlns:rdf="http://www.w3.org/1999/02/22-rdf-syntax-ns#"
   xmlns:svg="http://www.w3.org/2000/svg"
   xmlns="http://www.w3.org/2000/svg"
   xmlns:sodipodi="http://sodipodi.sourceforge.net/DTD/sodipodi-0.dtd"
   xmlns:inkscape="http://www.inkscape.org/namespaces/inkscape"
   width="211.31433mm"
   height="43.334538mm"
   viewBox="0 0 748.75157 153.54757"
   id="svg3406"
   version="1.1"
   inkscape:version="0.91 r13725"
   sodipodi:docname="Logo de infolibre.svg">
  <defs
     id="defs3408" />
  <sodipodi:namedview
     id="base"
     pagecolor="#ffffff"
     bordercolor="#666666"
     borderopacity="1.0"
     inkscape:pageopacity="0.0"
     inkscape:pageshadow="2"
     inkscape:zoom="0.35"
     inkscape:cx="355.09006"
     inkscape:cy="62.488079"
     inkscape:document-units="px"
     inkscape:current-layer="layer1"
     showgrid="false"
     fit-margin-top="0"
     fit-margin-left="0"
     fit-margin-right="0"
     fit-margin-bottom="0"
     inkscape:window-width="1366"
     inkscape:window-height="705"
     inkscape:window-x="-8"
     inkscape:window-y="-8"
     inkscape:window-maximized="1" />
  <metadata
     id="metadata3411">
    <rdf:RDF>
      <cc:Work
         rdf:about="">
        <dc:format>image/svg+xml</dc:format>
        <dc:type
           rdf:resource="http://purl.org/dc/dcmitype/StillImage" />
        <dc:title></dc:title>
      </cc:Work>
    </rdf:RDF>
  </metadata>
  <g
     inkscape:label="Capa 1"
     inkscape:groupmode="layer"
     id="layer1"
     transform="translate(-19.909939,-441.30271)">
    <g
       id="g3422">
      <path
         sodipodi:nodetypes="sscscccssscccccccccccccccccccccccccccccccccccssscccccccccccsssssssscccsssssssccssssssscscscssssccssss"
         inkscape:connector-curvature="0"
         id="path3346-9"
         d="m 262.68757,592.48365 c -8.23215,-3.04648 -17.73927,-9.93494 -21.66272,-15.69591 -1.64445,-2.41464 -3.41179,-4.39409 -3.92741,-4.39879 -0.51563,-0.005 -0.9375,4.77956 -0.9375,10.63167 l 0,10.64022 -46.5625,-0.32772 -46.5625,-0.32771 -0.625,-36.25 c -0.34375,-19.9375 -1.10894,-37.23923 -1.70038,-38.44829 -2.2413,-4.58167 -12.53041,-4.4011 -20.22589,0.35496 l -4.32374,2.67223 0,24.27305 0,24.27305 7.54691,0 7.5469,0 -0.3594,11.5625 -0.3594,11.5625 -55.312501,0.3255 -55.3125,0.3255 0,-11.82561 0,-11.82563 7.1875,-0.37489 7.1875,-0.37487 0.33624,-27.74941 0.33625,-27.74942 -7.21125,-0.37558 -7.21124,-0.37559 0,-11.875 0,-11.875 22.17014,-0.34127 22.17015,-0.34127 0.32985,40.34126 0.32986,40.34128 9.6875,0.36507 9.68749,0.36509 0,-28.1152 0,-28.1152 -7.18749,-0.37489 -7.1875,-0.37487 0,-11.875 0,-11.875 22.49999,0 22.500001,0 0.625,4.08881 0.625,4.0888 4.40917,-3.00724 c 10.82966,-7.38627 26.41392,-9.20619 36.24677,-4.23287 12.76819,6.45799 16.16487,18.00373 16.19736,55.05711 l 0.0217,24.74462 8.4375,-0.36962 8.4375,-0.36961 0.33623,-27.74635 0.33623,-27.74635 -6.58623,-0.37865 -6.58628,-0.37865 0,-11.875 0,-11.875 6.5625,-0.37782 6.5625,-0.37783 0,-9.29627 c 0,-16.1752 6.38515,-28.00906 18.24309,-33.81061 12.52861,-6.12967 30.7149,-5.2838 42.13694,1.95986 10.0299,6.36078 9.91587,7.39684 -1.92415,17.47971 -5.68199,4.83874 -10.64858,8.79776 -11.03687,8.79783 -0.38828,7e-5 -1.63777,-1.95385 -2.77663,-4.34205 -2.72706,-5.71871 -7.84902,-7.22662 -11.06338,-3.25707 -2.78316,3.43706 -3.8609,8.86636 -3.34762,16.86421 l 0.39362,6.13328 6.875,0.11338 6.875,0.11337 0.36304,10.3125 c 0.19969,5.67188 0.5897,10.3125 0.86674,10.3125 0.27702,0 3.43831,-3.10296 7.02513,-6.89546 4.08447,-4.31874 9.58957,-8.40591 14.73196,-10.9375 7.74914,-3.81488 8.98474,-4.04203 21.98682,-4.04203 12.79654,0 14.3544,0.27397 21.90486,3.85227 14.4092,6.82874 24.5659,19.9061 27.47895,35.38084 2.39704,12.73351 1.1639,28.07141 -3.15196,39.20439 -2.26112,4.16746 -5.33481,9.27094 -9.018,13.07379 -4.3427,4.48377 -10.15601,8.86489 -14.6875,11.06902 -6.60245,3.21144 -9.07072,3.68939 -20.625,3.99372 -10.54777,0.27781 -14.42046,-0.13373 -19.72236,-2.09579 z m -27.77762,-23.02829 c 0,-0.23377 -1.125,-4.82375 -2.5,-10.19995 -3.7183,-14.53836 -3.18905,-26.34498 1.91915,-42.8125 0.8333,-2.68639 0.55762,-2.8125 -6.14837,-2.8125 l -7.02078,0 0,27.29166 c 0,15.01043 0.375,27.66668 0.83333,28.125 0.83182,0.83184 12.91667,1.21383 12.91667,0.40829 z m 54.89344,-3.05705 c 5.36829,-4.00801 7.7121,-8.32479 9.18329,-16.91359 3.54505,-20.69591 -4.63707,-36.47931 -18.91089,-36.47931 -3.61802,0 -7.25462,0.88705 -9.40026,2.29292 -9.92224,6.5013 -12.3485,33.72575 -4.10557,46.06748 5.51119,8.25164 15.90599,10.50321 23.23341,5.0325 z m -248.118501,-91.375 c -13.39546,-8.16853 -8.77813,-31.43849 6.64875,-33.50767 16.93037,-2.27084 25.48802,20.28119 12.14236,31.99884 -5.26971,4.62686 -12.69957,5.22344 -18.79111,1.50883 z"
         style="fill:#000000" />
      <path
         sodipodi:nodetypes="ccccccccccccccccccccccccccccccccccccccccsssssscccsssscscccccsscscssscssssscssssssssscccccccscssssccccccccsssssccssssssssssss"
         inkscape:connector-curvature="0"
         id="path3346-6-2"
         d="m 334.77614,568.63039 8.88374,2e-5 0,-50 0,-50 -9.375,0 -9.375,0 0,-12.5 0,-12.5 37.54525,0 37.54526,0 -0.35776,12.1875 -0.35775,12.1875 -9.6875,0.36508 -9.6875,0.36508 0,49.94741 0,49.94743 20.625,0 20.625,0 0,-23.125 0,-23.125 13.125,0 13.125,0 0,23.83694 0,23.83693 2.81251,-0.39943 2.8125,-0.39944 0,-28.125 0,-28.125 -7.18751,-0.37488 -7.18745,-0.37488 0,-11.18761 0,-11.18763 22.50001,0 22.5,0 0,40 0,40 8.75,0 8.75,0 0,-51.25 0,-51.25 -8.65927,0 c -7.75437,0 -8.9169,0.32751 -11.12449,3.13401 -10.26275,13.04697 -28.97818,5.64914 -28.96156,-11.44792 0.0145,-14.88745 16.88547,-22.54593 27.12032,-12.31109 2.40625,2.40625 4.6,4.375 4.875,4.375 0.27499,0 0.5,-1.6875 0.5,-3.75 l 0,-3.75 23.125,0 23.125,0 0,28.75 c 0,15.8125 0.30912,28.75 0.68695,28.75 0.37784,0 2.66751,-1.92349 5.08819,-4.27442 15.25422,-14.81472 38.65195,-11.7949 52.76808,6.81049 2.33222,3.07392 4.73907,5.77643 5.34857,6.00559 0.60951,0.22918 1.10821,-4.1302 1.10821,-9.6875 l 0,-10.10416 21.875,0 21.875,0 0.0321,12.1875 0.0321,12.1875 3.18579,-6.25 c 6.50203,-12.75573 16.22711,-19.65851 28.00001,-19.8741 l 6.875,-0.1259 0.23359,8.125 c 0.12848,4.46875 0.26911,8.599 0.3125,9.17834 0.0434,0.57933 2.9023,-1.48514 6.35311,-4.5877 7.66987,-6.89589 14.6794,-10.40372 24.43248,-12.22695 32.65183,-6.10387 59.28926,18.04041 59.29411,53.74442 l 7.7e-4,5.76689 -35.02539,-0.35062 c -39.39727,-0.39438 -37.89341,-0.77597 -35.00479,8.88196 0.85847,2.87026 2.70701,6.83063 4.10787,8.80082 2.98211,4.19411 13.66609,9.52504 19.04575,9.50318 5.04989,-0.0205 14.13864,-4.26984 18.83556,-8.80631 l 3.83555,-3.70453 11.47695,3.99113 c 6.31231,2.19512 11.47694,4.44215 11.47694,4.9934 0,0.55125 -3.23438,4.28007 -7.1875,8.28626 -10.88718,11.03334 -21.55427,15.19222 -39.11237,15.24915 -29.14006,0.0945 -48.22773,-15.24498 -52.61689,-42.28458 -1.43928,-8.86675 -0.91308,-16.05821 2.24415,-30.67 0.77788,-3.6001 0.76651,-3.60766 -4.08617,-2.71939 -9.27813,1.69834 -14.94821,6.16973 -19.46928,15.35334 -3.7437,7.60454 -4.16803,9.62724 -4.58692,21.86545 l -0.46158,13.48574 9.51328,0 9.51328,0 0,11.25 0,11.25 -33.125,0 -33.125,0 0,-8.75 c 0,-4.8125 -0.42188,-8.74972 -0.9375,-8.74939 -0.51563,3.4e-4 -3.30688,2.75194 -6.20276,6.11465 -2.95029,3.42589 -8.14189,7.54753 -11.80794,9.37439 -12.49703,6.22754 -31.05326,3.44731 -39.70719,-5.94921 -4.20188,-4.56245 -5.09461,-4.15338 -5.09461,2.33456 l 0,5.625 -103.12501,0 -103.125,0 0,-10.14235 0,-13.60767 z m 277.34477,-27.18748 -0.33596,-28.4375 -7.8125,-0.37215 c -8.82461,-0.42035 -8.797,-0.46234 -5.92398,9.00831 1.1495,3.78921 1.86148,11.24328 1.86148,19.48884 0,8.24556 -0.71197,15.69962 -1.86148,19.48884 -2.83084,9.3316 -2.87845,9.26116 6.25994,9.26116 l 8.14847,0 z m -52.43842,24.64949 c 6.5173,-3.97347 9.52022,-12.00633 9.5652,-25.58699 0.0434,-13.08469 -2.4039,-19.34725 -9.44648,-24.1739 -8.27714,-5.67275 -20.76917,-1.67614 -25.66722,8.21179 -3.48134,7.02793 -3.32958,26.58278 0.2597,33.46211 5.20718,9.9803 16.34266,13.54126 25.2888,8.08699 z m 178.94224,-38.39949 c -0.0764,-4.74658 -5.81002,-13.4576 -10.68223,-16.22944 -8.4931,-4.83177 -20.29306,-2.82523 -24.92088,4.2377 -2.68533,4.09833 -5.61556,12.50869 -4.68303,13.44123 0.40591,0.40591 9.64426,0.73801 20.52969,0.73801 18.02928,0 19.78851,-0.19479 19.75644,-2.1875 z"
         style="fill:#c4071b;fill-opacity:1" />
    </g>
  </g>
</svg>
