<?xml version="1.0" encoding="utf-8"?>
<!-- Generator: Adobe Illustrator 23.0.3, SVG Export Plug-In . SVG Version: 6.00 Build 0)  -->
<svg version="1.1" id="Capa_1" xmlns="http://www.w3.org/2000/svg" xmlns:xlink="http://www.w3.org/1999/xlink" x="0px" y="0px"
	 viewBox="0 0 202.8 55" style="enable-background:new 0 0 202.8 55;" xml:space="preserve">
<style type="text/css">
	.st0{fill:#1E8737;}
	.st1{fill:#1EAF37;}
	.st2{fill:#1ED732;}
</style>
<g>
	<polygon class="st0" points="17.4,34.6 21,28.5 21,28.5 12.8,14.3 1,34.6 12.8,55 21,40.8 	"/>
	<polygon class="st1" points="31.6,34.6 31.6,34.6 28.1,40.8 21,40.8 21,40.8 12.8,55 36.3,55 48,34.6 	"/>
	<polygon class="st2" points="36.3,14.3 29.2,14.3 37.5,0 21,0 12.8,14.3 21,28.5 28.1,28.5 31.6,34.6 48,34.6 	"/>
	<polygon points="58.1,45.1 58.1,40.5 61.1,40.5 61.1,18.1 58.1,18.1 58.1,13.5 67.1,13.5 67.1,40.5 69.9,40.5 69.9,45.1 	"/>
	<path d="M85.5,45.1l0-3c-1.6,2.6-3.7,3.7-6.8,3.7c-4.4,0-7.1-2.7-7.1-7.1c0-6.3,6.4-7.7,11.5-7.7c0.5,0,1.1,0,1.6,0v-1.3
		c0-2.2-0.4-4.2-3.1-4.2c-2,0-3.1,1.5-3.2,3.4h-5.9c0.7-5.3,3.9-7.6,9.2-7.6c2.2,0,5.5,0.6,7,2.4c1.8,2.1,1.8,4.9,1.8,7.5v9.3h3v4.6
		H85.5L85.5,45.1z M83.3,34.4c-2.5,0-5.8,0.5-5.8,3.7c0,1.8,1.4,3.2,3.2,3.2c2.7,0,4-2.1,4-4.5v-2.3C84.3,34.4,83.8,34.4,83.3,34.4"
		/>
	<path d="M108.8,45.5c-2.1,0-4.3-0.5-5.9-1.9c-0.4-0.4-0.8-0.8-1.2-1.3l-0.1,2.8h-4.9V33.8h5c0.4,2.6,1,5,3.5,6.4
		c0.8,0.4,1.7,0.7,2.6,0.7c2.5,0,4.5-1.5,4.5-4.1c0-7-15.3-3.8-15.3-14.9c0-5.4,4-8.8,9.3-8.8c2.8,0,5.2,0.8,6.5,3.4l0-2.8h4.8v10.6
		h-5c-0.3-3.4-2.1-6.4-5.9-6.4c-2.1,0-3.9,1.2-3.9,3.4c0,6.3,15.4,3.5,15.4,14.9C118.4,41.9,114.4,45.5,108.8,45.5"/>
	<path d="M126,34.3c0,3,0.6,7.2,4.6,7.2c2.6,0,4.1-1.5,4.4-4h6c-0.2,1-0.4,2-0.8,2.9c-1.8,3.6-5.4,5.3-9.3,5.3
		c-8.1,0-11-4.7-11-12.3c0-6.8,3.2-12.1,10.5-12.1c7.5,0,10.6,5.1,10.6,12.1v0.8L126,34.3L126,34.3L126,34.3z M134.7,28.6
		c-0.5-1.7-2.1-3-4-3c-2.8,0-4.2,2.3-4.5,4.9h8.8C135,29.9,134.9,29.2,134.7,28.6"/>
	<polygon points="154.5,45.1 154.5,40.5 156.3,40.5 153,35.3 149.9,40.5 151.7,40.5 151.7,45.1 142.4,45.1 142.4,40.5 144.4,40.5 
		149.1,33.1 144.8,26.5 142.9,26.5 142.9,21.9 152.6,21.9 152.6,26.5 150.9,26.5 153.8,31.1 156.6,26.5 154.9,26.5 154.9,21.9 
		163.8,21.9 163.8,26.5 162,26.5 157.6,33.1 162.6,40.5 164.5,40.5 164.5,45.1 	"/>
	<path d="M174.9,26.5v11.2c0,1.9,0.3,3,2.5,3c0.6,0,1.2-0.2,1.8-0.3v4.4c-1.3,0.3-2.6,0.4-3.8,0.4c-4.3,0-6.3-1.5-6.3-5.8V26.5h-2.9
		v-4.6h3.2v-5.4l5.5-1.3v6.7h4.6v4.6H174.9z"/>
	<path d="M194.9,45.1l0-3c-1.6,2.6-3.7,3.7-6.8,3.7c-4.4,0-7.1-2.7-7.1-7.1c0-6.3,6.4-7.7,11.5-7.7c0.5,0,1.1,0,1.6,0v-1.3
		c0-2.2-0.4-4.2-3.1-4.2c-2,0-3.1,1.5-3.2,3.4h-5.9c0.7-5.3,3.9-7.6,9.2-7.6c2.2,0,5.5,0.6,7,2.4c1.8,2.1,1.8,4.9,1.8,7.5v9.3h3v4.6
		H194.9L194.9,45.1z M192.7,34.4c-2.5,0-5.8,0.5-5.8,3.7c0,1.8,1.4,3.2,3.2,3.2c2.7,0,4-2.1,4-4.5v-2.3
		C193.6,34.4,193.2,34.4,192.7,34.4"/>
</g>
</svg>
