<?xml version="1.0" encoding="utf-8"?>
<!-- Generator: Adobe Illustrator 23.0.3, SVG Export Plug-In . SVG Version: 6.00 Build 0)  -->
<svg version="1.1" id="Capa_1" xmlns="http://www.w3.org/2000/svg" xmlns:xlink="http://www.w3.org/1999/xlink" x="0px" y="0px"
	 viewBox="0 0 205 46.6" style="enable-background:new 0 0 205 46.6;" xml:space="preserve">
<style type="text/css">
	.st0{fill:#1A171B;}
</style>
<g>
	<path class="st0" d="M0,45.6V1.4h9.2v36.2h22.1v7.9C31.3,45.6,0,45.6,0,45.6z M47.1,19.1c-2.2,0-3.9,0.6-5.1,1.9
		c-1.2,1.2-2,2.9-2.3,5.1h14.7c-0.2-2.3-0.9-4-2.3-5.2C50.8,19.7,49.1,19.1,47.1,19.1L47.1,19.1z M47.1,12c2.8,0,5.4,0.5,7.7,1.5
		s4.2,2.6,5.6,4.8c1.3,1.9,2.2,4.2,2.6,6.8c0.2,1.5,0.3,3.7,0.3,6.5H39.5c0.1,3.3,1.3,5.6,3.4,6.9c1.3,0.8,2.9,1.2,4.7,1.2
		c1.9,0,3.5-0.5,4.7-1.5c0.7-0.5,1.3-1.3,1.8-2.2h8.7c-0.2,1.9-1.3,3.9-3.2,5.9c-2.9,3.2-7,4.8-12.3,4.8c-4.3,0-8.2-1.3-11.5-4
		s-5-7-5-13.1c0-5.7,1.5-10,4.5-13C38.4,13.6,42.3,12,47.1,12L47.1,12z M77.1,37l7-24.1h9.2L81.4,45.6h-9L60.7,12.9h9.6L77.1,37z
		 M111.3,32.9v-3.2c-0.5,0.3-1.1,0.6-1.7,0.8c-0.6,0.2-1.3,0.4-2.3,0.6l-1.9,0.4c-1.8,0.3-3.1,0.7-3.9,1.2c-1.3,0.8-2,2-2,3.6
		c0,1.5,0.4,2.5,1.2,3.2c0.8,0.6,1.8,1,3,1c1.9,0,3.6-0.5,5.2-1.6C110.4,37.7,111.3,35.7,111.3,32.9L111.3,32.9z M103.2,26.1
		l2.9-0.4c1.6-0.2,2.7-0.5,3.4-0.8c1.2-0.5,1.8-1.3,1.8-2.4c0-1.3-0.5-2.3-1.4-2.8s-2.3-0.8-4.1-0.8c-2,0-3.5,0.5-4.3,1.5
		c-0.6,0.7-1,1.7-1.2,3H92c0.2-2.9,1-5.2,2.4-7c2.3-2.9,6.2-4.3,11.7-4.3c3.6,0,6.8,0.7,9.6,2.1c2.8,1.4,4.2,4.1,4.2,8v15L120,41
		c0.1,1.1,0.2,1.9,0.5,2.3c0.3,0.4,0.7,0.7,1.3,1v1.3h-9.3c-0.3-0.7-0.4-1.3-0.5-1.9c-0.1-0.6-0.2-1.2-0.2-2
		c-1.2,1.3-2.6,2.4-4.1,3.3c-1.8,1.1-3.9,1.6-6.3,1.6c-3,0-5.4-0.8-7.4-2.5c-1.9-1.7-2.9-4.1-2.9-7.2c0-4,1.6-6.9,4.7-8.7
		C97.3,27.2,99.8,26.5,103.2,26.1L103.2,26.1z M142,12.1c3.4,0,6.1,0.9,8.3,2.7s3.2,4.7,3.2,8.8v22h-8.8V25.7c0-1.7-0.2-3-0.7-4
		c-0.8-1.7-2.4-2.5-4.8-2.5c-2.9,0-4.9,1.2-5.9,3.7c-0.6,1.3-0.8,3-0.8,5v17.7H124V13h8.3v4.8c1.1-1.7,2.1-2.9,3.1-3.6
		C137.1,12.8,139.3,12.1,142,12.1L142,12.1z M159.3,19.3h-4.6v-6.1h4.6V4.1h8.5v9.1h5.3v6.1h-5.3v17.3c0,1.3,0.2,2.2,0.5,2.5
		s1.4,0.5,3.1,0.5h0.8h0.9V46l-4,0.2c-4,0.1-6.8-0.6-8.3-2.1c-1-1-1.4-2.5-1.4-4.5V19.3H159.3z M188.8,19.1c-2.2,0-3.9,0.6-5.1,1.9
		s-2,2.9-2.3,5.1h14.7c-0.2-2.3-0.9-4-2.3-5.2C192.5,19.7,190.8,19.1,188.8,19.1L188.8,19.1z M188.8,12c2.8,0,5.4,0.5,7.7,1.5
		s4.2,2.6,5.6,4.8c1.3,1.9,2.2,4.2,2.6,6.8c0.2,1.5,0.3,3.7,0.3,6.5h-23.8c0.1,3.3,1.3,5.6,3.4,6.9c1.3,0.8,2.9,1.2,4.7,1.2
		c1.9,0,3.5-0.5,4.7-1.5c0.7-0.5,1.3-1.3,1.8-2.2h8.7c-0.2,1.9-1.3,3.9-3.2,5.9c-2.9,3.2-7,4.8-12.3,4.8c-4.4,0-8.2-1.3-11.5-4
		s-5-7-5-13.1c0-5.7,1.5-10,4.5-13C180.1,13.6,184,12,188.8,12L188.8,12z"/>
</g>
</svg>
