<?xml version="1.0" encoding="utf-8"?>
<!-- Generator: Adobe Illustrator 23.0.3, SVG Export Plug-In . SVG Version: 6.00 Build 0)  -->
<svg version="1.1"
	 id="svg2" inkscape:version="0.91 r13725" sodipodi:docname="Cadena_Ser_logo.svg" xmlns:cc="http://creativecommons.org/ns#" xmlns:dc="http://purl.org/dc/elements/1.1/" xmlns:inkscape="http://www.inkscape.org/namespaces/inkscape" xmlns:rdf="http://www.w3.org/1999/02/22-rdf-syntax-ns#" xmlns:sodipodi="http://sodipodi.sourceforge.net/DTD/sodipodi-0.dtd" xmlns:svg="http://www.w3.org/2000/svg"
	 xmlns="http://www.w3.org/2000/svg" xmlns:xlink="http://www.w3.org/1999/xlink" x="0px" y="0px" viewBox="0 0 501.4 157.4"
	 style="enable-background:new 0 0 501.4 157.4;" xml:space="preserve">
<style type="text/css">
	.st0{fill:#FFBC00;}
</style>
<defs>
	
	
		<inkscape:perspective  id="perspective39" inkscape:persp3d-origin="729.375 : 263.75 : 1" inkscape:vp_x="0 : 395.625 : 1" inkscape:vp_y="0 : 1000 : 0" inkscape:vp_z="1458.75 : 395.625 : 1" sodipodi:type="inkscape:persp3d">
		</inkscape:perspective>
</defs>
<sodipodi:namedview  bordercolor="#666666" borderopacity="1" gridtolerance="10" guidetolerance="10" id="namedview33" inkscape:current-layer="svg2" inkscape:cx="340.85725" inkscape:cy="109.98913" inkscape:pageopacity="0" inkscape:pageshadow="2" inkscape:window-height="705" inkscape:window-maximized="1" inkscape:window-width="1366" inkscape:window-x="-8" inkscape:window-y="-8" inkscape:zoom="0.62694288" objecttolerance="10" pagecolor="#ffffff" showgrid="false">
	</sodipodi:namedview>
<g transform="translate(-337.09764,-202.3599)">
</g>
<g transform="matrix(0.42618257,0,0,0.42618257,-5.948794,-16.616858)">
	<path id="path27" class="st0" d="M108.1,39.9c4.3-0.7,8.7-0.9,13.1-0.9c80.4,0,160.8,0,241.3,0c10.8-0.3,20.4,9.3,20.8,19.9
		c0.1,9.6,0,19.2,0,28.9c0,9.3-7,17.9-15.9,20.2c-4,1.2-8.3,0.7-12.4,0.8c-77.5,0-155,0-232.5,0c-20.3,0.3-38.5,18.5-38.3,38.9
		c-0.8,16.5,10.3,32.3,25.6,38c5.2,2.1,10.8,2.7,16.4,2.7c48.8,0,97.5,0,146.3,0c25.5-0.4,50.9,8.6,70.6,24.7
		c19.8,16,33.6,39.3,38.3,64.3c4.6,24.1,0.9,49.7-10.5,71.4c-15.3,29.9-45.2,51.9-78.4,57.4c-8.7,1.8-17.5,1.4-26.3,1.4
		c-74.6,0-149.2,0-223.7,0c-5.5-0.1-11.5,0.8-16.5-2.1c-7.6-3.6-12.3-12-11.9-20.3c0.1-9.2-0.1-18.3,0.1-27.5
		c0.6-11.1,10.9-20.3,22-19.9c80-0.1,160,0,240.1,0c20.3-1,37.9-19.7,37-40.2c0.5-20.8-18.2-39.3-38.9-39.4
		c-44.4-0.1-88.8-0.2-133.1,0.2c-14.7,0.1-29.5,0.3-43.9-3.4c-25.5-6.3-48.6-22-63.5-43.7C21.2,193.7,14.2,172,14,150.3
		c-0.5-26.5,9-53.1,26.4-73.1C57.4,57.1,82,43.5,108.1,39.9L108.1,39.9z"/>
	<path id="path29" class="st0" d="M418.1,49.8c3.6-6.3,10.5-11.2,18-10.8c108.7,0,217.5,0,326.2,0c11.2-0.2,20.9,10.2,20.8,21.2
		c0,9.2,0,18.4,0,27.6c-0.1,11.4-10.5,21.4-21.9,20.9c-92.5,0-185.1,0-277.6,0c0,26.5,0,53.1,0,79.7c80,0,160,0,240,0
		c8.1-0.1,16.3,4.7,19.7,12.2c3.4,7.3,1.7,15.6,2.1,23.3c-0.4,7.1,1.1,14.6-1.7,21.4c-3.3,7.8-11.5,13.1-20,13.1
		c-80,0.1-160.1,0-240.1,0c0,26.5,0,53.1,0,79.6c92.9,0,185.9,0,278.8,0c10.5,0.1,19.9,9,20.6,19.5c0.3,9.6,0,19.2,0.1,28.8
		c0.1,11-9.4,21.8-20.8,21.2c-34.2,0-68.4,0-102.5,0c-7.1-0.4-14.1,0.8-21.2,0.5c-66.7,0-133.3,0-200,0c-5-0.1-10.3-0.8-14.3-4
		c-7.8-5.7-10.8-15.9-10.5-25.2c0-103.3,0-206.7,0-310C413.6,62.4,414.6,55.5,418.1,49.8L418.1,49.8z"/>
	<path id="path31" class="st0" d="M813.6,60.2c-0.4-11.3,10-21.6,21.2-21.2c80.4,0,160.8,0,241.3,0c38.5,0.5,75.5,23.5,93.5,57.5
		c17.1,31.4,17.4,71.3,0.7,102.9c-7,13.8-17.4,25.9-29.4,35.6c-41.2,35.1-82.2,70.4-123.5,105.5c29.6-0.1,59.2-1.3,88.8-1.3
		c21.3-0.1,42.5-1.2,63.8-1c10.8,0.3,20.1,9.9,20.3,20.6c0.2,9.2,0.1,18.4,0.1,27.6c0,9.1-6.1,17.8-14.8,20.6
		c-5.5,1.5-11.3,1.3-17,1.3c-70.4,0-140.9,0-211.3,0c-12.2,0.1-24.6-4.5-32.6-14c-14.2-15.6-12.9-42.2,2.9-56.2
		c60.8-53.4,121.6-106.8,182.3-160.2c10.6-9.5,15.4-25,11.7-38.7c-4.1-17.1-20.3-30.1-37.9-30.3c-63.4,0-126.8,0-190.2,0
		c0,92.6,0,185.2,0,277.8c0.2,9.4-6.7,18.5-15.9,20.7c-7.4,1.6-15.1,0.8-22.6,1c-6.5,0-13.5,0.5-19.5-2.4
		c-7.2-3.5-12.1-11.3-11.8-19.4C813.6,277.7,813.6,169,813.6,60.2L813.6,60.2z"/>
</g>
</svg>
