<?xml version="1.0" encoding="utf-8"?>
<!-- Generator: Adobe Illustrator 21.0.0, SVG Export Plug-In . SVG Version: 6.00 Build 0)  -->
<svg version="1.1" id="Capa_1" xmlns="http://www.w3.org/2000/svg" xmlns:xlink="http://www.w3.org/1999/xlink" x="0px" y="0px"
	 viewBox="0 0 274 50" style="enable-background:new 0 0 274 50;" xml:space="preserve">
<style type="text/css">
	.st0{fill:#4A82B9;}
</style>
<path class="st0" d="M262.6,33.6c-1,0.7-1.8,0.9-3,0.9c-2.4,0-3.6-1.5-3.6-3.8c0-2.5,1.3-3.2,2.1-3.6c1.3-0.7,3.8-0.7,4.5-0.7V33.6z
	 M273.7,34.3l-0.7-0.7c-0.4,0.2-0.6,0.5-1.5,0.5c-2.2,0-2.2-2.2-2.2-3.7c0-3.9,0.2-5.5,0.2-7c0-0.3,0.1-3.8-0.4-5.3
	c-0.5-1.4-1.6-5-8.7-5c-6.7,0-8.6,4.2-8.9,5.1l1.1,0.8c1-1.5,2.3-2.8,5.1-2.8c1.7,0,3.7,0.5,4.6,2.9c0.3,1,0.3,2.8,0.3,4.4v1.1
	c-3,0-7.4-0.2-10.2,1.3c-1.9,1-3.3,2.8-3.3,5.5c0,1.6,0.4,6.4,6.8,6.4c4.3,0,6.2-2.5,6.9-3.3c0.3,1.1,1,3.2,4.5,3.2
	C270.3,37.7,272.1,36.6,273.7,34.3 M247.2,30.8h-1.1c-0.1,1.8-0.6,2.8-1.5,3.5c-1.1,0.8-2.8,0.9-4.9,0.9h-5.1L247.1,15v-1.4h-19
	c0,0,0.1,3.4-0.2,5.8h1.1c0.1-1.1,0.5-2.2,1.1-2.7c0.9-0.8,2.1-1,5-1h4.2L227,35.8v1.7h20C247,37.4,247,33.2,247.2,30.8 M214.1,33.6
	c-1,0.7-1.8,0.9-3,0.9c-2.4,0-3.6-1.5-3.6-3.8c0-2.5,1.3-3.2,2.1-3.6c1.3-0.7,3.8-0.7,4.5-0.7V33.6z M225.3,34.3l-0.7-0.7
	c-0.4,0.2-0.6,0.5-1.5,0.5c-2.2,0-2.2-2.2-2.2-3.7c0-3.9,0.2-5.5,0.2-7c0-0.3,0.1-3.8-0.4-5.3c-0.5-1.4-1.6-5-8.7-5
	c-6.7,0-8.6,4.2-8.9,5.1l1.1,0.8c1-1.5,2.3-2.8,5.1-2.8c1.7,0,3.7,0.5,4.6,2.9c0.3,1,0.3,2.8,0.3,4.4v1.1c-3,0-7.4-0.2-10.2,1.3
	c-1.9,1-3.3,2.8-3.3,5.5c0,1.6,0.4,6.4,6.8,6.4c4.3,0,6.2-2.5,6.9-3.3c0.3,1.1,1,3.2,4.5,3.2C221.8,37.7,223.7,36.6,225.3,34.3
	 M200.1,37.5v-0.9c-1.4-0.1-2.2-0.7-2.6-1.3c-0.5-0.8-0.7-1.9-0.7-5.1V9.8c0-3.9,0.1-7.7,0.2-9.5L196.7,0c-1,0.3-2.2,0.5-3.3,0.7
	c-3.3,0.5-6.4,0.6-6.9,0.6v1c0.5,0.1,2,0.1,2.7,1.1c0.5,0.8,0.6,2,0.6,5.2v20.1c0,4.4-0.1,5.9-0.9,6.8c-0.8,0.9-1.8,1.1-2.5,1.1v0.9
	c2-0.1,5-0.2,6.8-0.2S198.1,37.4,200.1,37.5 M178.7,25.8c0,5.7-1.4,10.1-6,10.1c-2.8,0-4-1.7-4.1-2V17.1c0.7-0.6,2.4-1.1,3.6-1.1
	C177.2,16.1,178.7,20.4,178.7,25.8 M186.3,24.8c0-8.5-5.2-11.7-10.4-11.7c-2.8,0-5.4,0.8-7.3,2.9v-2.7l-0.3-0.2
	c-0.8,0.3-1.8,0.5-3.2,0.6c-3,0.4-5.7,0.5-6.7,0.5v1c0.6,0.1,2.1,0.1,2.7,1.1c0.5,0.8,0.6,2,0.6,5.3v19.5c0,4.4-0.1,5.9-0.9,6.8
	c-0.8,0.9-1.8,1.1-2.5,1.1v1c2.2-0.2,5.3-0.2,7.1-0.2s6,0.1,8,0.2v-1c-0.2,0-3,0.1-4-1.3c-0.5-0.8-0.7-2-0.7-5.2v-5.2
	c2,0.5,4.2,0.6,4.8,0.6c4.7,0,8.6-2,10.8-5.5C185.5,30.3,186.3,27.8,186.3,24.8 M149,34.1c-0.2,0.1-1.8,1.4-4.6,1.4
	c-4.1,0-4.4-2.9-4.4-4.2c0-1.5,0.5-3,2.4-3.9c1.1-0.5,3-0.7,6.5-0.9v7.6H149z M156.6,35.3l-0.5-0.5c-0.3,0.3-0.7,0.4-1.1,0.4
	c-2.1,0-2.1-1.8-2.1-3.3c0-1.7,0.2-6,0.2-9.5c0-2.5-0.1-4.6-1-6.1c-1.1-1.6-2.9-2.8-6.3-2.8c-4.9,0-7,3.1-7.5,4.8l0.7,0.4
	c0.1-0.1,1.5-2.9,5.1-2.9c2.2,0,4,0.8,4.7,2.9c0.3,1,0.3,2.8,0.3,4.3v2.3c-3,0-6.5,0.2-8.5,0.7c-4.2,1.2-4.5,4.4-4.5,5.7
	c0,1,0.1,6.1,6.5,6.1c3.7,0,5.9-2.2,6.6-3.2c0,1.2,0.5,3.1,3.1,3.1C154.6,37.7,155.7,36.4,156.6,35.3 M134.8,37.5v-0.7
	c-1.7-0.2-2.6-0.9-2.9-1.3c-0.5-0.8-0.6-1.9-0.6-5.1v-7.2c0-3.9,0.1-7.7,0.2-9.5l-0.2-0.2c-0.6,0.3-1.4,0.5-2.3,0.6
	c-2.1,0.4-4.4,0.5-5,0.5v0.8c0.5,0.1,2,0.1,2.7,1.1c0.5,0.8,0.6,2,0.6,5.2v7.1c0,4.4-0.1,5.9-0.9,6.9c-0.8,0.9-1.8,1-2.7,1.1v0.7
	c2.2-0.2,4.2-0.2,5.7-0.2C131.1,37.3,132.8,37.4,134.8,37.5 M131.6,6c0-1.5-1.1-2.4-2.6-2.4s-2.6,0.9-2.6,2.4c0,1.4,1,2.4,2.5,2.4
	C130.6,8.4,131.6,7.5,131.6,6 M121.9,15.8v-0.5c-1.3-1.1-4-1.8-7-1.8c-8.1,0-11.9,6.2-11.9,12.9c0,5.7,3,11.4,10.4,11.4
	c5.2,0,7.5-2.5,8.1-3.2L121,34c-1,0.5-2.4,1.3-5.1,1.3c-8.2,0-8.8-7.3-8.8-10.7c0-2.8,0.6-9.3,6.8-9.3c4.1,0,5.3,2.8,5.6,3.2h0.5
	L121.9,15.8z M102.7,37.5v-0.7c-0.8-0.1-1.7-0.4-2.2-0.8c-0.9-0.9-1.1-1.6-1.1-5.6v-7.2c0-1.4-0.1-3.4-0.3-4.3
	c-0.7-3.3-3.1-5.4-7.6-5.4c-4.3,0-7.1,2.5-7.6,2.9v-2.8l-0.2-0.2c-0.6,0.3-1.3,0.5-2.3,0.6c-2.1,0.4-4.1,0.5-4.7,0.5v0.8
	c0.6,0.1,2.1,0.1,2.8,1.1c0.5,0.8,0.6,2,0.6,5.2v7.1c0,4.4-0.1,5.9-0.9,6.8s-1.8,1.1-2.5,1.2v0.7c2.2-0.2,3.6-0.2,5.4-0.2
	s3.3,0.1,5.3,0.2v-0.7c-0.8-0.1-1.7-0.4-2.2-0.8c-0.9-0.9-1.1-1.6-1.1-5.6V17.1c1.1-0.6,2.8-1.2,5.3-1.2c4.1,0,5.6,2.3,5.9,5.1
	c0.2,1.9,0.2,3.9,0.2,5.7c0,1.4,0,3.4-0.1,4.3c-0.1,2.1,0,3.8-1.1,4.9c-0.5,0.5-1.3,0.8-2.3,1v0.7c2.2-0.2,3.6-0.2,5.4-0.2
	S100.7,37.4,102.7,37.5 M70.8,22.5H60c0-1.8,0.3-7.3,5.5-7.3s5.3,4.7,5.3,6.7V22.5z M75.3,24.1v-0.7c0-2.2-0.2-4.3-1.4-6.4
	c-0.7-1.1-2.6-3.5-7.2-3.5C59.8,13.5,56,19,56,26.4c0,6.4,3.1,11.4,10.7,11.4c3.3,0,6.5-1.2,8.2-3.2L74.5,34
	c-1.7,0.9-3.6,1.3-5.6,1.3c-2.4,0-7.3-0.6-8.5-7.4C60,26.8,60,25.6,60,24.3v-0.2C60,24.1,75.3,24.1,75.3,24.1z M55.5,37.5v-0.7
	c-0.8-0.1-2-0.4-2.5-0.8c-0.9-0.9-1.1-1.6-1.1-5.6V9.7C52,5.8,52,2,52.2,0.2L52,0.1c-0.6,0.2-1.4,0.4-2.4,0.6
	c-2.1,0.4-4.4,0.5-5,0.5V2c0.6,0,2.1,0,2.8,1C47.9,3.7,48,5,48,8.2v20.6c0,4.4-0.1,5.9-0.9,6.9c-0.8,0.9-1.8,1-2.7,1.1v0.7
	c2.2-0.2,3.9-0.2,5.7-0.2C51.8,37.3,53.5,37.4,55.5,37.5 M36,34.1c-0.2,0.1-1.8,1.4-4.6,1.4c-4.1,0-4.4-2.9-4.4-4.2
	c0-1.5,0.5-3,2.4-3.9c1.1-0.5,3-0.7,6.5-0.9L36,34.1L36,34.1z M43.6,35.3l-0.5-0.5c-0.3,0.3-0.7,0.4-1.1,0.4c-2.1,0-2.1-1.8-2.1-3.3
	c0-1.7,0.2-6,0.2-9.5c0-2.5-0.1-4.6-1-6.1c-1.1-1.6-2.9-2.8-6.3-2.8c-4.9,0-7,3.1-7.5,4.8l0.7,0.4c0.1-0.1,1.5-2.9,5.1-2.9
	c2.2,0,4,0.8,4.7,2.9c0.3,1,0.3,2.8,0.3,4.3v2.3c-3,0-6.5,0.2-8.5,0.7c-4.2,1.2-4.5,4.4-4.5,5.7c0,1,0.1,6.1,6.5,6.1
	c3.7,0,5.9-2.2,6.6-3.2c0,1.2,0.5,3.1,3.1,3.1C41.5,37.7,42.7,36.4,43.6,35.3 M25.2,14.7V14c-1.4,0.1-2.9,0.2-4.3,0.2
	S18.1,14,16.7,14v0.7c0.5,0,1.6,0.2,2.1,0.7c0.3,0.3,0.5,0.6,0.5,1.1c0,0.7-0.3,1.5-0.8,2.9l-5.3,13.1c0,0-0.4-1.5-1.5-4.6l-3.3-8.6
	c-0.6-1.4-0.8-2.3-0.8-2.9c0-0.5,0.2-0.8,0.5-1.1c0.7-0.6,1.8-0.7,2.1-0.7V14c-1.4,0.1-3.4,0.2-4.8,0.2S1.9,14.1,0.5,14v0.7
	c1.6,0,2.1,1,2.4,1.5c0.3,0.5,0.8,1.8,1,2.3l7.7,19.4l1.6-0.3l8.6-19.1c0.2-0.4,0.8-1.8,1.1-2.3C22.8,16.1,23.5,14.7,25.2,14.7"/>
</svg>
