<?xml version="1.0" encoding="utf-8"?>
<!-- Generator: Adobe Illustrator 16.0.0, SVG Export Plug-In . SVG Version: 6.00 Build 0)  -->
<!DOCTYPE svg PUBLIC "-//W3C//DTD SVG 1.1//EN" "http://www.w3.org/Graphics/SVG/1.1/DTD/svg11.dtd">
<svg version="1.1" id="Capa_1" xmlns="http://www.w3.org/2000/svg" xmlns:xlink="http://www.w3.org/1999/xlink" x="0px" y="0px"
	 width="442.501px" height="427.248px" viewBox="76.414 207.304 442.501 427.248"
	 enable-background="new 76.414 207.304 442.501 427.248" xml:space="preserve">
<g>
	<path fill="#E75E0D" d="M297.64,300.649l35.568,67.564l10.069,19.148l21.281,3.969l70.343,13.096l-51.045,48.565l-17.958,17.114
		l5.06,24.307l14.287,68.904l-68.755-31.947l-18.851-8.78l-18.851,8.78l-68.655,31.997l14.286-68.904l5.061-24.307l-17.958-17.114
		l-51.045-48.565l70.342-13.096l21.281-3.968l10.07-19.148L297.64,300.649 M299.228,218.104h-3.175
		c-3.522,0.049-6.697,2.083-8.186,5.258l-65.282,124.017L85.572,372.926c-3.771,0.05-7.144,2.332-8.532,5.854
		c-1.34,3.522-0.496,7.491,2.232,10.07l101.396,96.485l-28.722,138.501c-0.596,3.473,0.893,6.945,3.77,8.979
		c1.142,0.794,2.382,1.29,3.671,1.538c0.546,0.099,1.092,0.148,1.687,0.148c1.488,0,3.026-0.348,4.415-1.092l132.152-61.562
		l132.202,61.611c1.389,0.744,2.877,1.092,4.415,1.092c0.545,0,1.141-0.05,1.687-0.149c1.289-0.248,2.529-0.744,3.671-1.537
		c2.877-2.034,4.315-5.507,3.77-8.979l-28.722-138.502l101.396-96.485c2.729-2.58,3.572-6.598,2.232-10.07
		c-1.389-3.522-4.762-5.804-8.532-5.854l-137.014-25.548l-65.282-124.017C305.974,220.187,302.749,218.153,299.228,218.104"/>
	<path fill="#E75E0D" d="M382.865,223.262c-0.596-9.375-8.632-16.519-18.008-15.923c-9.375,0.595-16.519,8.631-15.924,18.007
		c0.149,2.53,11.757,41.075,11.757,41.075c0.943,3.72,4.415,6.399,8.384,6.151s7.144-3.323,7.59-7.143h0.148
		C376.862,265.428,383.013,225.644,382.865,223.262"/>
	<path fill="#E75E0D" d="M436.49,239.285c3.571-8.681-0.546-18.603-9.178-22.174c-8.681-3.572-18.603,0.545-22.224,9.227
		c-0.992,2.332-7.392,42.066-7.392,42.066c-0.794,3.771,1.141,7.689,4.861,9.227c3.671,1.538,7.838,0.149,9.971-3.076l0.149,0.05
		C412.628,274.506,435.596,241.468,436.49,239.285"/>
	<path fill="#E75E0D" d="M478.06,277.979c7.044-6.201,7.688-16.965,1.438-24.01c-6.201-7.044-16.966-7.689-24.01-1.438
		c-1.885,1.687-25.102,34.576-25.102,34.576c-2.381,3.026-2.331,7.441,0.298,10.417c2.629,2.977,6.995,3.572,10.318,1.588l0.1,0.099
		C441.152,299.21,476.274,279.566,478.06,277.979"/>
	<path fill="#E75E0D" d="M499.241,331.008c9.028-2.53,14.336-11.856,11.807-20.934c-2.53-9.028-11.856-14.336-20.935-11.807
		c-2.431,0.695-37.701,20.041-37.701,20.041c-3.472,1.687-5.357,5.655-4.266,9.475c1.091,3.869,4.713,6.25,8.582,5.953l0.05,0.149
		C456.729,333.885,496.91,331.653,499.241,331.008"/>
</g>
</svg>
