<svg id="Capa_1" data-name="Capa 1" xmlns="http://www.w3.org/2000/svg" viewBox="0 0 95.07 93.43"><defs><style>.cls-1{fill:#fff;}</style></defs><title>Logo 20m 2016 ok</title><polygon class="cls-1" points="16.62 59.02 6.42 69.23 40.96 69.23 40.96 59.02 16.62 59.02"/><path class="cls-1" d="M17.78,94.8H21v1.69H21a4.74,4.74,0,0,1,3.95-2,4.39,4.39,0,0,1,4,2.07h0a5.24,5.24,0,0,1,4.3-2.07,4.55,4.55,0,0,1,4.87,4.9v9.32H34.86v-8.12c0-1.88-.65-3.19-2.53-3.19s-2.67,1.44-2.67,3.27v8H26.33v-8.06c0-1.77-.52-3.24-2.53-3.24-1.17,0-2.7.79-2.7,3.11v8.2H17.78Z" transform="translate(-17.28 -15.65)"/><path class="cls-1" d="M41.21,89.14h3.32v3.54H41.21Zm0,5.66h3.32v13.95H41.21Z" transform="translate(-17.28 -15.65)"/><path class="cls-1" d="M47.58,94.8h3.24v1.72h.05a4.7,4.7,0,0,1,4-2c3.13,0,4.87,2,4.87,5.28v8.93H56.38v-8.09c0-2.1-.9-3.21-2.59-3.21s-2.89,1.12-2.89,3.49v7.82H47.58Z" transform="translate(-17.28 -15.65)"/><path class="cls-1" d="M62.43,103.71V94.8h3.32v8.09c0,2.1.93,3.21,2.61,3.21s2.86-1.14,2.86-3.51V94.8h3.32v13.95H71.34V107h-.08a4.65,4.65,0,0,1-3.92,2c-3.13,0-4.9-2-4.9-5.31" transform="translate(-17.28 -15.65)"/><path class="cls-1" d="M77.9,105.45v-8H76V94.8H77.9V90.58h3.32V94.8h3v2.64h-3v7.22c0,1,.54,1.33,1.31,1.33a8.91,8.91,0,0,0,1.72-.14v2.83a12.45,12.45,0,0,1-2.45.27c-2.15,0-3.9-1-3.9-3.51" transform="translate(-17.28 -15.65)"/><path class="cls-1" d="M85.29,103.6v-3.19c0-3.79,3.21-5.86,6.29-5.86,3.38,0,6.4,2.23,6.4,5.8v2.86c0,3.79-3.21,5.86-6.29,5.86-3.38,0-6.4-1.91-6.4-5.47m9.31-.08v-3.46c0-1.69-1.31-2.67-3-2.67a2.66,2.66,0,0,0-2.91,2.75v3.43a2.73,2.73,0,0,0,3,2.7,2.66,2.66,0,0,0,2.92-2.75" transform="translate(-17.28 -15.65)"/><path class="cls-1" d="M99.45,106.35l2.34-1.77a4.76,4.76,0,0,0,3.84,1.82c1.36,0,2.75-.46,2.75-1.71,0-1.09-.74-1.34-2.62-1.66l-1.82-.33c-2.29-.41-3.81-1.53-3.81-3.62,0-2.91,2.56-4.58,5.53-4.58,2.51,0,4.3.63,5.47,2.29l-2.4,1.63a3.71,3.71,0,0,0-3.11-1.36c-1.31,0-2.26.49-2.26,1.55s1.2,1.12,2.64,1.39l2.1.41c2.37.46,3.73,1.8,3.73,3.89,0,3.21-3.3,4.74-6.16,4.74-2.51,0-4.85-.65-6.24-2.7" transform="translate(-17.28 -15.65)"/><path class="cls-1" d="M41.59,50.17,18.9,76.86v8h5.45L34.73,74.49h0l8.77-9.82c7.91-8.87,17.07-17.45,17.07-30.13,0-11-7.44-18.88-21.17-18.88-12.78,0-22.12,6.2-22.12,18.12v2.48H28.81V34.43c0-5.43,3.43-9,9.54-9,6.48,0,9.44,3.62,9.44,8.3v1.91c0,5.63-2.38,10-6.2,14.49" transform="translate(-17.28 -15.65)"/><path class="cls-1" d="M99.66,65.14C99.66,70.86,95.95,76,88.79,76s-11-5-11-10.78V36.63c0-6.1,4-10.87,11.06-10.87,4.41,0,7.52,1.83,9.23,4.62V17.12a30.45,30.45,0,0,0-9.23-1.37c-12.3,0-23.84,6.77-23.84,20.88V65.71C65.05,80.2,76.88,86,88.79,86s23.55-7,23.55-20.6V36.72c0-10-5.34-16.18-12.71-19.06" transform="translate(-17.28 -15.65)"/></svg>