<?xml version="1.0" encoding="utf-8"?>
<svg version="1.1" id="Capa_1" xmlns="http://www.w3.org/2000/svg" xmlns:xlink="http://www.w3.org/1999/xlink" x="0px" y="0px"
	 viewBox="0 0 348 49" style="enable-background:new 0 0 348 49;" xml:space="preserve">
<style type="text/css">
	.st0{fill:#004A7F;}
</style>
<g>
	<path d="M280,48c-0.2-0.1-0.5-0.2-0.7-0.2c-3-0.9-4.8-4-4.1-7c0.7-2.9,3.5-5,6.6-4.7c3.2,0.4,5.5,3,5.3,6.2
		c-0.1,2.5-1.8,4.7-4.1,5.4c-0.2,0.1-0.6,0.2-0.8,0.4L280,48z"/>
	<path class="st0" d="M43.4,17.3C40.5,8.6,32.7,3,24.2,2.3l-0.9,11c4.3,0.4,8.2,3.2,9.7,7.5c2,5.8-1.2,12.1-6.9,14.1
		c-5.8,2-12.1-1.2-14.1-6.9c-2-5.8,1.2-12.1,6.9-14.1L22,7.2l-6.7-3.8C3.6,7.4-2.6,19.8,1.4,31.5c4,11.5,16.5,17.7,28.1,13.9
		C41.1,41.4,47.3,28.8,43.4,17.3z"/>
	<g transform="translate(49.047)">
		<path d="M16.8,11.1c-10,0-16.7,7.1-16.7,17.1C0.1,39.2,6.2,46,19,46c5.7,0,9.8-1.3,12-2.5v-7.6l-0.5-0.2c-2.9,1.4-6,2.5-10.6,2.5
			c-5.8,0-8.9-2.1-9.7-7.1h21.4C33,17,26.6,11.1,16.8,11.1L16.8,11.1z M10.5,24.5c0.7-4.4,2.9-6.4,6.4-6.4s5.1,2.1,5.4,6.4H10.5z
			 M48.1,38c-1.4,0-2.1-0.8-2.1-2.5V2.3L35.6,2.5v35c0,6.3,3.6,8.3,9.2,8.3c2.3,0,4.3-0.5,5.4-0.9v-6.9l-0.3-0.2
			C49.3,37.8,48.9,38,48.1,38z M69.3,2.5H54v42.7h15.3c13.7,0,24.3-5.7,24.3-21.1C93.5,8.8,82.9,2.5,69.3,2.5z M68.7,36.6h-3V11.1h3
			c7.7,0,13,3.6,13,13C81.6,33.6,76.4,36.6,68.7,36.6z M97.5,11.9h10.4v33.4H97.5V11.9z M97.5,0.1h10.4v8.4H97.5V0.1z M134.6,14.9
			c-2.1-2.3-4.9-3.8-9-3.8c-8.2,0-14.2,6-14.2,17.7c0,11.4,5.6,17.1,13.9,17.1c4.6,0,7.6-1.8,9.9-4.8l0.9,4h8.5V11.9h-9.6
			L134.6,14.9z M134.3,35.9c-1.4,1.2-3.3,2-5.6,2c-3.9,0-6.7-2.8-6.7-9.1c0-6.5,2.6-10,6.9-10c2.3,0,4,0.7,5.5,1.9v15.3H134.3
			L134.3,35.9z M159.8,17.6l-0.7-5.7h-9.1v33.4h10.4V24c2-2.1,4.3-2.7,8.2-2.7c1.1,0,2.1,0.1,2.9,0.4l0.4-0.2v-9.8
			c-0.7-0.1-1.6-0.2-2.7-0.2C164.7,11.3,161.5,14.5,159.8,17.6z M174.8,0.1h10.4v8.4h-10.4V0.1z M174.8,11.9h10.4v33.4h-10.4V11.9z
			 M206.5,11.1c-10.2,0-17.9,6.5-17.9,17.4S196.2,46,206.5,46c10.2,0,17.9-6.7,17.9-17.5S216.6,11.1,206.5,11.1z M206.5,38.4
			c-4.3,0-7.2-3.3-7.2-9.9s2.9-9.9,7.2-9.9c4.3,0,7.2,3.3,7.2,9.9C213.7,35.2,210.9,38.4,206.5,38.4z M256.7,11.1
			c-10,0-16.7,7.1-16.7,17.1c0,11,6.1,17.7,18.9,17.7c5.7,0,9.8-1.3,12-2.5v-7.6l-0.5-0.2c-2.9,1.4-6,2.5-10.6,2.5
			c-5.8,0-8.9-2.1-9.7-7.1h21.4C272.9,17,266.5,11.1,256.7,11.1L256.7,11.1z M250.4,24.5c0.7-4.4,2.9-6.4,6.4-6.4s5.1,2.1,5.4,6.4
			H250.4z M288.9,24.4l-2.9-0.7c-2.2-0.6-3.2-1.2-3.2-2.7s0.9-2.6,4.1-2.6c3.9,0,7.2,0.9,9.6,2.2l0.4-0.2v-7.6
			c-2.6-1.1-5.8-1.9-10.3-1.9c-8.2,0-13.1,4.3-13.1,10.8c0,5.8,3.6,8.9,8.9,10.1l2.9,0.7c2.9,0.7,3.9,1.2,3.9,2.8
			c0,1.8-1.5,2.8-4.8,2.8c-4,0-7.7-1.3-10.4-3.4l-0.4,0.2v7.8c2.7,1.6,6,2.8,11.7,2.8c8.4,0,13.7-4.2,13.7-11.5
			C299,28.2,295.7,26,288.9,24.4L288.9,24.4z"/>
		<ellipse transform="matrix(0.9732 -0.2298 0.2298 0.9732 -3.3407 54.352)" cx="231.7" cy="41.5" rx="6" ry="6"/>
	</g>
</g>
</svg>
