<?xml version="1.0" encoding="utf-8"?>
<!-- Generator: Adobe Illustrator 23.0.3, SVG Export Plug-In . SVG Version: 6.00 Build 0)  -->
<svg version="1.1" id="Layer_1" xmlns="http://www.w3.org/2000/svg" xmlns:xlink="http://www.w3.org/1999/xlink" x="0px" y="0px"
	 viewBox="0 0 339.9 49.2" style="enable-background:new 0 0 339.9 49.2;" xml:space="preserve">
<style type="text/css">
	.st0{fill:#CA0303;}
</style>
<title>logo-europapress</title>
<path d="M18.7,29.3l7.5,1.3c-0.8,2.5-2.4,4.7-4.6,6.3c-2.3,1.5-5,2.3-7.8,2.2c-4.9,0-8.6-1.6-11-4.8c-2-2.9-2.9-6.3-2.8-9.8
	c0-4.7,1.2-8.4,3.7-11.1c2.4-2.6,5.8-4.1,9.3-4c3.8-0.2,7.5,1.4,10,4.2c2.4,2.8,3.6,7.1,3.5,12.8H7.7c-0.1,1.9,0.6,3.8,1.8,5.2
	c1.1,1.2,2.7,1.9,4.3,1.9c1.1,0,2.1-0.3,3-1C17.7,31.6,18.4,30.5,18.7,29.3z M19.1,21.7c0.1-1.8-0.5-3.6-1.7-5
	c-2.1-2.2-5.5-2.3-7.7-0.2c-0.1,0.1-0.2,0.2-0.3,0.3c-1.1,1.4-1.7,3.1-1.6,4.9H19.1L19.1,21.7z"/>
<path d="M51.4,38.4v-4.3c-1,1.5-2.4,2.8-4.1,3.6C45.7,38.6,43.8,39,42,39c-1.8,0-3.6-0.4-5.1-1.3c-1.5-0.8-2.6-2-3.3-3.5
	c-0.8-2-1.1-4.1-1-6.3v-18H40V23c-0.1,2.5,0,4.9,0.4,7.3c0.2,0.9,0.8,1.6,1.5,2.1c0.8,0.6,1.8,0.8,2.8,0.8c1.2,0,2.4-0.4,3.5-1.1
	c1-0.6,1.7-1.5,2.1-2.6c0.4-1,0.6-3.6,0.6-7.7v-12h7.5v28.4H51.4L51.4,38.4z"/>
<path d="M73.4,38.4h-7.5V9.9h7v4c0.8-1.5,1.9-2.8,3.2-3.8c1-0.6,2.1-0.9,3.3-0.9c1.7,0,3.5,0.5,5,1.4l-2.3,6.6
	c-1-0.7-2.3-1.2-3.5-1.2c-1,0-1.9,0.3-2.7,0.9c-0.9,0.8-1.5,1.9-1.7,3.1c-0.4,1.5-0.6,4.7-0.6,9.5L73.4,38.4L73.4,38.4z"/>
<path d="M85.8,23.8c0-2.5,0.6-5,1.8-7.3c1.2-2.3,3-4.1,5.2-5.4c2.3-1.2,4.9-1.9,7.6-1.8c4-0.1,7.8,1.4,10.6,4.2
	c2.8,2.8,4.2,6.6,4.1,10.6c0.1,4-1.4,7.8-4.2,10.7c-2.7,2.8-6.5,4.4-10.5,4.2c-2.6,0-5.1-0.6-7.5-1.8c-2.3-1.1-4.2-2.9-5.4-5.2
	C86.3,29.5,85.7,26.6,85.8,23.8z M93.5,24.2c0,2.8,0.7,5,2,6.5c2.4,2.7,6.5,3,9.3,0.6c0.2-0.2,0.4-0.4,0.6-0.6c1.3-1.5,2-3.7,2-6.5
	c0.2-2.3-0.6-4.6-2-6.4c-2.4-2.7-6.5-3-9.3-0.6c-0.2,0.2-0.4,0.4-0.6,0.6C94.1,19.2,93.5,21.3,93.5,24.2z"/>
<path d="M120.8,9.9h7v4.2c0.9-1.4,2.2-2.6,3.7-3.5c1.6-0.9,3.4-1.4,5.2-1.3c3.2,0,6.3,1.4,8.4,3.9c2.3,2.6,3.5,6.2,3.5,10.8
	c0,4.7-1.2,8.4-3.5,11.1c-2.1,2.5-5.2,4-8.4,3.9c-1.5,0-2.9-0.3-4.3-0.9c-1.5-0.8-2.9-1.9-4-3.2v14.3h-7.5V9.9z M128.2,23.7
	c0,3.2,0.6,5.6,1.9,7.1c1.1,1.4,2.8,2.3,4.6,2.3c1.7,0,3.3-0.8,4.4-2.1c1.2-1.4,1.7-3.7,1.7-6.9c0-3-0.6-5.2-1.8-6.6
	c-1.1-1.4-2.7-2.2-4.4-2.2c-1.8,0-3.5,0.8-4.6,2.1C128.8,18.8,128.2,20.9,128.2,23.7z"/>
<path d="M160.1,18.6l-6.8-1.2c0.6-2.4,2-4.6,4-6.1c1.9-1.3,4.7-2,8.4-2c3.4,0,5.9,0.4,7.5,1.2c1.4,0.6,2.7,1.7,3.5,3
	c0.7,1.2,1,3.5,1,6.7l-0.1,8.8c0,1.8,0.1,3.7,0.4,5.5c0.3,1.3,0.7,2.6,1.4,3.8h-7.4c-0.2-0.5-0.4-1.2-0.7-2.2
	c-0.1-0.4-0.2-0.7-0.3-0.9c-1.2,1.2-2.6,2.1-4.1,2.8c-1.5,0.6-3.1,0.9-4.7,0.9c-2.5,0.1-5-0.7-6.9-2.4c-1.7-1.6-2.6-3.7-2.5-6
	c0-1.5,0.4-3,1.2-4.3c0.8-1.3,1.9-2.3,3.2-2.9c1.9-0.8,3.9-1.4,6-1.8c2.5-0.4,4.9-1,7.3-1.8v-0.7c0.1-1.1-0.3-2.3-1.1-3.1
	c-0.7-0.6-2.1-0.9-4-0.9c-1.1-0.1-2.2,0.2-3.1,0.8C161,16.6,160.4,17.5,160.1,18.6z M170.1,24.7c-1.5,0.5-3,0.8-4.6,1.2
	c-1.4,0.2-2.8,0.7-4.1,1.3c-0.9,0.6-1.5,1.6-1.5,2.6c0,1,0.4,2,1.2,2.7c0.8,0.8,1.9,1.2,3,1.2c1.4,0,2.8-0.5,3.9-1.3
	c0.9-0.6,1.5-1.5,1.8-2.5c0.2-1.2,0.3-2.4,0.3-3.7L170.1,24.7L170.1,24.7z"/>
<path class="st0" d="M200,9.9h7v4.2c0.9-1.4,2.2-2.6,3.7-3.5c1.6-0.9,3.4-1.4,5.2-1.3c3.2,0,6.3,1.4,8.4,3.9
	c2.3,2.6,3.5,6.2,3.5,10.8c0,4.7-1.2,8.4-3.5,11.1c-2.1,2.5-5.2,4-8.4,3.9c-1.5,0-2.9-0.3-4.3-0.9c-1.5-0.8-2.9-1.9-4-3.2v14.3H200
	L200,9.9L200,9.9z M207.4,23.7c0,3.2,0.6,5.6,1.9,7.1c1.1,1.4,2.8,2.3,4.6,2.3c1.7,0,3.3-0.8,4.4-2.1c1.2-1.4,1.7-3.7,1.7-6.9
	c0-3-0.6-5.2-1.8-6.6c-1.1-1.4-2.7-2.2-4.4-2.2c-1.8,0-3.5,0.8-4.6,2.1C208,18.8,207.4,20.9,207.4,23.7z"/>
<path class="st0" d="M240.9,38.4h-7.5V9.9h7v4c0.8-1.5,1.9-2.8,3.2-3.8c1-0.6,2.1-0.9,3.3-0.9c1.7,0,3.5,0.5,5,1.4l-2.3,6.6
	c-1-0.7-2.3-1.2-3.5-1.2c-1,0-1.9,0.3-2.7,0.9c-0.9,0.8-1.5,1.9-1.7,3.1c-0.4,1.5-0.6,4.7-0.6,9.5L240.9,38.4L240.9,38.4z"/>
<path class="st0" d="M271.5,29.3l7.5,1.3c-0.8,2.5-2.4,4.7-4.6,6.3c-2.3,1.5-5,2.3-7.8,2.2c-4.9,0-8.6-1.6-11-4.8
	c-2-2.9-2.9-6.3-2.8-9.8c0-4.7,1.2-8.4,3.7-11.1c2.4-2.6,5.8-4.1,9.3-4c3.8-0.2,7.5,1.4,10,4.2c2.4,2.8,3.6,7.1,3.5,12.8h-18.8
	c-0.1,1.9,0.6,3.8,1.8,5.2c1.1,1.2,2.7,1.9,4.3,1.9c1.1,0,2.1-0.3,3-1C270.5,31.6,271.2,30.5,271.5,29.3z M271.9,21.7
	c0.1-1.8-0.5-3.6-1.7-5c-2.1-2.2-5.5-2.3-7.7-0.2c-0.1,0.1-0.2,0.2-0.3,0.3c-1.1,1.4-1.7,3.1-1.6,4.9H271.9z"/>
<path class="st0" d="M282.8,30.3l7.5-1.2c0.2,1.3,0.9,2.5,2,3.3c1.2,0.8,2.7,1.2,4.1,1.1c1.5,0.1,3.1-0.3,4.4-1.1c0.6-0.5,1-1.2,1-2
	c0-0.5-0.2-1-0.5-1.4c-0.8-0.5-1.6-0.9-2.5-1c-6.1-1.3-9.9-2.6-11.5-3.7c-2.2-1.4-3.5-3.8-3.4-6.4c0-2.4,1-4.7,2.9-6.2
	c1.9-1.7,5-2.5,9-2.5c3.9,0,6.8,0.6,8.7,1.9c1.9,1.3,3.3,3.3,3.9,5.6l-7.1,1.3c-0.2-1-0.9-1.9-1.7-2.5c-1.1-0.7-2.4-1-3.6-0.9
	c-1.5-0.1-2.9,0.2-4.3,0.8c-0.5,0.3-0.9,0.9-0.9,1.5c0,0.6,0.3,1.1,0.7,1.4c0.7,0.5,3,1.2,7,2.1c4,0.9,6.8,2,8.4,3.3
	c1.6,1.4,2.5,3.5,2.4,5.6c0,2.6-1.2,5.1-3.3,6.7c-2.2,1.9-5.4,2.8-9.7,2.8c-3.9,0-6.9-0.8-9.2-2.4C285,35.1,283.5,32.9,282.8,30.3z"
	/>
<path class="st0" d="M313.3,30.3l7.5-1.2c0.2,1.3,0.9,2.5,2,3.3c1.2,0.8,2.7,1.2,4.1,1.1c1.5,0.1,3.1-0.3,4.4-1.1c0.6-0.5,1-1.2,1-2
	c0-0.5-0.2-1-0.5-1.4c-0.8-0.5-1.6-0.9-2.5-1c-6.1-1.3-9.9-2.6-11.5-3.7c-2.2-1.4-3.5-3.8-3.4-6.4c0-2.4,1-4.7,2.9-6.2
	c1.9-1.7,5-2.5,9-2.5c3.9,0,6.8,0.6,8.7,1.9c1.9,1.3,3.3,3.3,3.9,5.6l-7.1,1.3c-0.2-1-0.9-1.9-1.7-2.5c-1.1-0.7-2.4-1-3.6-0.9
	c-1.5-0.1-2.9,0.2-4.3,0.8c-0.5,0.3-0.9,0.9-0.9,1.5c0,0.6,0.3,1.1,0.7,1.4c0.7,0.5,3,1.2,7,2.1c4,0.9,6.8,2,8.4,3.3
	c1.6,1.4,2.5,3.5,2.4,5.6c0,2.6-1.2,5.1-3.3,6.7c-2.2,1.9-5.4,2.8-9.7,2.8c-3.9,0-6.9-0.8-9.2-2.4C315.5,35.1,313.9,32.9,313.3,30.3
	z"/>
</svg>
