<svg width="582" height="74" viewBox="0 0 582 74" xmlns="http://www.w3.org/2000/svg" xmlns:xlink="http://www.w3.org/1999/xlink"><title>diarilaveu</title><defs><path id="a" d="M0 73.948h581.567V0H0z"/></defs><g fill="none" fill-rule="evenodd"><path d="M16.445 58.573c13.128 0 22.145-8.856 22.145-21.927 0-12.562-9.017-21.204-22.145-21.204H3.389v43.131h13.056zm0-46.253c15.22 0 25.608 9.875 25.608 24.326 0 14.885-10.387 25.05-25.608 25.05H0V12.32h16.445z" fill="#000"/><mask id="b" fill="#fff"><use xlink:href="#a"/></mask><path fill="#000" mask="url(#b)" d="M58.857 61.696h3.39V12.32h-3.39zm42.051-45.746L88.933 42.528h24.021l-12.046-26.576zm-13.344 29.7L80.28 61.697h-3.61l22.65-49.74h3.246l22.65 49.74h-3.608l-7.285-16.048h-26.76zm69.388-5.81c8.945 0 15.147-4.503 15.147-12.2 0-7.696-6.202-12.197-15.147-12.197h-13.921v24.396h13.921zm-13.921 3.122v18.734h-3.39V12.321h17.383c10.965 0 18.467 5.736 18.467 15.32 0 8.35-5.7 13.796-14.5 15.03l16.23 19.025h-4.327l-16.013-18.734h-13.85zm48.542 18.734h3.39V12.32h-3.39zm311.219-30.405h20.11v11.712h-20.11v6.434h23.484v12.218h-37.92v-49.16h37.92v12.217h-23.484zm78.775 6.579c0 16.122-8.762 24.87-23.557 24.87-14.796 0-23.556-8.748-23.556-24.87V12.494h14.65v25.882c0 6.724 3.376 10.772 8.906 10.772 5.53 0 8.905-4.048 8.905-10.772V12.494h14.652V37.87z"/><path d="M300.512 5.038c-6.672-6.716-17.489-6.716-24.16 0l-20.135 20.269 24.16 24.321c-4.448-4.478-4.448-11.736 0-16.215a11.337 11.337 0 0 1 16.108 0l4.027-4.053c6.672-6.716 6.672-17.605 0-24.322" fill="#FF0026" mask="url(#b)"/><path d="M288.431 41.521l-8.05-8.104a11.337 11.337 0 0 0-16.108 0v.001l-7.53-7.58c-.003-.002-.005-.007-.007-.01l-20.653-20.79c-6.673-6.717-17.49-6.717-24.16 0h-.001c-5.284 5.318-6.366 13.248-3.282 19.655 4.476-3.8 11.144-3.63 15.36.614 4.448 4.477 4.448 11.735.003 16.213a11.337 11.337 0 0 1 16.106.001c4.447 4.479 4.447 11.737 0 16.215l16.106 16.212 32.216-32.427" fill="#AF0D2F" mask="url(#b)"/><path fill="#000" mask="url(#b)" d="M465.76 12.494l-12.023 30.148-11.95-30.148h-16.01l20.204 49.162h15.513L481.7 12.494zm-148.394.019h13.431v37.292h23.475v11.848h-36.906zm75.944 29.833l-5.401-13.8-5.47 13.8h10.871zm-11.77-29.832h12.947l20.632 49.14h-14.402l-3.462-8.783h-18.764l-3.462 8.783h-14.055l20.565-49.14z"/></g></svg>