<?xml version="1.0" encoding="utf-8"?>
<!-- Generator: Adobe Illustrator 23.0.3, SVG Export Plug-In . SVG Version: 6.00 Build 0)  -->
<svg version="1.1" id="Layer_1" xmlns="http://www.w3.org/2000/svg" xmlns:xlink="http://www.w3.org/1999/xlink" x="0px" y="0px"
	 viewBox="0 0 1125.1 146.8" style="enable-background:new 0 0 1125.1 146.8;" xml:space="preserve">
<style type="text/css">
	.st0{fill:#146f9C;}
</style>
<g>
	<path class="st0" d="M0,118.9v-6.2h4.9c0.9,0,1.7-0.1,2.4-0.2c0.7-0.2,1.3-0.5,1.9-1.1c0.5-0.5,0.9-1.3,1.2-2.3s0.4-2.3,0.4-4V49.9
		c0-1.7-0.1-3-0.4-4c-0.3-1-0.7-1.7-1.2-2.3c-0.5-0.5-1.2-0.9-1.9-1c-0.7-0.2-1.5-0.3-2.4-0.3H0v-6.1h40v6.1h-4.9
		c-0.8,0-1.5,0.1-2.3,0.2c-0.7,0.2-1.4,0.5-1.9,1c-0.5,0.5-1,1.2-1.3,2.1s-0.5,2.2-0.5,3.7v62.4h21.5c2.7,0,4.8-0.9,6.3-2.6
		c1.5-1.7,2.6-4.2,3.3-7.5l1.9-8.7h6.5l-0.8,25.8H0z"/>
	<path class="st0" d="M97.7,91.7l-3.3,9.9c-0.3,0.9-0.6,2-0.9,3.3c-0.3,1.3-0.5,2.4-0.5,3.3c0,0.8,0.2,1.4,0.4,2s0.7,1,1.2,1.4
		c0.5,0.4,1.1,0.6,1.7,0.8c0.6,0.2,1.3,0.3,1.9,0.3h4.9v6.2H72.9v-6.2h1.4c1,0,1.9-0.1,2.8-0.3c0.8-0.2,1.6-0.7,2.4-1.3
		c0.7-0.6,1.4-1.5,2.1-2.6c0.7-1.1,1.3-2.5,2-4.2l25.1-68.1h15.9l24.2,68.2c0.6,1.6,1.2,3,1.8,4s1.3,1.9,2,2.5
		c0.7,0.6,1.5,1.1,2.4,1.3s1.7,0.4,2.6,0.4h2.1v6.2h-38.2v-6.2h4.5c0.6,0,1.2-0.1,1.8-0.2c0.6-0.2,1.1-0.4,1.6-0.8s0.9-0.8,1.2-1.4
		c0.3-0.6,0.4-1.2,0.4-2c0-0.9-0.1-1.8-0.3-2.7c-0.2-0.9-0.4-1.6-0.7-2.3l-4.1-11.6L97.7,91.7L97.7,91.7z M117.4,65.7
		c-0.4-1.3-0.8-2.7-1.3-4.2c-0.4-1.4-0.9-2.9-1.3-4.4s-0.8-3-1.2-4.5c-0.4-1.5-0.7-2.9-1.1-4.3c-0.3,1.2-0.7,2.4-1.2,3.8
		c-0.4,1.4-0.9,2.8-1.4,4.3s-1,2.9-1.5,4.4s-1,2.9-1.4,4.2l-6.8,19.6h23.4L117.4,65.7z"/>
	<path class="st0" d="M259.6,118.9v-6.2h1.1c1.2,0,2.3-0.1,3.2-0.2s1.7-0.4,2.3-0.9c0.6-0.4,1-1.1,1.4-1.9c0.3-0.8,0.5-2,0.5-3.4
		V47.7l-23.4,71.2h-7.9l-24.5-71.2v57.6c0,1.7,0.2,3,0.6,4c0.4,1,1,1.7,1.7,2.3c0.7,0.5,1.6,0.9,2.7,1.1c1.1,0.2,2.3,0.2,3.6,0.2
		h0.7v6.2h-28.7v-6.2h4.9c0.8,0,1.6-0.1,2.3-0.2c0.7-0.2,1.4-0.5,1.9-0.9c0.6-0.5,1-1.2,1.3-2.1s0.4-2.1,0.4-3.7V49.5
		c0-1.5-0.1-2.8-0.4-3.7s-0.7-1.6-1.3-2.1c-0.6-0.5-1.2-0.8-1.9-1c-0.7-0.2-1.5-0.2-2.3-0.2h-4.9v-6.1h33.3l19.2,55.9l18.4-55.9
		h32.7v6.1h-4.9c-0.8,0-1.6,0.1-2.3,0.2c-0.7,0.2-1.3,0.5-1.9,1c-0.5,0.5-0.9,1.3-1.2,2.3s-0.5,2.3-0.5,4v55.3c0,1.7,0.1,3,0.5,4
		c0.3,1,0.7,1.7,1.2,2.3s1.1,0.9,1.9,1.1s1.5,0.2,2.3,0.2h4.9v6.2H259.6z"/>
	<path class="st0" d="M325.1,91.7l-3.3,9.9c-0.3,0.9-0.6,2-0.9,3.3c-0.3,1.3-0.5,2.4-0.5,3.3c0,0.8,0.1,1.4,0.5,2s0.7,1,1.2,1.4
		c0.5,0.4,1,0.6,1.7,0.8c0.6,0.2,1.3,0.3,2,0.3h4.9v6.2h-30.1v-6.2h1.4c1,0,2-0.1,2.8-0.3c0.9-0.2,1.6-0.7,2.4-1.3
		c0.7-0.6,1.4-1.5,2.1-2.6s1.3-2.5,2-4.2l25.1-68.1h15.9l24.2,68.2c0.6,1.6,1.2,3,1.8,4s1.3,1.9,2,2.5c0.7,0.6,1.5,1.1,2.4,1.3
		c0.8,0.3,1.7,0.4,2.6,0.4h2.1v6.2h-38.2v-6.2h4.5c0.6,0,1.1-0.1,1.8-0.2s1.1-0.4,1.6-0.8c0.5-0.4,0.9-0.8,1.2-1.4
		c0.3-0.6,0.5-1.2,0.5-2c0-0.9-0.1-1.8-0.3-2.7c-0.2-0.9-0.5-1.6-0.7-2.3l-4.1-11.6L325.1,91.7L325.1,91.7z M344.9,65.7
		c-0.4-1.3-0.8-2.7-1.3-4.2c-0.4-1.4-0.9-2.9-1.3-4.4s-0.9-3-1.2-4.5c-0.4-1.5-0.7-2.9-1-4.3c-0.3,1.2-0.7,2.4-1.2,3.8
		c-0.5,1.4-0.9,2.8-1.4,4.3s-1,2.9-1.5,4.4s-1,2.9-1.4,4.2l-6.8,19.6H351L344.9,65.7z"/>
	<path class="st0" d="M390.3,112.8h4.9c0.8,0,1.5-0.1,2.3-0.2c0.7-0.2,1.4-0.5,1.9-0.9c0.5-0.5,1-1.2,1.3-2.1
		c0.3-0.9,0.5-2.1,0.5-3.7V49.5c0-1.5-0.2-2.8-0.5-3.7s-0.8-1.6-1.3-2.1c-0.5-0.5-1.2-0.8-1.9-1c-0.7-0.2-1.5-0.2-2.3-0.2h-4.9v-6.1
		h37.3c10.9,0,19,1.8,24,5.5c5.1,3.7,7.7,9,7.7,15.9c0,3-0.5,5.8-1.4,8.1c-0.9,2.4-2.1,4.4-3.6,6.2s-3.2,3.3-5.1,4.5
		c-1.9,1.2-3.8,2.2-5.8,3l13.8,23.7c1,1.7,1.9,3.1,2.9,4.3c0.9,1.2,1.9,2.2,2.8,2.9c0.9,0.8,1.9,1.3,2.9,1.7s2,0.5,3.1,0.5h0.5v6.2
		h-3.8c-3.5,0-6.5-0.1-9.1-0.4s-4.8-0.8-6.8-1.6c-1.9-0.8-3.6-1.8-5-3.2c-1.4-1.4-2.7-3.1-3.9-5.3L427.1,83h-7.7v22.8
		c0,1.5,0.2,2.7,0.5,3.7c0.3,0.9,0.8,1.6,1.3,2.1c0.5,0.5,1.2,0.8,1.9,0.9c0.7,0.2,1.5,0.2,2.3,0.2h5v6.2h-40L390.3,112.8
		L390.3,112.8z M419.4,76.3h6.5c2.7,0,4.9-0.4,6.7-1.1s3.2-1.8,4.3-3.2c1.1-1.4,1.9-3.2,2.3-5.3c0.5-2.1,0.7-4.6,0.7-7.4
		c0-2.9-0.3-5.4-0.8-7.5c-0.5-2-1.4-3.7-2.5-5s-2.6-2.2-4.4-2.8c-1.8-0.6-4-0.9-6.6-0.9h-6.3L419.4,76.3L419.4,76.3z"/>
	<path class="st0" d="M472.2,118.9v-6.2h4.9c0.9,0,1.7-0.1,2.4-0.2c0.7-0.2,1.3-0.5,1.9-1.1c0.5-0.5,0.9-1.3,1.2-2.3s0.5-2.3,0.5-4
		V50c0-1.7-0.1-3-0.5-4c-0.3-1-0.7-1.7-1.2-2.3c-0.5-0.5-1.1-0.9-1.9-1c-0.7-0.2-1.5-0.2-2.4-0.2h-4.9v-6.2h40v6.2h-4.9
		c-0.8,0-1.6,0.1-2.4,0.2c-0.7,0.2-1.4,0.5-1.9,1c-0.5,0.5-0.9,1.3-1.2,2.3c-0.3,1-0.5,2.3-0.5,4v55.3c0,1.7,0.1,3,0.5,4
		c0.3,1,0.7,1.7,1.2,2.3c0.5,0.5,1.2,0.9,1.9,1.1c0.7,0.2,1.5,0.2,2.4,0.2h4.9v6.2L472.2,118.9L472.2,118.9z"/>
	<path class="st0" d="M583.2,118.9L538,55.2v50.1c0,1.7,0.2,3,0.5,4c0.3,1,0.7,1.7,1.3,2.3s1.2,0.9,1.9,1.1c0.7,0.2,1.5,0.2,2.3,0.2
		h4.9v6.2h-30.2v-6.2h4.9c0.8,0,1.6-0.1,2.3-0.2c0.7-0.2,1.3-0.5,1.9-1.1c0.5-0.5,1-1.3,1.3-2.3c0.3-1,0.5-2.3,0.5-4V49.5
		c0-1.5-0.2-2.8-0.5-3.7s-0.8-1.6-1.3-2.1c-0.5-0.5-1.2-0.8-1.9-1c-0.7-0.2-1.5-0.2-2.3-0.2h-4.9v-6.1h25.7l40.9,57.8V49.5
		c0-1.5-0.2-2.8-0.5-3.7c-0.3-0.9-0.8-1.6-1.3-2.1s-1.2-0.8-1.9-1c-0.7-0.2-1.5-0.2-2.3-0.2h-4.9v-6.1h30.2v6.1h-4.9
		c-0.8,0-1.5,0.1-2.3,0.2c-0.7,0.2-1.3,0.5-1.9,1c-0.5,0.5-1,1.3-1.3,2.3c-0.3,1-0.5,2.3-0.5,4v69
		C593.9,118.9,583.2,118.9,583.2,118.9z"/>
	<path class="st0" d="M631.8,91.7l-3.3,9.9c-0.3,0.9-0.6,2-0.9,3.3c-0.3,1.3-0.5,2.4-0.5,3.3c0,0.8,0.2,1.4,0.5,2s0.7,1,1.2,1.4
		c0.5,0.4,1,0.6,1.7,0.8s1.3,0.3,2,0.3h4.9v6.2H607v-6.2h1.4c1,0,2-0.1,2.8-0.3c0.8-0.2,1.6-0.7,2.4-1.3c0.7-0.6,1.4-1.5,2.1-2.6
		c0.7-1.1,1.3-2.5,2-4.2l25.1-68.1h15.9l24.2,68.2c0.6,1.6,1.2,3,1.8,4c0.6,1.1,1.3,1.9,2,2.5c0.7,0.6,1.5,1.1,2.3,1.3
		c0.8,0.3,1.7,0.4,2.6,0.4h2.1v6.2h-38.2v-6.2h4.5c0.6,0,1.2-0.1,1.8-0.2s1.1-0.4,1.6-0.8s0.9-0.8,1.2-1.4c0.3-0.6,0.5-1.2,0.5-2
		c0-0.9-0.1-1.8-0.3-2.7c-0.2-0.9-0.5-1.6-0.7-2.3l-4.1-11.6L631.8,91.7L631.8,91.7z M651.5,65.7c-0.4-1.3-0.8-2.7-1.3-4.2
		c-0.4-1.4-0.9-2.9-1.3-4.4s-0.8-3-1.2-4.5c-0.4-1.5-0.7-2.9-1-4.3c-0.3,1.2-0.7,2.4-1.2,3.8c-0.5,1.4-0.9,2.8-1.4,4.3
		s-1,2.9-1.5,4.4s-1,2.9-1.4,4.2l-6.8,19.6h23.4L651.5,65.7z"/>
	<path class="st0" d="M794.2,60.8c0,3.5-0.6,6.8-1.8,10s-3.2,6-5.9,8.5c-2.7,2.5-6.2,4.4-10.6,5.9s-9.6,2.2-15.9,2.2h-4v18.5
		c0,1.5,0.2,2.7,0.5,3.7c0.3,0.9,0.8,1.6,1.4,2.1c0.6,0.5,1.2,0.8,2,0.9c0.8,0.2,1.5,0.2,2.3,0.2h7.1v6.2h-42.3v-6.2h4.9
		c0.9,0,1.7-0.1,2.4-0.2c0.7-0.2,1.3-0.5,1.9-1.1c0.5-0.5,0.9-1.3,1.2-2.3s0.5-2.3,0.5-4V49.5c0-1.5-0.2-2.8-0.5-3.7
		s-0.7-1.6-1.3-2.1c-0.5-0.5-1.2-0.8-1.9-1c-0.7-0.2-1.5-0.2-2.3-0.2h-4.9v-6.1h35.6c5.3,0,10,0.6,14,1.7c4,1.1,7.2,2.8,9.9,4.9
		c2.6,2.1,4.6,4.7,5.8,7.7S794.2,57,794.2,60.8z M756.1,80.6h2.8c2.9,0,5.3-0.4,7.3-1.1s3.6-1.8,4.9-3.4s2.2-3.5,2.8-6
		s0.9-5.4,0.9-8.9c0-3.1-0.2-5.8-0.8-8.1s-1.3-4.2-2.4-5.7c-1.1-1.5-2.6-2.6-4.3-3.3c-1.8-0.7-4-1.1-6.6-1.1h-4.5L756.1,80.6
		L756.1,80.6z"/>
	<path class="st0" d="M800.9,118.9v-6.2h4.9c0.9,0,1.7-0.1,2.4-0.2c0.7-0.2,1.3-0.5,1.9-1.1c0.5-0.5,0.9-1.3,1.2-2.3s0.5-2.3,0.5-4
		V49.9c0-1.7-0.2-3-0.5-4c-0.3-1-0.7-1.7-1.2-2.3c-0.5-0.5-1.2-0.9-1.9-1c-0.7-0.2-1.5-0.2-2.4-0.2h-4.9v-6.1h40v6.1h-4.9
		c-0.8,0-1.5,0.1-2.3,0.2c-0.7,0.2-1.4,0.5-1.9,1c-0.5,0.5-1,1.2-1.3,2.1s-0.5,2.2-0.5,3.7v62.4h21.5c2.7,0,4.8-0.9,6.3-2.6
		s2.6-4.2,3.3-7.5l1.9-8.7h6.5l-0.8,25.8H800.9z"/>
	<path class="st0" d="M898.6,91.7l-3.3,9.9c-0.3,0.9-0.6,2-0.9,3.3c-0.3,1.3-0.5,2.4-0.5,3.3c0,0.8,0.2,1.4,0.5,2s0.7,1,1.2,1.4
		c0.5,0.4,1,0.6,1.7,0.8s1.3,0.3,2,0.3h4.9v6.2h-30.1v-6.2h1.4c1,0,2-0.1,2.8-0.3c0.8-0.2,1.6-0.7,2.4-1.3c0.7-0.6,1.4-1.5,2.1-2.6
		c0.7-1.1,1.3-2.5,2-4.2l25.1-68.1h15.9l24.2,68.2c0.6,1.6,1.2,3,1.8,4c0.6,1.1,1.3,1.9,2,2.5c0.7,0.6,1.5,1.1,2.3,1.3
		c0.8,0.3,1.7,0.4,2.6,0.4h2.1v6.2h-38.2v-6.2h4.5c0.6,0,1.2-0.1,1.8-0.2s1.1-0.4,1.6-0.8s0.9-0.8,1.2-1.4c0.3-0.6,0.5-1.2,0.5-2
		c0-0.9-0.1-1.8-0.3-2.7c-0.2-0.9-0.5-1.6-0.7-2.3l-4.1-11.6L898.6,91.7L898.6,91.7z M918.3,65.7c-0.4-1.3-0.8-2.7-1.3-4.2
		c-0.4-1.4-0.9-2.9-1.3-4.4s-0.8-3-1.2-4.5c-0.4-1.5-0.7-2.9-1-4.3c-0.3,1.2-0.7,2.4-1.2,3.8c-0.5,1.4-0.9,2.8-1.4,4.3
		s-1,2.9-1.5,4.4s-1,2.9-1.4,4.2L901,84.7h23.4L918.3,65.7z"/>
	<path class="st0" d="M1009.8,110.9c2.8,0,5.3-0.3,7.5-1c2.2-0.7,4.2-1.5,5.9-2.6c1.7-1.1,3.2-2.2,4.6-3.6s2.4-2.6,3.4-3.9
		c0.6,0.4,1.1,1.2,1.4,2.1c0.4,0.9,0.5,1.9,0.5,2.9c0,1.6-0.4,3.3-1.3,5.1s-2.3,3.4-4.3,4.9c-2,1.5-4.7,2.8-8.1,3.7
		c-3.3,1-7.5,1.5-12.4,1.5c-6.7,0-12.6-1-17.6-3.1c-5-2-9.2-4.9-12.5-8.7c-3.3-3.7-5.8-8.2-7.5-13.5c-1.7-5.2-2.5-11-2.5-17.4
		c0-6.3,0.8-12,2.5-17.2c1.7-5.2,4.2-9.7,7.5-13.4c3.3-3.7,7.5-6.6,12.5-8.7c5-2.1,10.8-3.1,17.3-3.1c4.5,0,8.3,0.4,11.6,1.1
		c3.3,0.7,6,1.6,8.2,2.8c2.2,1.2,3.8,2.6,4.9,4.3c1.1,1.6,1.6,3.4,1.6,5.3c0,1.4-0.3,2.8-0.9,4c-0.6,1.2-1.5,2.3-2.8,3.2
		s-2.7,1.6-4.6,2.1c-1.8,0.5-3.9,0.8-6.2,0.8c0-1.9-0.2-3.8-0.6-5.7c-0.4-1.9-1.1-3.6-2.1-5.2c-1-1.5-2.3-2.8-3.9-3.8
		s-3.6-1.4-6-1.4c-3.7,0-6.8,0.8-9.3,2.3c-2.5,1.5-4.5,3.8-6.1,6.8c-1.5,3-2.6,6.6-3.3,11c-0.7,4.3-1,9.3-1,14.9s0.4,10.5,1.2,14.6
		s2.2,7.7,4,10.4c1.8,2.8,4.2,4.8,7.2,6.2C1001.8,110.2,1005.5,110.9,1009.8,110.9z M1015,133.5c0,2-0.4,3.9-1.2,5.5
		c-0.8,1.6-1.9,3-3.3,4.2s-3.2,2-5.2,2.6c-2,0.6-4.2,0.9-6.7,0.9c-0.6,0-1.3,0-2.2-0.1c-0.9-0.1-1.8-0.1-2.7-0.2s-1.9-0.2-2.8-0.4
		s-1.7-0.3-2.4-0.5v-7.1c1.4,0.3,2.8,0.5,4.2,0.7c1.4,0.2,2.6,0.2,3.7,0.2c2.2,0,3.9-0.4,5.2-1.2c1.3-0.8,1.9-2.2,1.9-4.2
		c0-1.1-0.2-2.1-0.7-2.8c-0.4-0.7-1-1.3-1.8-1.7c-0.8-0.4-1.7-0.8-2.8-1c-1.1-0.2-2.2-0.3-3.5-0.4l2.4-10.2h6.6l-1.2,5
		c1.9,0.2,3.6,0.5,5.1,1.1c1.5,0.6,2.8,1.3,3.9,2.2s1.9,2,2.5,3.2C1014.7,130.6,1015,132,1015,133.5z"/>
	<path class="st0" d="M1063.1,91.7l-3.3,9.9c-0.3,0.9-0.6,2-0.9,3.3c-0.3,1.3-0.5,2.4-0.5,3.3c0,0.8,0.2,1.4,0.4,2s0.7,1,1.2,1.4
		c0.5,0.4,1.1,0.6,1.7,0.8s1.3,0.3,1.9,0.3h4.9v6.2h-30.1v-6.2h1.4c1,0,1.9-0.1,2.8-0.3c0.8-0.2,1.6-0.7,2.4-1.3
		c0.7-0.6,1.4-1.5,2.1-2.6c0.7-1.1,1.3-2.5,2-4.2l25.1-68.1h15.9l24.2,68.2c0.6,1.6,1.2,3,1.8,4s1.3,1.9,2,2.5
		c0.7,0.6,1.5,1.1,2.3,1.3s1.7,0.4,2.6,0.4h2.1v6.2h-38.2v-6.2h4.5c0.6,0,1.2-0.1,1.8-0.2s1.1-0.4,1.6-0.8s0.9-0.8,1.2-1.4
		c0.3-0.6,0.4-1.2,0.4-2c0-0.9-0.1-1.8-0.3-2.7c-0.2-0.9-0.4-1.6-0.7-2.3l-4.1-11.6L1063.1,91.7L1063.1,91.7z M1082.8,65.7
		c-0.4-1.3-0.8-2.7-1.3-4.2c-0.4-1.4-0.9-2.9-1.3-4.4s-0.8-3-1.2-4.5c-0.4-1.5-0.7-2.9-1.1-4.3c-0.3,1.2-0.7,2.4-1.2,3.8
		c-0.4,1.4-0.9,2.8-1.4,4.3c-0.5,1.5-1,2.9-1.5,4.4s-1,2.9-1.4,4.2l-6.8,19.6h23.4L1082.8,65.7z"/>
</g>
</svg>
