<?xml version="1.0" encoding="utf-8"?>
<!-- Generator: Adobe Illustrator 22.0.1, SVG Export Plug-In . SVG Version: 6.00 Build 0)  -->
<svg version="1.1" id="Capa_1" xmlns="http://www.w3.org/2000/svg" xmlns:xlink="http://www.w3.org/1999/xlink" x="0px" y="0px"
	 viewBox="0 0 396.9 145.5" style="enable-background:new 0 0 396.9 145.5;" xml:space="preserve">
<style type="text/css">
	.st0{fill:#009BA4;}
</style>
<g>
	<path class="st0" d="M101.1,15.7l7.6-1.3l1.2,3.4h0.1c1.9-2.4,4.7-3.8,7.8-3.8c5.1,0,7.7,3,7.7,8.9V39H115V24.8
		c0-1.7-0.3-2.1-1.6-2.1c-0.6,0-1.2,0.1-1.7,0.4v16h-10.6V15.7z"/>
	<path class="st0" d="M127.3,26.7c0-8.5,4.1-12.7,12.5-12.7c8.4,0,12.5,4.2,12.5,12.7s-4.1,12.7-12.5,12.7
		C131.4,39.4,127.3,35.2,127.3,26.7 M141.5,26.7c0-4-0.4-4.9-1.8-4.9c-1.4,0-1.8,1-1.8,4.9c0,3.9,0.4,4.9,1.8,4.9
		C141.2,31.5,141.5,30.6,141.5,26.7"/>
	<path class="st0" d="M154.1,30.5V15.7l10.6-1.3v14.2c0,1.7,0.3,2.1,1.6,2.1c0.6,0,1.3-0.1,1.8-0.3V15.7l10.6-1.3V39H171l-1.2-2.8
		h-0.1c-1.9,1.9-4.8,3.3-7.9,3.3C156.7,39.4,154.1,36.5,154.1,30.5"/>
	<path d="M19.2,35.2L52,26.9V53h0.3c4.8-5,11.7-7.9,19.1-7.9c16,0,23.9,9.3,23.9,28.1v50.2H62.5V78.9c0-5.3-1-6.7-5.1-6.7
		c-1.8,0-3.7,0.3-5.2,1.2v50.1H19.2L19.2,35.2z"/>
	<path d="M100.9,85.1c0-26.6,12.9-39.7,38.9-39.7c26,0,39,13.2,39,39.7c0,26.6-12.9,39.7-39,39.7
		C113.8,124.9,100.9,111.7,100.9,85.1 M145.4,85.1c0-12.3-1.1-15.4-5.5-15.4c-4.4,0-5.5,3.1-5.5,15.4c0,12.1,1.1,15.1,5.5,15.1
		C144.3,100.3,145.4,97.3,145.4,85.1"/>
	<path d="M298.3,121.9c-5.4,2-11.6,3-18.6,3c-20.5,0-30.6-9.4-30.6-28.5V69.6h-8V46.8h8V35.2l32.9-8.3v19.9h14.7v22.8H282v22.1
		c0,6.6,1.4,8.2,7,8.2c1.6,0,3.2-0.4,4.3-1.2L298.3,121.9z"/>
	<path d="M185,51.1l23.7-4.1l3.9,10.4h0.3c4.2-7.9,10.1-11.8,17.8-11.8c2.7,0,5.1,0.3,7.1,1l-3.8,29.4c-2.5-0.9-5-1.3-7.6-1.3
		c-3.3,0-6.5,1.1-8.5,3v45.7H185V51.1z"/>
	<path d="M376.7,46.9v76.5H353l-3.9-8.8H349c-5.6,6.5-14,10.2-23,10.2c-17.5,0-26-13.1-26-39.7c0-26.8,8.6-39.7,26.1-39.7
		c9.4,0,17.7,4.3,22.8,11.9h0.2l3.9-10.5L376.7,46.9z M343.8,71.7c-1.1-0.7-2.6-0.9-4.1-0.9c-5,0-6.3,2.9-6.3,14.4
		c0,11.5,1.2,14.4,6.2,14.4c1.5,0,3.1-0.3,4.2-0.9V71.7z"/>
</g>
</svg>
