<?xml version="1.0" encoding="utf-8"?>
<!-- Generator: Adobe Illustrator 23.0.3, SVG Export Plug-In . SVG Version: 6.00 Build 0)  -->
<svg version="1.1" id="Layer_1" xmlns="http://www.w3.org/2000/svg" xmlns:xlink="http://www.w3.org/1999/xlink" x="0px" y="0px"
	 viewBox="0 0 738 121" style="enable-background:new 0 0 738 121;" xml:space="preserve">
<style type="text/css">
	.st0{fill:#006286;}
	.st1{fill:#1B75BC;}
</style>
<path class="st0" d="M93.49,61.47c0-6.78,0.99-12.97,2.97-18.59c1.98-5.61,4.92-10.42,8.83-14.42c3.9-4,8.74-7.08,14.5-9.25
	c5.77-2.17,12.43-3.25,20-3.25c7.69,0,14.41,1.08,20.18,3.25c5.77,2.17,10.6,5.25,14.5,9.25c3.9,4,6.85,8.81,8.83,14.42
	c1.98,5.61,2.97,11.81,2.97,18.59c0,6.67-0.99,12.75-2.97,18.25c-1.98,5.5-4.93,10.23-8.83,14.17c-3.91,3.95-8.74,6.97-14.5,9.08
	c-5.76,2.11-12.49,3.17-20.18,3.17c-7.57,0-14.23-1.06-20-3.17c-5.77-2.11-10.6-5.14-14.5-9.08c-3.9-3.94-6.85-8.67-8.83-14.17
	C94.48,74.22,93.49,68.13,93.49,61.47 M155.47,61.47c0-7.11-1.29-12.56-3.87-16.34c-2.59-3.78-6.52-5.67-11.8-5.67
	c-5.29,0-9.19,1.89-11.71,5.67c-2.52,3.78-3.78,9.22-3.78,16.34c0,7,1.26,12.39,3.78,16.17c2.52,3.78,6.42,5.67,11.71,5.67
	c5.28,0,9.22-1.89,11.8-5.67C154.17,73.86,155.47,68.47,155.47,61.47z"/>
<path class="st0" d="M88.98,61.51c0-7.44,1.09-14.23,3.26-20.39c1.1-3.11,2.47-6,4.11-8.66c-2.53-4.09-5.61-7.35-9.32-9.67
	c-4.27-2.67-9.04-4.42-14.32-5.25c-5.29-0.84-10.57-1.25-15.85-1.25c-9.01,0-16.52,0.64-22.52,1.92
	c-6.01,1.28-11.11,2.58-15.31,3.92v81.85c3.12,0.56,5.95,0.92,8.47,1.08c2.52,0.17,4.8,0.25,6.85,0.25c1.92,0,4.14-0.08,6.67-0.25
	c2.52-0.17,5.34-0.53,8.47-1.08V41.63c0.36-0.22,1.29-0.44,2.79-0.67c1.5-0.22,2.91-0.33,4.23-0.33c4.92,0,8.59,1.28,10.99,3.83
	c2.4,2.56,3.6,6.78,3.6,12.67v46.84c3.12,0.56,5.95,0.92,8.47,1.08c2.52,0.17,4.8,0.25,6.85,0.25c1.92,0,4.14-0.08,6.67-0.25
	c2.52-0.17,5.34-0.53,8.47-1.08v-7.34c-4.08-4.24-7.19-9.26-9.29-15.1C90.07,75.5,88.98,68.82,88.98,61.51"/>
<path class="st0" d="M253,16.79c-2.64-0.22-5.11-0.34-7.39-0.34c-2.4,0-4.89,0.11-7.48,0.34c-2.58,0.22-5.2,0.61-7.84,1.16v63.18
	c-0.48,0.11-1.26,0.22-2.34,0.33c-1.08,0.11-2.64,0.17-4.68,0.17c-4.93,0-8.59-1.22-10.99-3.67c-2.4-2.44-3.6-7-3.6-13.67V17.96
	c-2.52-0.55-5.11-0.94-7.75-1.16c-2.64-0.22-5.11-0.34-7.39-0.34c-2.4,0-4.9,0.11-7.48,0.34c-2.58,0.22-5.2,0.61-7.84,1.16v7.79
	c4.07,4.3,7.19,9.41,9.29,15.37c2.17,6.16,3.26,12.95,3.26,20.39c0,7.32-1.09,13.99-3.26,20.03c-1.09,3.02-2.44,5.83-4.06,8.42
	c2.33,3.9,5.22,7.02,8.73,9.27c4.26,2.72,9.22,4.53,14.86,5.42c5.64,0.89,11.53,1.33,17.65,1.33c3.24,0,6.55-0.17,9.91-0.5
	c3.36-0.33,6.63-0.81,9.82-1.42c3.18-0.61,6.18-1.25,9.01-1.92c2.82-0.67,5.25-1.33,7.3-2V17.96C258.22,17.4,255.64,17.01,253,16.79
	"/>
<path class="st1" d="M342.87,72.3H316.2v31.67c-3.12,0.44-5.94,0.78-8.47,1c-2.52,0.22-4.81,0.34-6.85,0.34
	c-2.04,0-4.32-0.11-6.85-0.34c-2.52-0.22-5.29-0.56-8.29-1V17.96c2.64-0.55,5.25-0.94,7.84-1.16c2.58-0.22,5.07-0.34,7.48-0.34
	c2.28,0,4.74,0.11,7.39,0.34c2.64,0.22,5.23,0.61,7.75,1.16V47.3h26.66V17.96c2.64-0.55,5.25-0.94,7.84-1.16
	c2.58-0.22,5.07-0.34,7.47-0.34c2.28,0,4.75,0.11,7.39,0.34c2.64,0.22,5.23,0.61,7.75,1.16v86.01c-3.12,0.44-5.94,0.78-8.47,1
	c-2.52,0.22-4.8,0.34-6.84,0.34c-2.04,0-4.32-0.11-6.85-0.34c-2.52-0.22-5.29-0.56-8.29-1"/>
<path class="st1" d="M378.66,61.47c0-6.78,0.99-12.97,2.97-18.59c1.98-5.61,4.92-10.42,8.83-14.42c3.9-4,8.74-7.08,14.5-9.25
	c5.77-2.17,12.43-3.25,20-3.25c7.69,0,14.41,1.08,20.18,3.25c5.76,2.17,10.6,5.25,14.5,9.25c3.9,4,6.85,8.81,8.83,14.42
	c1.98,5.61,2.97,11.81,2.97,18.59c0,6.67-0.99,12.75-2.97,18.25s-4.93,10.23-8.83,14.17c-3.9,3.95-8.74,6.97-14.5,9.08
	c-5.77,2.11-12.49,3.17-20.18,3.17c-7.57,0-14.23-1.06-20-3.17c-5.76-2.11-10.6-5.14-14.5-9.08c-3.91-3.94-6.85-8.67-8.83-14.17
	C379.65,74.22,378.66,68.13,378.66,61.47 M440.64,61.47c0-7.11-1.29-12.56-3.87-16.34c-2.59-3.78-6.52-5.67-11.8-5.67
	c-5.29,0-9.19,1.89-11.71,5.67c-2.52,3.78-3.78,9.22-3.78,16.34c0,7,1.26,12.39,3.78,16.17c2.52,3.78,6.42,5.67,11.71,5.67
	c5.29,0,9.22-1.89,11.8-5.67C439.34,73.86,440.64,68.47,440.64,61.47z"/>
<path class="st1" d="M476.79,18.29c5.65-0.67,11.5-1.22,17.57-1.67c6.07-0.44,11.8-0.67,17.2-0.67c14.53,0,25.43,2.53,32.7,7.59
	c7.26,5.06,10.9,12.14,10.9,21.25c0,3.45-0.42,6.45-1.26,9c-0.84,2.56-1.86,4.75-3.06,6.58c-1.2,1.83-2.46,3.31-3.78,4.42
	c-1.32,1.11-2.4,2-3.24,2.67l20.54,36.34c-2.4,0.44-5.08,0.78-8.02,1c-2.94,0.22-5.8,0.34-8.56,0.34c-3.37,0-6.61-0.11-9.73-0.34
	c-3.13-0.22-5.7-0.56-7.75-1l-20-39.34l2.52-1.33c4.21-2.22,7.09-4.58,8.65-7.09c1.56-2.5,2.34-5.19,2.34-8.08
	c0-2.89-0.93-5.25-2.79-7.08c-1.86-1.83-4.84-2.75-8.92-2.75c-2.29,0-4.03,0.11-5.23,0.33v65.51c-3.12,0.56-5.94,0.92-8.47,1.08
	c-2.53,0.17-4.75,0.25-6.67,0.25c-2.04,0-4.26-0.08-6.67-0.25c-2.4-0.17-5.17-0.53-8.29-1.08"/>
<path class="st1" d="M585.61,41.46h-26.66c-0.6-2.22-0.99-4.31-1.17-6.25c-0.18-1.94-0.27-3.81-0.27-5.59c0-1.78,0.09-3.61,0.27-5.5
	c0.18-1.89,0.57-3.94,1.17-6.17h83.78c0.6,2.23,0.99,4.28,1.17,6.17c0.18,1.89,0.27,3.72,0.27,5.5c0,1.78-0.09,3.64-0.27,5.59
	c-0.18,1.94-0.57,4.03-1.17,6.25h-26.66v62.51c-3.12,0.44-5.95,0.78-8.47,1c-2.53,0.22-4.81,0.34-6.85,0.34
	c-2.04,0-4.32-0.11-6.85-0.34c-2.52-0.22-5.29-0.56-8.29-1"/>
<path class="st1" d="M644.16,75.97c0-5.44,1.26-9.94,3.78-13.5c2.52-3.55,5.77-6.39,9.73-8.5c3.96-2.11,8.34-3.59,13.15-4.42
	c4.8-0.83,9.48-1.25,14.05-1.25h10.99c-0.12-2-0.72-3.67-1.8-5c-1.08-1.33-2.46-2.36-4.14-3.09c-1.68-0.72-3.55-1.22-5.59-1.5
	c-2.04-0.27-4.14-0.41-6.31-0.41c-2.88,0-6.25,0.31-10.09,0.92c-3.85,0.61-7.81,1.58-11.89,2.92c-1.08-1.89-2.01-3.61-2.79-5.17
	c-0.78-1.55-1.38-3.14-1.8-4.75c-0.42-1.61-0.72-3.28-0.9-5c-0.18-1.72-0.27-3.69-0.27-5.92c5.77-1.78,11.5-3.11,17.21-4
	c5.7-0.89,10.84-1.33,15.4-1.33c6.24,0,11.89,0.7,16.94,2.08c5.05,1.39,9.34,3.53,12.88,6.42c3.54,2.89,6.27,6.58,8.2,11.09
	c1.92,4.5,2.88,9.86,2.88,16.08v48.84c-4.57,1.22-10.09,2.45-16.57,3.67c-6.49,1.22-13.33,1.83-20.54,1.83
	c-6.25,0-11.98-0.53-17.2-1.58c-5.23-1.06-9.7-2.75-13.42-5.09c-3.72-2.33-6.64-5.42-8.74-9.25
	C645.21,86.22,644.16,81.52,644.16,75.97 M686.68,85.3c1.08,0,2.64-0.11,4.69-0.33c2.04-0.22,3.54-0.44,4.5-0.67V65.96H685.6
	c-4.21,0-7.75,0.84-10.63,2.5c-2.88,1.67-4.32,4-4.32,7c0,2.22,0.54,3.97,1.62,5.25c1.08,1.28,2.43,2.25,4.05,2.92
	c1.62,0.67,3.36,1.11,5.23,1.33C683.4,85.19,685.12,85.3,686.68,85.3z"/>
</svg>
